1832
-3.056100 1.817949 -0.630272 255 255 255 255
-0.349334 1.165076 0.115906 255 255 255 255
-3.056100 1.817949 -0.630272 255 255 255 255
-2.233266 0.647624 -0.865523 255 255 255 255
-3.056100 1.817949 -0.630272 255 255 255 255
-4.577598 2.992702 -0.426845 255 255 255 255
-0.243023 0.061760 0.437704 255 255 255 255
-0.654295 0.839241 -0.836326 255 255 255 255
2.213891 1.366486 0.753539 255 255 255 255
-3.623421 2.620991 -0.485966 255 255 255 255
-3.056100 1.817949 -0.630272 255 255 255 255
-1.942953 -4.848924 -0.529965 255 255 255 255
-3.056100 1.817949 -0.630272 255 255 255 255
5.075332 1.324635 0.814385 255 255 255 255
-1.170129 -0.705960 0.291447 255 255 255 255
-0.868702 2.013837 -0.395620 255 255 255 255
-1.471959 2.560962 -0.457502 255 255 255 255
-2.812080 1.863068 -0.608186 255 255 255 255
-3.056100 1.817949 -0.630272 255 255 255 255
-2.811970 -1.953279 0.037666 255 255 255 255
-3.056100 1.817949 -0.630272 255 255 255 255
-3.056100 1.817949 -0.630272 255 255 255 255
-1.743760 2.245105 -0.536933 255 255 255 255
-3.623421 2.620991 -0.485966 255 255 255 255
-3.564070 4.378580 -0.128694 255 255 255 255
-3.487382 1.910183 -0.610764 255 255 255 255
-3.444878 -4.305080 -0.404147 255 255 255 255
-1.962326 -1.677128 0.077630 255 255 255 255
-3.623421 2.620991 -0.485966 255 255 255 255
-0.742097 1.796873 -0.279997 255 255 255 255
-3.487382 1.910183 -0.610764 255 255 255 255
-2.350241 1.879548 -0.600006 255 255 255 255
-3.623421 2.620991 -0.485966 255 255 255 255
-2.106551 -2.079144 -0.004053 255 255 255 255
-3.700719 2.246924 -0.554474 255 255 255 255
-3.623421 2.620991 -0.485966 255 255 255 255
-0.814281 -1.556040 -1.280148 255 255 255 255
2.875985 -0.292749 0.427562 255 255 255 255
-0.562837 1.480332 -0.088328 255 255 255 255
3.914469 1.454964 0.809060 255 255 255 255
-3.211332 3.006961 -0.400956 255 255 255 255
-3.623421 2.620991 -0.485966 255 255 255 255
-3.487382 1.910183 -0.610764 255 255 255 255
-1.942953 -4.848924 -0.529965 255 255 255 255
-3.211332 3.006961 -0.400956 255 255 255 255
-2.811970 -1.953279 0.037666 255 255 255 255
-3.623421 2.620991 -0.485966 255 255 255 255
-1.501087 -0.575551 -1.117162 255 255 255 255
1.447143 -1.161398 0.216421 255 255 255 255
-4.454707 -3.365852 -0.246357 255 255 255 255
1.958526 2.349345 0.944939 255 255 255 255
-3.623421 2.620991 -0.485966 255 255 255 255
-3.496462 1.916169 -0.612680 255 255 255 255
-3.211332 3.006961 -0.400956 255 255 255 255
-0.191775 -2.120844 -1.351007 255 255 255 255
-2.812080 1.863068 -0.608186 255 255 255 255
-0.041467 0.287820 0.491769 255 255 255 255
-4.316245 -3.999440 -0.384213 255 255 255 255
-3.211332 3.006961 -0.400956 255 255 255 255
-1.238694 0.935024 -0.792442 255 255 255 255
-3.211332 3.006961 -0.400956 255 255 255 255
-2.040202 0.789068 -0.838732 255 255 255 255
1.958526 2.349345 0.944939 255 255 255 255
-3.211332 3.006961 -0.400956 255 255 255 255
-0.383938 -3.766908 -0.306225 255 255 255 255
-3.211332 3.006961 -0.400956 255 255 255 255
-5.577041 2.722587 -0.477291 255 255 255 255
-1.986767 1.445203 -0.681967 255 255 255 255
-2.812080 1.863068 -0.608186 255 255 255 255
-2.104504 -3.116025 -0.194355 255 255 255 255
-5.342925 2.950327 -0.451017 255 255 255 255
-3.211332 3.006961 -0.400956 255 255 255 255
-3.284026 2.936286 -0.402083 255 255 255 255
-3.487382 1.910183 -0.610764 255 255 255 255
2.784201 2.082869 0.904150 255 255 255 255
-1.281176 1.298008 -0.749620 255 255 255 255
-3.284026 2.936286 -0.402083 255 255 255 255
-4.528535 3.087464 -0.402321 255 255 255 255
-3.487382 1.910183 -0.610764 255 255 255 255
-4.715282 2.909097 -0.447233 255 255 255 255
-1.471959 2.560962 -0.457502 255 255 255 255
-4.454707 -3.365852 -0.246357 255 255 255 255
1.463729 -2.108461 0.040063 255 255 255 255
-4.316245 -3.999440 -0.384213 255 255 255 255
-3.284026 2.936286 -0.402083 255 255 255 255
-4.967712 2.616451 -0.510922 255 255 255 255
-3.284026 2.936286 -0.402083 255 255 255 255
-0.200334 -2.222033 -1.325530 255 255 255 255
-3.284026 2.936286 -0.402083 255 255 255 255
-2.281996 -1.532253 0.121182 255 255 255 255
-3.496462 1.916169 -0.612680 255 255 255 255
-0.106395 -4.152131 -0.388468 255 255 255 255
-3.284026 2.936286 -0.402083 255 255 255 255
3.292872 -1.654626 0.190034 255 255 255 255
-3.284026 2.936286 -0.402083 255 255 255 255
-0.814281 -1.556040 -1.280148 255 255 255 255
-0.711383 -2.033633 0.035152 255 255 255 255
2.412227 -0.209059 0.423857 255 255 255 255
-3.284026 2.936286 -0.402083 255 255 255 255
-1.841504 0.921185 -0.808036 255 255 255 255
-3.496462 1.916169 -0.612680 255 255 255 255
-2.811970 -1.953279 0.037666 255 255 255 255
-3.133972 -5.471428 -0.648976 255 255 255 255
-0.560209 1.473644 -0.086880 255 255 255 255
1.569893 -1.352776 0.188978 255 255 255 255
-3.700719 2.246924 -0.554474 255 255 255 255
-3.700719 2.246924 -0.554474 255 255 255 255
-3.771378 4.223332 -0.167327 255 255 255 255
-1.301743 -0.941233 -1.185929 255 255 255 255
2.772090 -0.380533 0.399724 255 255 255 255
-3.700719 2.246924 -0.554474 255 255 255 255
-3.700719 2.246924 -0.554474 255 255 255 255
-3.771378 4.223332 -0.167327 255 255 255 255
-4.577598 2.992702 -0.426845 255 255 255 255
-2.812080 1.863068 -0.608186 255 255 255 255
-3.860833 -4.212194 -0.406413 255 255 255 255
3.211994 -1.707437 0.176398 255 255 255 255
-3.496462 1.916169 -0.612680 255 255 255 255
-3.700719 2.246924 -0.554474 255 255 255 255
-2.538551 0.744270 -0.839966 255 255 255 255
0.974744 -2.647526 -0.056858 255 255 255 255
-3.700719 2.246924 -0.554474 255 255 255 255
-3.700719 2.246924 -0.554474 255 255 255 255
2.145065 -2.416242 0.005708 255 255 255 255
-0.498676 -3.340061 -0.213653 255 255 255 255
-0.338892 1.156700 0.123845 255 255 255 255
0.412447 0.748929 -0.809790 255 255 255 255
-3.496462 1.916169 -0.612680 255 255 255 255
3.025344 0.043752 0.498631 255 255 255 255
-3.496462 1.916169 -0.612680 255 255 255 255
-1.529188 -0.377598 -1.065052 255 255 255 255
3.292872 -1.654626 0.190034 255 255 255 255
-1.501087 -0.575551 -1.117162 255 255 255 255
-3.338569 -4.554065 -0.453981 255 255 255 255
1.397600 0.373390 0.529202 255 255 255 255
-3.496462 1.916169 -0.612680 255 255 255 255
-0.610059 -2.615983 -0.078241 255 255 255 255
1.100543 0.906505 0.642297 255 255 255 255
-3.496462 1.916169 -0.612680 255 255 255 255
2.113884 0.372468 0.554658 255 255 255 255
-3.487382 1.910183 -0.610764 255 255 255 255
-4.072468 3.942786 -0.239041 255 255 255 255
-3.487382 1.910183 -0.610764 255 255 255 255
-3.487382 1.910183 -0.610764 255 255 255 255
-0.742097 1.796873 -0.279997 255 255 255 255
-2.812080 1.863068 -0.608186 255 255 255 255
-2.812080 1.863068 -0.608186 255 255 255 255
-0.610059 -2.615983 -0.078241 255 255 255 255
-2.812080 1.863068 -0.608186 255 255 255 255
-2.780572 4.371655 -0.112632 255 255 255 255
-2.812080 1.863068 -0.608186 255 255 255 255
-1.743760 2.245105 -0.536933 255 255 255 255
-5.186017 2.853283 -0.468217 255 255 255 255
-2.350241 1.879548 -0.600006 255 255 255 255
-2.350241 1.879548 -0.600006 255 255 255 255
-1.982134 -5.391610 -0.632235 255 255 255 255
0.888437 -3.604199 -0.242457 255 255 255 255
-4.072468 3.942786 -0.239041 255 255 255 255
-1.207903 0.915122 -0.790295 255 255 255 255
4.629129 -0.566326 0.423113 255 255 255 255
-4.967712 2.616451 -0.510922 255 255 255 255
2.068784 1.547693 0.783583 255 255 255 255
-2.350241 1.879548 -0.600006 255 255 255 255
-2.118653 1.215515 -0.745864 255 255 255 255
4.050954 1.554459 0.833453 255 255 255 255
-2.350241 1.879548 -0.600006 255 255 255 255
-0.819885 1.932392 -0.328522 255 255 255 255
-2.350241 1.879548 -0.600006 255 255 255 255
-1.040913 0.703910 -0.828693 255 255 255 255
-2.350241 1.879548 -0.600006 255 255 255 255
0.871424 0.120764 0.452600 255 255 255 255
-0.997899 2.209397 -0.486444 255 255 255 255
-0.643335 -2.339556 -0.023408 255 255 255 255
-2.350241 1.879548 -0.600006 255 255 255 255
-3.339033 4.515880 -0.089624 255 255 255 255
-4.353452 -3.973855 -0.377156 255 255 255 255
-0.349334 1.165076 0.115906 255 255 255 255
2.887261 -0.557257 0.378268 255 255 255 255
-2.028907 1.634823 -0.642719 255 255 255 255
-2.675928 3.524330 -0.274425 255 255 255 255
-2.028907 1.634823 -0.642719 255 255 255 255
-4.279873 3.685752 -0.289967 255 255 255 255
-2.028907 1.634823 -0.642719 255 255 255 255
-2.028907 1.634823 -0.642719 255 255 255 255
-2.028907 1.634823 -0.642719 255 255 255 255
-2.028907 1.634823 -0.642719 255 255 255 255
-2.028907 1.634823 -0.642719 255 255 255 255
-2.028907 1.634823 -0.642719 255 255 255 255
-1.595067 1.719796 -0.659442 255 255 255 255
-2.313809 1.058406 -0.783176 255 255 255 255
-2.538551 0.744270 -0.839966 255 255 255 255
-2.313809 1.058406 -0.783176 255 255 255 255
-1.170509 0.106280 -0.956269 255 255 255 255
0.364710 -4.072826 -0.344498 255 255 255 255
-0.814281 -1.556040 -1.280148 255 255 255 255
2.412227 -0.209059 0.423857 255 255 255 255
-2.313809 1.058406 -0.783176 255 255 255 255
5.075332 1.324635 0.814385 255 255 255 255
-2.313809 1.058406 -0.783176 255 255 255 255
-1.541910 1.022346 -0.780248 255 255 255 255
-2.313809 1.058406 -0.783176 255 255 255 255
-0.802504 -0.451531 0.353230 255 255 255 255
-2.313809 1.058406 -0.783176 255 255 255 255
-1.390682 -0.168401 -1.025587 255 255 255 255
1.671949 -1.527220 0.152806 255 255 255 255
-1.238694 0.935024 -0.792442 255 255 255 255
-2.313809 1.058406 -0.783176 255 255 255 255
-0.997899 2.209397 -0.486444 255 255 255 255
-2.054814 -3.336667 -0.232649 255 255 255 255
2.772090 -0.380533 0.399724 255 255 255 255
-2.313809 1.058406 -0.783176 255 255 255 255
4.214618 -0.622518 0.385882 255 255 255 255
-4.967712 2.616451 -0.510922 255 255 255 255
3.436142 1.436445 0.803476 255 255 255 255
-4.528535 3.087464 -0.402321 255 255 255 255
-1.541910 1.022346 -0.780248 255 255 255 255
-4.528535 3.087464 -0.402321 255 255 255 255
1.791380 -2.285634 0.022167 255 255 255 255
2.818656 -1.626362 0.152974 255 255 255 255
-0.027881 0.507706 0.459308 255 255 255 255
-4.528535 3.087464 -0.402321 255 255 255 255
-4.528535 3.087464 -0.402321 255 255 255 255
-4.528535 3.087464 -0.402321 255 255 255 255
-4.528535 3.087464 -0.402321 255 255 255 255
-4.528535 3.087464 -0.402321 255 255 255 255
-2.118653 1.215515 -0.745864 255 255 255 255
2.261497 -2.328249 0.022810 255 255 255 255
-2.118653 1.215515 -0.745864 255 255 255 255
-1.912209 -4.396593 -0.434642 255 255 255 255
-1.529188 -0.377598 -1.065052 255 255 255 255
1.598178 -2.149490 0.042726 255 255 255 255
-0.073135 0.756067 0.372324 255 255 255 255
-2.118653 1.215515 -0.745864 255 255 255 255
-1.040913 0.703910 -0.828693 255 255 255 255
-1.471959 2.560962 -0.457502 255 255 255 255
-1.954710 -5.085269 -0.582963 255 255 255 255
-2.118653 1.215515 -0.745864 255 255 255 255
-3.339033 4.515880 -0.089624 255 255 255 255
-2.118653 1.215515 -0.745864 255 255 255 255
0.380830 1.259494 0.699882 255 255 255 255
-2.118653 1.215515 -0.745864 255 255 255 255
-2.118653 1.215515 -0.745864 255 255 255 255
2.887125 -0.087783 0.439342 255 255 255 255
-0.560209 1.473644 -0.086880 255 255 255 255
1.594738 0.171109 0.477858 255 255 255 255
-2.106551 -2.079144 -0.004053 255 255 255 255
1.598178 -2.149490 0.042726 255 255 255 255
-1.743760 2.245105 -0.536933 255 255 255 255
-3.860833 -4.212194 -0.406413 255 255 255 255
2.436045 0.896605 0.672159 255 255 255 255
-2.040202 0.789068 -0.838732 255 255 255 255
-1.170509 0.106280 -0.956269 255 255 255 255
-2.040202 0.789068 -0.838732 255 255 255 255
-2.673524 -5.906398 -0.744080 255 255 255 255
-2.675928 3.524330 -0.274425 255 255 255 255
-2.040202 0.789068 -0.838732 255 255 255 255
-2.233266 0.647624 -0.865523 255 255 255 255
-2.040202 0.789068 -0.838732 255 255 255 255
-2.040202 0.789068 -0.838732 255 255 255 255
1.791380 -2.285634 0.022167 255 255 255 255
-2.040202 0.789068 -0.838732 255 255 255 255
-0.819885 1.932392 -0.328522 255 255 255 255
-2.040202 0.789068 -0.838732 255 255 255 255
2.708864 -1.363104 0.195510 255 255 255 255
-2.233266 0.647624 -0.865523 255 255 255 255
1.958526 2.349345 0.944939 255 255 255 255
-0.560209 1.473644 -0.086880 255 255 255 255
-2.233266 0.647624 -0.865523 255 255 255 255
4.214618 -0.622518 0.385882 255 255 255 255
-2.533800 4.017893 -0.178329 255 255 255 255
-1.578209 -1.399237 0.138830 255 255 255 255
-2.233266 0.647624 -0.865523 255 255 255 255
-2.233266 0.647624 -0.865523 255 255 255 255
-1.940182 -3.764026 -0.329054 255 255 255 255
3.211994 -1.707437 0.176398 255 255 255 255
-2.233266 0.647624 -0.865523 255 255 255 255
-0.073135 0.756067 0.372324 255 255 255 255
-2.233266 0.647624 -0.865523 255 255 255 255
-0.562837 1.480332 -0.088328 255 255 255 255
-1.841504 0.921185 -0.808036 255 255 255 255
-1.841504 0.921185 -0.808036 255 255 255 255
-1.390682 -0.168401 -1.025587 255 255 255 255
-5.518690 2.896623 -0.446634 255 255 255 255
-0.819885 1.932392 -0.328522 255 255 255 255
1.198561 -2.157242 0.029963 255 255 255 255
2.661343 -1.350291 0.183186 255 255 255 255
-1.841504 0.921185 -0.808036 255 255 255 255
0.775096 0.512812 0.555255 255 255 255 255
-2.386935 0.600417 -0.878522 255 255 255 255
-1.841504 0.921185 -0.808036 255 255 255 255
3.571298 2.656867 1.039188 255 255 255 255
-1.501087 -0.575551 -1.117162 255 255 255 255
-4.303215 -3.216769 -0.210017 255 255 255 255
1.569893 -1.352776 0.188978 255 255 255 255
-1.841504 0.921185 -0.808036 255 255 255 255
-1.841504 0.921185 -0.808036 255 255 255 255
-0.997899 2.209397 -0.486444 255 255 255 255
1.198561 -2.157242 0.029963 255 255 255 255
-1.841504 0.921185 -0.808036 255 255 255 255
-1.541910 1.022346 -0.780248 255 255 255 255
-1.541910 1.022346 -0.780248 255 255 255 255
-1.039040 0.350542 -0.897218 255 255 255 255
-1.541910 1.022346 -0.780248 255 255 255 255
-3.133972 -5.471428 -0.648976 255 255 255 255
-0.819885 1.932392 -0.328522 255 255 255 255
-4.967712 2.616451 -0.510922 255 255 255 255
-1.541910 1.022346 -0.780248 255 255 255 255
-1.578209 -1.399237 0.138830 255 255 255 255
1.791380 -2.285634 0.022167 255 255 255 255
-1.541910 1.022346 -0.780248 255 255 255 255
-1.541910 1.022346 -0.780248 255 255 255 255
-2.340232 -1.588175 0.113170 255 255 255 255
-1.940182 -3.764026 -0.329054 255 255 255 255
0.916598 -3.572373 -0.236553 255 255 255 255
-0.338892 1.156700 0.123845 255 255 255 255
-2.386935 0.600417 -0.878522 255 255 255 255
-2.386935 0.600417 -0.878522 255 255 255 255
-0.106395 -4.152131 -0.388468 255 255 255 255
-1.429311 2.566844 -0.458986 255 255 255 255
-3.338569 -4.554065 -0.453981 255 255 255 255
-2.386935 0.600417 -0.878522 255 255 255 255
-3.564070 4.378580 -0.128694 255 255 255 255
4.175276 2.554741 1.036940 255 255 255 255
-2.386935 0.600417 -0.878522 255 255 255 255
-1.291562 1.307656 -0.749315 255 255 255 255
-2.386935 0.600417 -0.878522 255 255 255 255
-1.471959 2.560962 -0.457502 255 255 255 255
2.818656 -1.626362 0.152974 255 255 255 255
1.463729 -2.108461 0.040063 255 255 255 255
-2.386935 0.600417 -0.878522 255 255 255 255
-2.386935 0.600417 -0.878522 255 255 255 255
1.804613 1.898900 0.863350 255 255 255 255
-1.207903 0.915122 -0.790295 255 255 255 255
-1.986767 1.445203 -0.681967 255 255 255 255
-2.538551 0.744270 -0.839966 255 255 255 255
-2.538551 0.744270 -0.839966 255 255 255 255
-1.040913 0.703910 -0.828693 255 255 255 255
-2.538551 0.744270 -0.839966 255 255 255 255
-0.338892 1.156700 0.123845 255 255 255 255
-2.538551 0.744270 -0.839966 255 255 255 255
-0.562837 1.480332 -0.088328 255 255 255 255
-2.538551 0.744270 -0.839966 255 255 255 255
2.951513 -1.684401 0.147898 255 255 255 255
-2.538551 0.744270 -0.839966 255 255 255 255
-0.562837 1.480332 -0.088328 255 255 255 255
-1.986767 1.445203 -0.681967 255 255 255 255
2.818656 -1.626362 0.152974 255 255 255 255
-1.986767 1.445203 -0.681967 255 255 255 255
2.808750 -0.969424 0.303630 255 255 255 255
-1.986767 1.445203 -0.681967 255 255 255 255
-0.616197 -0.296484 0.368271 255 255 255 255
-1.986767 1.445203 -0.681967 255 255 255 255
-1.986767 1.445203 -0.681967 255 255 255 255
-0.562837 1.480332 -0.088328 255 255 255 255
3.436142 1.436445 0.803476 255 255 255 255
-1.986767 1.445203 -0.681967 255 255 255 255
-1.238694 0.935024 -0.792442 255 255 255 255
0.916598 -3.572373 -0.236553 255 255 255 255
-0.073135 0.756067 0.372324 255 255 255 255
-0.041467 0.287820 0.491769 255 255 255 255
-1.238694 0.935024 -0.792442 255 255 255 255
-0.643335 -2.339556 -0.023408 255 255 255 255
-1.238694 0.935024 -0.792442 255 255 255 255
-1.238694 0.935024 -0.792442 255 255 255 255
-1.207903 0.915122 -0.790295 255 255 255 255
-1.238694 0.935024 -0.792442 255 255 255 255
-1.238694 0.935024 -0.792442 255 255 255 255
-0.610059 -2.615983 -0.078241 255 255 255 255
-1.207903 0.915122 -0.790295 255 255 255 255
-1.207903 0.915122 -0.790295 255 255 255 255
-0.643335 -2.339556 -0.023408 255 255 255 255
1.463729 -2.108461 0.040063 255 255 255 255
5.553034 0.699922 0.676269 255 255 255 255
1.110025 -0.482650 0.341660 255 255 255 255
-4.839951 2.492428 -0.541033 255 255 255 255
-5.577041 2.722587 -0.477291 255 255 255 255
-1.207903 0.915122 -0.790295 255 255 255 255
-1.291562 1.307656 -0.749315 255 255 255 255
2.110147 -1.933406 0.088556 255 255 255 255
-1.207903 0.915122 -0.790295 255 255 255 255
2.661343 -1.350291 0.183186 255 255 255 255
-0.498676 -3.340061 -0.213653 255 255 255 255
-0.868702 2.013837 -0.395620 255 255 255 255
-1.207903 0.915122 -0.790295 255 255 255 255
-2.007786 -1.751254 0.056359 255 255 255 255
-4.577598 2.992702 -0.426845 255 255 255 255
-2.585897 3.640076 -0.260951 255 255 255 255
2.113884 0.372468 0.554658 255 255 255 255
-4.577598 2.992702 -0.426845 255 255 255 255
-4.577598 2.992702 -0.426845 255 255 255 255
-1.912209 -4.396593 -0.434642 255 255 255 255
4.038317 2.293448 0.959154 255 255 255 255
-4.577598 2.992702 -0.426845 255 255 255 255
-2.054814 -3.336667 -0.232649 255 255 255 255
-4.577598 2.992702 -0.426845 255 255 255 255
-4.577598 2.992702 -0.426845 255 255 255 255
1.397600 0.373390 0.529202 255 255 255 255
-1.529188 -0.377598 -1.065052 255 255 255 255
-4.715282 2.909097 -0.447233 255 255 255 255
-1.281176 1.298008 -0.749620 255 255 255 255
-4.715282 2.909097 -0.447233 255 255 255 255
-4.715282 2.909097 -0.447233 255 255 255 255
-1.940182 -3.764026 -0.329054 255 255 255 255
-4.715282 2.909097 -0.447233 255 255 255 255
-4.061034 -4.201297 -0.421831 255 255 255 255
-4.316245 -3.999440 -0.384213 255 255 255 255
-4.353452 -3.973855 -0.377156 255 255 255 255
-3.176744 -5.298476 -0.609948 255 255 255 255
-0.027881 0.507706 0.459308 255 255 255 255
-4.715282 2.909097 -0.447233 255 255 255 255
-4.715282 2.909097 -0.447233 255 255 255 255
-1.039040 0.350542 -0.897218 255 255 255 255
-4.715282 2.909097 -0.447233 255 255 255 255
-2.533800 4.017893 -0.178329 255 255 255 255
-4.072468 3.942786 -0.239041 255 255 255 255
-0.164437 -0.995044 -1.155805 255 255 255 255
0.775096 0.512812 0.555255 255 255 255 255
-2.281996 -1.532253 0.121182 255 255 255 255
-4.072468 3.942786 -0.239041 255 255 255 255
-1.501087 -0.575551 -1.117162 255 255 255 255
-1.510628 -0.950556 0.241807 255 255 255 255
-1.281176 1.298008 -0.749620 255 255 255 255
-1.909635 -4.079890 -0.386994 255 255 255 255
-4.072468 3.942786 -0.239041 255 255 255 255
-4.072468 3.942786 -0.239041 255 255 255 255
-4.072468 3.942786 -0.239041 255 255 255 255
-4.072468 3.942786 -0.239041 255 255 255 255
-1.390682 -0.168401 -1.025587 255 255 255 255
-4.279873 3.685752 -0.289967 255 255 255 255
-2.941681 4.502069 -0.086382 255 255 255 255
-3.606303 -2.645847 -0.090303 255 255 255 255
-4.279873 3.685752 -0.289967 255 255 255 255
2.763790 2.101090 0.906532 255 255 255 255
-4.279873 3.685752 -0.289967 255 255 255 255
1.920359 0.138357 0.500825 255 255 255 255
-1.039040 0.350542 -0.897218 255 255 255 255
-4.279873 3.685752 -0.289967 255 255 255 255
-4.279873 3.685752 -0.289967 255 255 255 255
-4.279873 3.685752 -0.289967 255 255 255 255
-4.279873 3.685752 -0.289967 255 255 255 255
0.742447 0.618722 0.569584 255 255 255 255
0.020467 -4.162548 -0.387932 255 255 255 255
1.100543 0.906505 0.642297 255 255 255 255
-0.868702 2.013837 -0.395620 255 255 255 255
-4.967712 2.616451 -0.510922 255 255 255 255
5.541364 0.266264 0.621740 255 255 255 255
-1.039040 0.350542 -0.897218 255 255 255 255
-4.967712 2.616451 -0.510922 255 255 255 255
-4.967712 2.616451 -0.510922 255 255 255 255
-4.967712 2.616451 -0.510922 255 255 255 255
-1.743760 2.245105 -0.536933 255 255 255 255
-0.234341 0.993439 0.238058 255 255 255 255
0.427002 0.316231 -0.888070 255 255 255 255
2.507919 2.384885 0.954419 255 255 255 255
-3.771378 4.223332 -0.167327 255 255 255 255
-4.839951 2.492428 -0.541033 255 255 255 255
4.406626 -0.636069 0.395084 255 255 255 255
-3.771378 4.223332 -0.167327 255 255 255 255
-2.281996 -1.532253 0.121182 255 255 255 255
-0.498676 -3.340061 -0.213653 255 255 255 255
-0.027881 0.507706 0.459308 255 255 255 255
-3.771378 4.223332 -0.167327 255 255 255 255
2.887125 -0.087783 0.439342 255 255 255 255
-3.339033 4.515880 -0.089624 255 255 255 255
-3.771378 4.223332 -0.167327 255 255 255 255
-0.711383 -2.033633 0.035152 255 255 255 255
-3.771378 4.223332 -0.167327 255 255 255 255
-0.814281 -1.556040 -1.280148 255 255 255 255
-1.909635 -4.079890 -0.386994 255 255 255 255
-3.771378 4.223332 -0.167327 255 255 255 255
2.875985 -0.292749 0.427562 255 255 255 255
-0.349334 1.165076 0.115906 255 255 255 255
-3.564070 4.378580 -0.128694 255 255 255 255
-0.106395 -4.152131 -0.388468 255 255 255 255
-3.564070 4.378580 -0.128694 255 255 255 255
-0.643335 -2.339556 -0.023408 255 255 255 255
-3.564070 4.378580 -0.128694 255 255 255 255
-0.562837 1.480332 -0.088328 255 255 255 255
-1.982134 -5.391610 -0.632235 255 255 255 255
-1.529188 -0.377598 -1.065052 255 255 255 255
-3.564070 4.378580 -0.128694 255 255 255 255
-4.839951 2.492428 -0.541033 255 255 255 255
-3.564070 4.378580 -0.128694 255 255 255 255
-2.168553 -2.596510 -0.097891 255 255 255 255
-3.564070 4.378580 -0.128694 255 255 255 255
5.307700 -0.103342 0.558141 255 255 255 255
-3.339033 4.515880 -0.089624 255 255 255 255
-0.349334 1.165076 0.115906 255 255 255 255
-3.339033 4.515880 -0.089624 255 255 255 255
-0.243023 0.061760 0.437704 255 255 255 255
-1.501087 -0.575551 -1.117162 255 255 255 255
-3.339033 4.515880 -0.089624 255 255 255 255
-3.339033 4.515880 -0.089624 255 255 255 255
-2.007786 -1.751254 0.056359 255 255 255 255
2.068784 1.547693 0.783583 255 255 255 255
-3.339033 4.515880 -0.089624 255 255 255 255
5.541364 0.266264 0.621740 255 255 255 255
-5.186017 2.853283 -0.468217 255 255 255 255
-5.186017 2.853283 -0.468217 255 255 255 255
2.887125 -0.087783 0.439342 255 255 255 255
-0.560209 1.473644 -0.086880 255 255 255 255
-5.186017 2.853283 -0.468217 255 255 255 255
-5.186017 2.853283 -0.468217 255 255 255 255
-5.186017 2.853283 -0.468217 255 255 255 255
3.025344 0.043752 0.498631 255 255 255 255
-1.429311 2.566844 -0.458986 255 255 255 255
-5.186017 2.853283 -0.468217 255 255 255 255
-4.353452 -3.973855 -0.377156 255 255 255 255
-2.585897 3.640076 -0.260951 255 255 255 255
-4.190634 -3.137017 -0.190457 255 255 255 255
-3.606303 -2.645847 -0.090303 255 255 255 255
-5.186017 2.853283 -0.468217 255 255 255 255
-1.170509 0.106280 -0.956269 255 255 255 255
2.763790 2.101090 0.906532 255 255 255 255
-1.170509 0.106280 -0.956269 255 255 255 255
2.052348 0.317737 0.534793 255 255 255 255
-1.170509 0.106280 -0.956269 255 255 255 255
2.213891 1.366486 0.753539 255 255 255 255
-0.997899 2.209397 -0.486444 255 255 255 255
-2.585897 3.640076 -0.260951 255 255 255 255
-1.170509 0.106280 -0.956269 255 255 255 255
-2.623400 -5.918582 -0.744593 255 255 255 255
-3.241878 -5.089866 -0.569139 255 255 255 255
-1.170509 0.106280 -0.956269 255 255 255 255
0.380830 1.259494 0.699882 255 255 255 255
-1.170509 0.106280 -0.956269 255 255 255 255
0.425014 1.598881 0.775823 255 255 255 255
-2.941681 4.502069 -0.086382 255 255 255 255
-2.941681 4.502069 -0.086382 255 255 255 255
-2.533800 4.017893 -0.178329 255 255 255 255
-2.941681 4.502069 -0.086382 255 255 255 255
-2.941681 4.502069 -0.086382 255 255 255 255
-0.879566 -1.623822 0.102348 255 255 255 255
-4.454707 -3.365852 -0.246357 255 255 255 255
2.772090 -0.380533 0.399724 255 255 255 255
-2.941681 4.502069 -0.086382 255 255 255 255
-2.941681 4.502069 -0.086382 255 255 255 255
2.808750 -0.969424 0.303630 255 255 255 255
-1.110128 -1.408960 0.155130 255 255 255 255
-2.941681 4.502069 -0.086382 255 255 255 255
-2.780572 4.371655 -0.112632 255 255 255 255
-2.780572 4.371655 -0.112632 255 255 255 255
2.068784 1.547693 0.783583 255 255 255 255
-2.780572 4.371655 -0.112632 255 255 255 255
-2.780572 4.371655 -0.112632 255 255 255 255
-1.909635 -4.079890 -0.386994 255 255 255 255
-2.780572 4.371655 -0.112632 255 255 255 255
-2.780572 4.371655 -0.112632 255 255 255 255
-2.950504 -2.078770 0.016413 255 255 255 255
4.050954 1.554459 0.833453 255 255 255 255
-2.780572 4.371655 -0.112632 255 255 255 255
-2.533800 4.017893 -0.178329 255 255 255 255
-1.693816 -1.095897 0.220773 255 255 255 255
-1.743760 2.245105 -0.536933 255 255 255 255
-3.176744 -5.298476 -0.609948 255 255 255 255
-2.533800 4.017893 -0.178329 255 255 255 255
-2.533800 4.017893 -0.178329 255 255 255 255
3.914469 1.454964 0.809060 255 255 255 255
-2.533800 4.017893 -0.178329 255 255 255 255
1.749241 0.026501 0.446299 255 255 255 255
-2.106551 -2.079144 -0.004053 255 255 255 255
-2.533800 4.017893 -0.178329 255 255 255 255
-1.039040 0.350542 -0.897218 255 255 255 255
-2.673524 -5.906398 -0.744080 255 255 255 255
-2.675928 3.524330 -0.274425 255 255 255 255
-1.039040 0.350542 -0.897218 255 255 255 255
-0.802504 -0.451531 0.353230 255 255 255 255
-1.039040 0.350542 -0.897218 255 255 255 255
1.598178 -2.149490 0.042726 255 255 255 255
-0.027881 0.507706 0.459308 255 255 255 255
-1.039040 0.350542 -0.897218 255 255 255 255
-1.909635 -4.079890 -0.386994 255 255 255 255
-2.950504 -2.078770 0.016413 255 255 255 255
-1.390682 -0.168401 -1.025587 255 255 255 255
-1.390682 -0.168401 -1.025587 255 255 255 255
-2.623400 -5.918582 -0.744593 255 255 255 255
-0.711383 -2.033633 0.035152 255 255 255 255
-1.390682 -0.168401 -1.025587 255 255 255 255
-1.390682 -0.168401 -1.025587 255 255 255 255
1.942838 0.134020 0.502934 255 255 255 255
-0.924593 -1.416694 -1.259475 255 255 255 255
-0.997899 2.209397 -0.486444 255 255 255 255
-1.390682 -0.168401 -1.025587 255 255 255 255
-1.281176 1.298008 -0.749620 255 255 255 255
-2.675928 3.524330 -0.274425 255 255 255 255
-2.675928 3.524330 -0.274425 255 255 255 255
5.604858 0.309791 0.509457 255 255 255 255
-2.675928 3.524330 -0.274425 255 255 255 255
-2.675928 3.524330 -0.274425 255 255 255 255
1.198561 -2.157242 0.029963 255 255 255 255
-2.081700 -5.729622 -0.706031 255 255 255 255
-2.675928 3.524330 -0.274425 255 255 255 255
1.594738 0.171109 0.477858 255 255 255 255
-2.585897 3.640076 -0.260951 255 255 255 255
-2.585897 3.640076 -0.260951 255 255 255 255
-2.585897 3.640076 -0.260951 255 255 255 255
-4.839951 2.492428 -0.541033 255 255 255 255
1.032316 -3.112751 -0.157448 255 255 255 255
-1.940182 -3.764026 -0.329054 255 255 255 255
-2.585897 3.640076 -0.260951 255 255 255 255
-1.578209 -1.399237 0.138830 255 255 255 255
-2.585897 3.640076 -0.260951 255 255 255 255
1.198561 -2.157242 0.029963 255 255 255 255
-1.595067 1.719796 -0.659442 255 255 255 255
-0.616197 -0.296484 0.368271 255 255 255 255
-1.595067 1.719796 -0.659442 255 255 255 255
-2.104504 -3.116025 -0.194355 255 255 255 255
0.412447 0.748929 -0.809790 255 255 255 255
-0.814281 -1.556040 -1.280148 255 255 255 255
2.436045 0.896605 0.672159 255 255 255 255
-1.595067 1.719796 -0.659442 255 255 255 255
-1.595067 1.719796 -0.659442 255 255 255 255
-0.338892 1.156700 0.123845 255 255 255 255
-2.811970 -1.953279 0.037666 255 255 255 255
-1.595067 1.719796 -0.659442 255 255 255 255
-1.595067 1.719796 -0.659442 255 255 255 255
-0.654295 0.839241 -0.836326 255 255 255 255
-0.510552 -3.290331 -0.207849 255 255 255 255
-1.942953 -4.848924 -0.529965 255 255 255 255
-1.595067 1.719796 -0.659442 255 255 255 255
-1.743760 2.245105 -0.536933 255 255 255 255
-1.743760 2.245105 -0.536933 255 255 255 255
-1.743760 2.245105 -0.536933 255 255 255 255
-2.168553 -2.596510 -0.097891 255 255 255 255
3.352775 -0.015313 0.487123 255 255 255 255
-1.429311 2.566844 -0.458986 255 255 255 255
2.887125 -0.087783 0.439342 255 255 255 255
-1.291562 1.307656 -0.749315 255 255 255 255
-1.291562 1.307656 -0.749315 255 255 255 255
-1.291562 1.307656 -0.749315 255 255 255 255
-1.291562 1.307656 -0.749315 255 255 255 255
-1.291562 1.307656 -0.749315 255 255 255 255
3.605106 -0.266214 0.451314 255 255 255 255
-2.340232 -1.588175 0.113170 255 255 255 255
-1.291562 1.307656 -0.749315 255 255 255 255
0.742447 0.618722 0.569584 255 255 255 255
-1.471959 2.560962 -0.457502 255 255 255 255
1.198561 -2.157242 0.029963 255 255 255 255
-1.471959 2.560962 -0.457502 255 255 255 255
-1.471959 2.560962 -0.457502 255 255 255 255
2.113884 0.372468 0.554658 255 255 255 255
-1.471959 2.560962 -0.457502 255 255 255 255
-1.429311 2.566844 -0.458986 255 255 255 255
2.110147 -1.933406 0.088556 255 255 255 255
-1.429311 2.566844 -0.458986 255 255 255 255
-1.429311 2.566844 -0.458986 255 255 255 255
-1.429311 2.566844 -0.458986 255 255 255 255
2.763790 2.101090 0.906532 255 255 255 255
-0.560209 1.473644 -0.086880 255 255 255 255
-1.429311 2.566844 -0.458986 255 255 255 255
-1.281176 1.298008 -0.749620 255 255 255 255
-1.281176 1.298008 -0.749620 255 255 255 255
-1.281176 1.298008 -0.749620 255 255 255 255
2.708864 -1.363104 0.195510 255 255 255 255
-1.281176 1.298008 -0.749620 255 255 255 255
-0.041467 0.287820 0.491769 255 255 255 255
-1.040913 0.703910 -0.828693 255 255 255 255
0.975623 1.132737 0.685010 255 255 255 255
-1.940182 -3.764026 -0.329054 255 255 255 255
0.427002 0.316231 -0.888070 255 255 255 255
-0.073135 0.756067 0.372324 255 255 255 255
-1.040913 0.703910 -0.828693 255 255 255 255
-1.040913 0.703910 -0.828693 255 255 255 255
-1.040913 0.703910 -0.828693 255 255 255 255
-2.007786 -1.751254 0.056359 255 255 255 255
-1.040913 0.703910 -0.828693 255 255 255 255
-1.529188 -0.377598 -1.065052 255 255 255 255
2.068784 1.547693 0.783583 255 255 255 255
-1.529188 -0.377598 -1.065052 255 255 255 255
-1.529188 -0.377598 -1.065052 255 255 255 255
0.975623 1.132737 0.685010 255 255 255 255
-1.529188 -0.377598 -1.065052 255 255 255 255
-1.940182 -3.764026 -0.329054 255 255 255 255
0.530377 0.588894 -0.837244 255 255 255 255
-1.501087 -0.575551 -1.117162 255 255 255 255
0.530377 0.588894 -0.837244 255 255 255 255
-1.501087 -0.575551 -1.117162 255 255 255 255
-1.501087 -0.575551 -1.117162 255 255 255 255
-1.301743 -0.941233 -1.185929 255 255 255 255
0.981161 -2.598630 -0.054830 255 255 255 255
-0.802504 -0.451531 0.353230 255 255 255 255
-0.819885 1.932392 -0.328522 255 255 255 255
-1.301743 -0.941233 -1.185929 255 255 255 255
1.220533 -0.708803 0.294963 255 255 255 255
-1.301743 -0.941233 -1.185929 255 255 255 255
-1.301743 -0.941233 -1.185929 255 255 255 255
-1.301743 -0.941233 -1.185929 255 255 255 255
-1.301743 -0.941233 -1.185929 255 255 255 255
-0.234341 0.993439 0.238058 255 255 255 255
1.987187 2.379743 0.945160 255 255 255 255
-1.301743 -0.941233 -1.185929 255 255 255 255
-0.868702 2.013837 -0.395620 255 255 255 255
-4.839951 2.492428 -0.541033 255 255 255 255
-4.839951 2.492428 -0.541033 255 255 255 255
-4.839951 2.492428 -0.541033 255 255 255 255
-2.340232 -1.588175 0.113170 255 255 255 255
-4.839951 2.492428 -0.541033 255 255 255 255
-0.924593 -1.416694 -1.259475 255 255 255 255
-0.742097 1.796873 -0.279997 255 255 255 255
-0.924593 -1.416694 -1.259475 255 255 255 255
-0.338892 1.156700 0.123845 255 255 255 255
-0.879566 -1.623822 0.102348 255 255 255 255
-0.924593 -1.416694 -1.259475 255 255 255 255
-3.133972 -5.471428 -0.648976 255 255 255 255
-0.924593 -1.416694 -1.259475 255 255 255 255
-3.860833 -4.212194 -0.406413 255 255 255 255
-0.924593 -1.416694 -1.259475 255 255 255 255
-0.924593 -1.416694 -1.259475 255 255 255 255
-0.191775 -2.120844 -1.351007 255 255 255 255
-1.962326 -1.677128 0.077630 255 255 255 255
-0.924593 -1.416694 -1.259475 255 255 255 255
-2.623400 -5.918582 -0.744593 255 255 255 255
-0.814281 -1.556040 -1.280148 255 255 255 255
-0.814281 -1.556040 -1.280148 255 255 255 255
-0.814281 -1.556040 -1.280148 255 255 255 255
-0.997899 2.209397 -0.486444 255 255 255 255
3.059646 1.787801 0.852198 255 255 255 255
-0.997899 2.209397 -0.486444 255 255 255 255
1.938776 -1.805402 0.104057 255 255 255 255
-0.997899 2.209397 -0.486444 255 255 255 255
-1.170129 -0.705960 0.291447 255 255 255 255
-0.742097 1.796873 -0.279997 255 255 255 255
-0.868702 2.013837 -0.395620 255 255 255 255
0.888437 -3.604199 -0.242457 255 255 255 255
-0.868702 2.013837 -0.395620 255 255 255 255
5.424251 0.043636 0.578551 255 255 255 255
-0.234341 0.993439 0.238058 255 255 255 255
-0.868702 2.013837 -0.395620 255 255 255 255
1.941389 0.132655 0.502303 255 255 255 255
-0.868702 2.013837 -0.395620 255 255 255 255
0.380830 1.259494 0.699882 255 255 255 255
-0.234341 0.993439 0.238058 255 255 255 255
-0.819885 1.932392 -0.328522 255 255 255 255
-0.498676 -3.340061 -0.213653 255 255 255 255
-4.190634 -3.137017 -0.190457 255 255 255 255
2.692737 -1.329486 0.196960 255 255 255 255
-0.819885 1.932392 -0.328522 255 255 255 255
0.427002 0.316231 -0.888070 255 255 255 255
0.020467 -4.162548 -0.387932 255 255 255 255
-0.819885 1.932392 -0.328522 255 255 255 255
-0.742097 1.796873 -0.279997 255 255 255 255
-0.742097 1.796873 -0.279997 255 255 255 255
-0.383938 -3.766908 -0.306225 255 255 255 255
-0.742097 1.796873 -0.279997 255 255 255 255
-1.510628 -0.950556 0.241807 255 255 255 255
-0.742097 1.796873 -0.279997 255 255 255 255
-0.562837 1.480332 -0.088328 255 255 255 255
-1.912209 -4.396593 -0.434642 255 255 255 255
-0.562837 1.480332 -0.088328 255 255 255 255
-0.560209 1.473644 -0.086880 255 255 255 255
-3.368959 -2.480174 -0.051407 255 255 255 255
-0.560209 1.473644 -0.086880 255 255 255 255
-1.578209 -1.399237 0.138830 255 255 255 255
-0.560209 1.473644 -0.086880 255 255 255 255
2.145065 -2.416242 0.005708 255 255 255 255
-2.168553 -2.596510 -0.097891 255 255 255 255
2.818656 -1.626362 0.152974 255 255 255 255
-0.349334 1.165076 0.115906 255 255 255 255
-0.349334 1.165076 0.115906 255 255 255 255
-0.164437 -0.995044 -1.155805 255 255 255 255
-2.811970 -1.953279 0.037666 255 255 255 255
-0.349334 1.165076 0.115906 255 255 255 255
-0.349334 1.165076 0.115906 255 255 255 255
-0.338892 1.156700 0.123845 255 255 255 255
-0.338892 1.156700 0.123845 255 255 255 255
-4.532496 -3.595432 -0.295153 255 255 255 255
0.888437 -3.604199 -0.242457 255 255 255 255
-0.303033 0.747146 -0.847071 255 255 255 255
-0.338892 1.156700 0.123845 255 255 255 255
-0.234341 0.993439 0.238058 255 255 255 255
-0.234341 0.993439 0.238058 255 255 255 255
-3.368959 -2.480174 -0.051407 255 255 255 255
-0.234341 0.993439 0.238058 255 255 255 255
-0.711383 -2.033633 0.035152 255 255 255 255
-0.234341 0.993439 0.238058 255 255 255 255
-0.073135 0.756067 0.372324 255 255 255 255
0.095758 0.753734 -0.820350 255 255 255 255
-0.073135 0.756067 0.372324 255 255 255 255
-0.073135 0.756067 0.372324 255 255 255 255
-1.693816 -1.095897 0.220773 255 255 255 255
5.307700 -0.103342 0.558141 255 255 255 255
-0.073135 0.756067 0.372324 255 255 255 255
2.818656 -1.626362 0.152974 255 255 255 255
-0.027881 0.507706 0.459308 255 255 255 255
0.364710 -4.072826 -0.344498 255 255 255 255
0.380830 1.259494 0.699882 255 255 255 255
-0.027881 0.507706 0.459308 255 255 255 255
-0.510552 -3.290331 -0.207849 255 255 255 255
1.804613 1.898900 0.863350 255 255 255 255
-0.027881 0.507706 0.459308 255 255 255 255
-0.027881 0.507706 0.459308 255 255 255 255
4.406626 -0.636069 0.395084 255 255 255 255
-0.041467 0.287820 0.491769 255 255 255 255
-0.041467 0.287820 0.491769 255 255 255 255
-0.041467 0.287820 0.491769 255 255 255 255
-2.950504 -2.078770 0.016413 255 255 255 255
-0.041467 0.287820 0.491769 255 255 255 255
-0.041467 0.287820 0.491769 255 255 255 255
-0.243023 0.061760 0.437704 255 255 255 255
0.676988 1.516699 0.763664 255 255 255 255
-0.243023 0.061760 0.437704 255 255 255 255
1.749241 0.026501 0.446299 255 255 255 255
-0.243023 0.061760 0.437704 255 255 255 255
-0.243023 0.061760 0.437704 255 255 255 255
-1.912209 -4.396593 -0.434642 255 255 255 255
2.708864 -1.363104 0.195510 255 255 255 255
0.614252 0.917278 0.629217 255 255 255 255
-0.243023 0.061760 0.437704 255 255 255 255
5.553034 0.699922 0.676269 255 255 255 255
-0.243023 0.061760 0.437704 255 255 255 255
-0.616197 -0.296484 0.368271 255 255 255 255
0.974744 -2.647526 -0.056858 255 255 255 255
-0.616197 -0.296484 0.368271 255 255 255 255
-0.616197 -0.296484 0.368271 255 255 255 255
-0.616197 -0.296484 0.368271 255 255 255 255
-0.616197 -0.296484 0.368271 255 255 255 255
-0.616197 -0.296484 0.368271 255 255 255 255
-0.802504 -0.451531 0.353230 255 255 255 255
-3.241878 -5.089866 -0.569139 255 255 255 255
-0.802504 -0.451531 0.353230 255 255 255 255
-0.510552 -3.290331 -0.207849 255 255 255 255
-2.081700 -5.729622 -0.706031 255 255 255 255
2.190537 -0.174660 0.414249 255 255 255 255
-0.802504 -0.451531 0.353230 255 255 255 255
-0.802504 -0.451531 0.353230 255 255 255 255
-0.510552 -3.290331 -0.207849 255 255 255 255
-0.510552 -3.290331 -0.207849 255 255 255 255
2.110147 -1.933406 0.088556 255 255 255 255
-0.802504 -0.451531 0.353230 255 255 255 255
-1.170129 -0.705960 0.291447 255 255 255 255
-1.170129 -0.705960 0.291447 255 255 255 255
-1.170129 -0.705960 0.291447 255 255 255 255
-3.241878 -5.089866 -0.569139 255 255 255 255
-4.454707 -3.365852 -0.246357 255 255 255 255
-1.170129 -0.705960 0.291447 255 255 255 255
-0.200334 -2.222033 -1.325530 255 255 255 255
-1.170129 -0.705960 0.291447 255 255 255 255
-3.368959 -2.480174 -0.051407 255 255 255 255
-1.170129 -0.705960 0.291447 255 255 255 255
1.220533 -0.708803 0.294963 255 255 255 255
-3.860833 -4.212194 -0.406413 255 255 255 255
-1.510628 -0.950556 0.241807 255 255 255 255
-1.510628 -0.950556 0.241807 255 255 255 255
-1.510628 -0.950556 0.241807 255 255 255 255
-4.303215 -3.216769 -0.210017 255 255 255 255
0.916598 -3.572373 -0.236553 255 255 255 255
-1.510628 -0.950556 0.241807 255 255 255 255
-1.962326 -1.677128 0.077630 255 255 255 255
0.095758 0.753734 -0.820350 255 255 255 255
-1.510628 -0.950556 0.241807 255 255 255 255
-3.241878 -5.089866 -0.569139 255 255 255 255
-1.510628 -0.950556 0.241807 255 255 255 255
2.708864 -1.363104 0.195510 255 255 255 255
-1.693816 -1.095897 0.220773 255 255 255 255
-1.693816 -1.095897 0.220773 255 255 255 255
-1.693816 -1.095897 0.220773 255 255 255 255
-2.673524 -5.906398 -0.744080 255 255 255 255
-1.954710 -5.085269 -0.582963 255 255 255 255
2.736187 -1.251864 0.231913 255 255 255 255
-1.693816 -1.095897 0.220773 255 255 255 255
-0.303033 0.747146 -0.847071 255 255 255 255
1.938776 -1.805402 0.104057 255 255 255 255
-1.693816 -1.095897 0.220773 255 255 255 255
-1.693816 -1.095897 0.220773 255 255 255 255
1.447143 -1.161398 0.216421 255 255 255 255
-4.316245 -3.999440 -0.384213 255 255 255 255
-2.281996 -1.532253 0.121182 255 255 255 255
-4.353452 -3.973855 -0.377156 255 255 255 255
-4.532496 -3.595432 -0.295153 255 255 255 255
-2.281996 -1.532253 0.121182 255 255 255 255
-2.281996 -1.532253 0.121182 255 255 255 255
-2.281996 -1.532253 0.121182 255 255 255 255
-2.281996 -1.532253 0.121182 255 255 255 255
-2.340232 -1.588175 0.113170 255 255 255 255
-0.200334 -2.222033 -1.325530 255 255 255 255
-2.340232 -1.588175 0.113170 255 255 255 255
-2.340232 -1.588175 0.113170 255 255 255 255
1.671949 -1.527220 0.152806 255 255 255 255
0.888437 -3.604199 -0.242457 255 255 255 255
4.950087 1.539760 0.854210 255 255 255 255
-2.340232 -1.588175 0.113170 255 255 255 255
-2.340232 -1.588175 0.113170 255 255 255 255
-2.007786 -1.751254 0.056359 255 255 255 255
-2.007786 -1.751254 0.056359 255 255 255 255
2.190537 -0.174660 0.414249 255 255 255 255
-2.007786 -1.751254 0.056359 255 255 255 255
-2.007786 -1.751254 0.056359 255 255 255 255
5.075332 1.324635 0.814385 255 255 255 255
-2.950504 -2.078770 0.016413 255 255 255 255
2.412227 -0.209059 0.423857 255 255 255 255
-2.007786 -1.751254 0.056359 255 255 255 255
-1.962326 -1.677128 0.077630 255 255 255 255
-1.954710 -5.085269 -0.582963 255 255 255 255
0.427002 0.316231 -0.888070 255 255 255 255
-1.962326 -1.677128 0.077630 255 255 255 255
-4.190634 -3.137017 -0.190457 255 255 255 255
-1.962326 -1.677128 0.077630 255 255 255 255
5.631685 0.483558 0.412067 255 255 255 255
-2.054814 -3.336667 -0.232649 255 255 255 255
-1.962326 -1.677128 0.077630 255 255 255 255
-1.962326 -1.677128 0.077630 255 255 255 255
-2.811970 -1.953279 0.037666 255 255 255 255
-2.811970 -1.953279 0.037666 255 255 255 255
2.692737 -1.329486 0.196960 255 255 255 255
-1.110128 -1.408960 0.155130 255 255 255 255
-2.811970 -1.953279 0.037666 255 255 255 255
0.975623 1.132737 0.685010 255 255 255 255
-3.176744 -5.298476 -0.609948 255 255 255 255
-2.106551 -2.079144 -0.004053 255 255 255 255
-2.106551 -2.079144 -0.004053 255 255 255 255
3.571298 2.656867 1.039188 255 255 255 255
-2.106551 -2.079144 -0.004053 255 255 255 255
-2.106551 -2.079144 -0.004053 255 255 255 255
-2.106551 -2.079144 -0.004053 255 255 255 255
1.939414 0.133508 0.498131 255 255 255 255
-2.950504 -2.078770 0.016413 255 255 255 255
-2.950504 -2.078770 0.016413 255 255 255 255
-1.942953 -4.848924 -0.529965 255 255 255 255
-3.599749 -4.229228 -0.396828 255 255 255 255
-3.241878 -5.089866 -0.569139 255 255 255 255
-2.950504 -2.078770 0.016413 255 255 255 255
-2.950504 -2.078770 0.016413 255 255 255 255
2.708864 -1.363104 0.195510 255 255 255 255
-3.368959 -2.480174 -0.051407 255 255 255 255
-3.368959 -2.480174 -0.051407 255 255 255 255
-1.942953 -4.848924 -0.529965 255 255 255 255
-3.368959 -2.480174 -0.051407 255 255 255 255
-3.368959 -2.480174 -0.051407 255 255 255 255
2.110147 -1.933406 0.088556 255 255 255 255
0.614252 0.917278 0.629217 255 255 255 255
-2.673524 -5.906398 -0.744080 255 255 255 255
-3.368959 -2.480174 -0.051407 255 255 255 255
2.507919 2.384885 0.954419 255 255 255 255
-4.061034 -4.201297 -0.421831 255 255 255 255
0.380830 1.259494 0.699882 255 255 255 255
-3.606303 -2.645847 -0.090303 255 255 255 255
-4.303215 -3.216769 -0.210017 255 255 255 255
-0.618712 0.819208 -0.837688 255 255 255 255
-3.606303 -2.645847 -0.090303 255 255 255 255
-0.510552 -3.290331 -0.207849 255 255 255 255
-3.606303 -2.645847 -0.090303 255 255 255 255
2.261497 -2.328249 0.022810 255 255 255 255
-3.606303 -2.645847 -0.090303 255 255 255 255
-3.606303 -2.645847 -0.090303 255 255 255 255
-4.454707 -3.365852 -0.246357 255 255 255 255
0.441548 0.250220 -0.893416 255 255 255 255
-3.606303 -2.645847 -0.090303 255 255 255 255
-2.168553 -2.596510 -0.097891 255 255 255 255
0.981161 -2.598630 -0.054830 255 255 255 255
-2.168553 -2.596510 -0.097891 255 255 255 255
-3.599749 -4.229228 -0.396828 255 255 255 255
-2.168553 -2.596510 -0.097891 255 255 255 255
3.615236 2.885167 1.088592 255 255 255 255
-2.168553 -2.596510 -0.097891 255 255 255 255
-2.168553 -2.596510 -0.097891 255 255 255 255
-2.623400 -5.918582 -0.744593 255 255 255 255
-1.578209 -1.399237 0.138830 255 255 255 255
-1.578209 -1.399237 0.138830 255 255 255 255
2.708733 -1.359184 0.197354 255 255 255 255
-1.578209 -1.399237 0.138830 255 255 255 255
3.292872 -1.654626 0.190034 255 255 255 255
-1.578209 -1.399237 0.138830 255 255 255 255
-1.982134 -5.391610 -0.632235 255 255 255 255
-1.110128 -1.408960 0.155130 255 255 255 255
-1.912209 -4.396593 -0.434642 255 255 255 255
-1.110128 -1.408960 0.155130 255 255 255 255
-1.110128 -1.408960 0.155130 255 255 255 255
-1.110128 -1.408960 0.155130 255 255 255 255
-1.110128 -1.408960 0.155130 255 255 255 255
-2.623400 -5.918582 -0.744593 255 255 255 255
1.032316 -3.112751 -0.157448 255 255 255 255
-1.110128 -1.408960 0.155130 255 255 255 255
1.032316 -3.112751 -0.157448 255 255 255 255
-0.879566 -1.623822 0.102348 255 255 255 255
-4.532496 -3.595432 -0.295153 255 255 255 255
-2.081700 -5.729622 -0.706031 255 255 255 255
-0.618712 0.819208 -0.837688 255 255 255 255
-0.879566 -1.623822 0.102348 255 255 255 255
3.338119 -1.262874 0.260041 255 255 255 255
-0.610059 -2.615983 -0.078241 255 255 255 255
-0.879566 -1.623822 0.102348 255 255 255 255
-0.879566 -1.623822 0.102348 255 255 255 255
-0.879566 -1.623822 0.102348 255 255 255 255
-0.879566 -1.623822 0.102348 255 255 255 255
0.975623 1.132737 0.685010 255 255 255 255
-0.510552 -3.290331 -0.207849 255 255 255 255
2.190537 -0.174660 0.414249 255 255 255 255
-0.711383 -2.033633 0.035152 255 255 255 255
-0.383938 -3.766908 -0.306225 255 255 255 255
-0.711383 -2.033633 0.035152 255 255 255 255
1.594738 0.171109 0.477858 255 255 255 255
-0.711383 -2.033633 0.035152 255 255 255 255
3.025344 0.043752 0.498631 255 255 255 255
0.888437 -3.604199 -0.242457 255 255 255 255
-0.711383 -2.033633 0.035152 255 255 255 255
-0.643335 -2.339556 -0.023408 255 255 255 255
-0.643335 -2.339556 -0.023408 255 255 255 255
-0.643335 -2.339556 -0.023408 255 255 255 255
-0.643335 -2.339556 -0.023408 255 255 255 255
-0.610059 -2.615983 -0.078241 255 255 255 255
0.974744 -2.647526 -0.056858 255 255 255 255
0.981161 -2.598630 -0.054830 255 255 255 255
2.736187 -1.251864 0.231913 255 255 255 255
1.220533 -0.708803 0.294963 255 255 255 255
-0.610059 -2.615983 -0.078241 255 255 255 255
4.050954 1.554459 0.833453 255 255 255 255
1.198561 -2.157242 0.029963 255 255 255 255
-0.610059 -2.615983 -0.078241 255 255 255 255
-0.610059 -2.615983 -0.078241 255 255 255 255
-0.498676 -3.340061 -0.213653 255 255 255 255
0.020467 -4.162548 -0.387932 255 255 255 255
2.708733 -1.359184 0.197354 255 255 255 255
-0.498676 -3.340061 -0.213653 255 255 255 255
-0.498676 -3.340061 -0.213653 255 255 255 255
0.775096 0.512812 0.555255 255 255 255 255
0.981161 -2.598630 -0.054830 255 255 255 255
-0.498676 -3.340061 -0.213653 255 255 255 255
3.059646 1.787801 0.852198 255 255 255 255
-0.510552 -3.290331 -0.207849 255 255 255 255
0.530377 0.588894 -0.837244 255 255 255 255
1.791380 -2.285634 0.022167 255 255 255 255
4.248817 1.973516 0.899707 255 255 255 255
-2.054814 -3.336667 -0.232649 255 255 255 255
-2.054814 -3.336667 -0.232649 255 255 255 255
4.029619 2.697703 1.052307 255 255 255 255
-2.054814 -3.336667 -0.232649 255 255 255 255
0.364710 -4.072826 -0.344498 255 255 255 255
-2.054814 -3.336667 -0.232649 255 255 255 255
-2.054814 -3.336667 -0.232649 255 255 255 255
0.916598 -3.572373 -0.236553 255 255 255 255
3.338119 -1.262874 0.260041 255 255 255 255
0.364710 -4.072826 -0.344498 255 255 255 255
0.412447 0.748929 -0.809790 255 255 255 255
-2.673524 -5.906398 -0.744080 255 255 255 255
-2.104504 -3.116025 -0.194355 255 255 255 255
-2.104504 -3.116025 -0.194355 255 255 255 255
-2.104504 -3.116025 -0.194355 255 255 255 255
0.676988 1.516699 0.763664 255 255 255 255
2.261497 -2.328249 0.022810 255 255 255 255
-2.104504 -3.116025 -0.194355 255 255 255 255
-2.104504 -3.116025 -0.194355 255 255 255 255
-3.241878 -5.089866 -0.569139 255 255 255 255
-2.104504 -3.116025 -0.194355 255 255 255 255
1.749241 0.026501 0.446299 255 255 255 255
-1.940182 -3.764026 -0.329054 255 255 255 255
-1.940182 -3.764026 -0.329054 255 255 255 255
-3.860833 -4.212194 -0.406413 255 255 255 255
-4.190634 -3.137017 -0.190457 255 255 255 255
-1.909635 -4.079890 -0.386994 255 255 255 255
-4.353452 -3.973855 -0.377156 255 255 255 255
-1.909635 -4.079890 -0.386994 255 255 255 255
-1.909635 -4.079890 -0.386994 255 255 255 255
-1.909635 -4.079890 -0.386994 255 255 255 255
1.941389 0.132655 0.502303 255 255 255 255
-1.912209 -4.396593 -0.434642 255 255 255 255
-1.912209 -4.396593 -0.434642 255 255 255 255
-1.912209 -4.396593 -0.434642 255 255 255 255
-0.106395 -4.152131 -0.388468 255 255 255 255
-0.383938 -3.766908 -0.306225 255 255 255 255
-0.383938 -3.766908 -0.306225 255 255 255 255
-0.383938 -3.766908 -0.306225 255 255 255 255
-0.383938 -3.766908 -0.306225 255 255 255 255
-0.383938 -3.766908 -0.306225 255 255 255 255
-4.190634 -3.137017 -0.190457 255 255 255 255
2.808750 -0.969424 0.303630 255 255 255 255
-4.190634 -3.137017 -0.190457 255 255 255 255
3.743010 2.517985 1.005432 255 255 255 255
-4.190634 -3.137017 -0.190457 255 255 255 255
5.392295 0.892013 0.723566 255 255 255 255
-4.532496 -3.595432 -0.295153 255 255 255 255
0.380830 1.259494 0.699882 255 255 255 255
-4.190634 -3.137017 -0.190457 255 255 255 255
-4.303215 -3.216769 -0.210017 255 255 255 255
2.190537 -0.174660 0.414249 255 255 255 255
-4.303215 -3.216769 -0.210017 255 255 255 255
-4.303215 -3.216769 -0.210017 255 255 255 255
3.615236 2.885167 1.088592 255 255 255 255
-4.303215 -3.216769 -0.210017 255 255 255 255
-4.303215 -3.216769 -0.210017 255 255 255 255
-4.316245 -3.999440 -0.384213 255 255 255 255
-4.454707 -3.365852 -0.246357 255 255 255 255
-4.454707 -3.365852 -0.246357 255 255 255 255
-4.454707 -3.365852 -0.246357 255 255 255 255
-3.444878 -4.305080 -0.404147 255 255 255 255
-4.532496 -3.595432 -0.295153 255 255 255 255
-4.532496 -3.595432 -0.295153 255 255 255 255
-4.532496 -3.595432 -0.295153 255 255 255 255
-4.532496 -3.595432 -0.295153 255 255 255 255
-4.353452 -3.973855 -0.377156 255 255 255 255
-4.353452 -3.973855 -0.377156 255 255 255 255
1.941389 0.132655 0.502303 255 255 255 255
-4.316245 -3.999440 -0.384213 255 255 255 255
-4.353452 -3.973855 -0.377156 255 255 255 255
-4.316245 -3.999440 -0.384213 255 255 255 255
-4.316245 -3.999440 -0.384213 255 255 255 255
-3.444878 -4.305080 -0.404147 255 255 255 255
-4.061034 -4.201297 -0.421831 255 255 255 255
-3.599749 -4.229228 -0.396828 255 255 255 255
-4.061034 -4.201297 -0.421831 255 255 255 255
-4.061034 -4.201297 -0.421831 255 255 255 255
-4.061034 -4.201297 -0.421831 255 255 255 255
-4.061034 -4.201297 -0.421831 255 255 255 255
3.605106 -0.266214 0.451314 255 255 255 255
-4.061034 -4.201297 -0.421831 255 255 255 255
-3.860833 -4.212194 -0.406413 255 255 255 255
4.406626 -0.636069 0.395084 255 255 255 255
-3.860833 -4.212194 -0.406413 255 255 255 255
-3.860833 -4.212194 -0.406413 255 255 255 255
4.497304 2.171612 0.974142 255 255 255 255
-3.599749 -4.229228 -0.396828 255 255 255 255
-3.599749 -4.229228 -0.396828 255 255 255 255
-3.599749 -4.229228 -0.396828 255 255 255 255
-3.599749 -4.229228 -0.396828 255 255 255 255
3.571298 2.656867 1.039188 255 255 255 255
-3.599749 -4.229228 -0.396828 255 255 255 255
0.020467 -4.162548 -0.387932 255 255 255 255
0.095758 0.753734 -0.820350 255 255 255 255
-3.444878 -4.305080 -0.404147 255 255 255 255
-3.444878 -4.305080 -0.404147 255 255 255 255
1.987187 2.379743 0.945160 255 255 255 255
-3.444878 -4.305080 -0.404147 255 255 255 255
-3.444878 -4.305080 -0.404147 255 255 255 255
-3.444878 -4.305080 -0.404147 255 255 255 255
1.938776 -1.805402 0.104057 255 255 255 255
3.338119 -1.262874 0.260041 255 255 255 255
-3.338569 -4.554065 -0.453981 255 255 255 255
1.598178 -2.149490 0.042726 255 255 255 255
0.775096 0.512812 0.555255 255 255 255 255
-3.338569 -4.554065 -0.453981 255 255 255 255
-3.338569 -4.554065 -0.453981 255 255 255 255
2.784201 2.082869 0.904150 255 255 255 255
-3.338569 -4.554065 -0.453981 255 255 255 255
-3.338569 -4.554065 -0.453981 255 255 255 255
-3.338569 -4.554065 -0.453981 255 255 255 255
0.364710 -4.072826 -0.344498 255 255 255 255
0.412447 0.748929 -0.809790 255 255 255 255
-3.241878 -5.089866 -0.569139 255 255 255 255
-2.673524 -5.906398 -0.744080 255 255 255 255
-3.241878 -5.089866 -0.569139 255 255 255 255
-3.176744 -5.298476 -0.609948 255 255 255 255
-3.176744 -5.298476 -0.609948 255 255 255 255
4.248817 1.973516 0.899707 255 255 255 255
-3.176744 -5.298476 -0.609948 255 255 255 255
2.436045 0.896605 0.672159 255 255 255 255
-3.176744 -5.298476 -0.609948 255 255 255 255
-3.176744 -5.298476 -0.609948 255 255 255 255
-3.133972 -5.471428 -0.648976 255 255 255 255
3.605106 -0.266214 0.451314 255 255 255 255
-3.133972 -5.471428 -0.648976 255 255 255 255
-3.133972 -5.471428 -0.648976 255 255 255 255
2.763790 2.101090 0.906532 255 255 255 255
-3.133972 -5.471428 -0.648976 255 255 255 255
-3.133972 -5.471428 -0.648976 255 255 255 255
-0.191775 -2.120844 -1.351007 255 255 255 255
-1.942953 -4.848924 -0.529965 255 255 255 255
-1.942953 -4.848924 -0.529965 255 255 255 255
1.598178 -2.149490 0.042726 255 255 255 255
-1.942953 -4.848924 -0.529965 255 255 255 255
0.974744 -2.647526 -0.056858 255 255 255 255
3.059646 1.787801 0.852198 255 255 255 255
-1.954710 -5.085269 -0.582963 255 255 255 255
1.942838 0.134020 0.502934 255 255 255 255
-1.954710 -5.085269 -0.582963 255 255 255 255
2.325773 1.238448 0.723008 255 255 255 255
-1.954710 -5.085269 -0.582963 255 255 255 255
-1.954710 -5.085269 -0.582963 255 255 255 255
-1.954710 -5.085269 -0.582963 255 255 255 255
-1.982134 -5.391610 -0.632235 255 255 255 255
1.941389 0.132655 0.502303 255 255 255 255
-1.982134 -5.391610 -0.632235 255 255 255 255
-1.982134 -5.391610 -0.632235 255 255 255 255
-1.982134 -5.391610 -0.632235 255 255 255 255
2.052348 0.317737 0.534793 255 255 255 255
-1.982134 -5.391610 -0.632235 255 255 255 255
-2.081700 -5.729622 -0.706031 255 255 255 255
-2.081700 -5.729622 -0.706031 255 255 255 255
1.804613 1.898900 0.863350 255 255 255 255
-2.081700 -5.729622 -0.706031 255 255 255 255
2.068784 1.547693 0.783583 255 255 255 255
-2.081700 -5.729622 -0.706031 255 255 255 255
-2.081700 -5.729622 -0.706031 255 255 255 255
2.661343 -1.350291 0.183186 255 255 255 255
1.220533 -0.708803 0.294963 255 255 255 255
-0.106395 -4.152131 -0.388468 255 255 255 255
-0.106395 -4.152131 -0.388468 255 255 255 255
2.875985 -0.292749 0.427562 255 255 255 255
-0.106395 -4.152131 -0.388468 255 255 255 255
-0.106395 -4.152131 -0.388468 255 255 255 255
1.958526 2.349345 0.944939 255 255 255 255
0.020467 -4.162548 -0.387932 255 255 255 255
0.020467 -4.162548 -0.387932 255 255 255 255
0.020467 -4.162548 -0.387932 255 255 255 255
0.020467 -4.162548 -0.387932 255 255 255 255
0.975623 1.132737 0.685010 255 255 255 255
0.364710 -4.072826 -0.344498 255 255 255 255
0.364710 -4.072826 -0.344498 255 255 255 255
2.763790 2.101090 0.906532 255 255 255 255
0.364710 -4.072826 -0.344498 255 255 255 255
-2.673524 -5.906398 -0.744080 255 255 255 255
1.032316 -3.112751 -0.157448 255 255 255 255
-0.175653 0.821023 -0.837247 255 255 255 255
-2.673524 -5.906398 -0.744080 255 255 255 255
3.352775 -0.015313 0.487123 255 255 255 255
-2.623400 -5.918582 -0.744593 255 255 255 255
-2.623400 -5.918582 -0.744593 255 255 255 255
3.059646 1.787801 0.852198 255 255 255 255
-2.623400 -5.918582 -0.744593 255 255 255 255
0.916598 -3.572373 -0.236553 255 255 255 255
0.916598 -3.572373 -0.236553 255 255 255 255
0.916598 -3.572373 -0.236553 255 255 255 255
1.938776 -1.805402 0.104057 255 255 255 255
4.406626 -0.636069 0.395084 255 255 255 255
0.916598 -3.572373 -0.236553 255 255 255 255
0.888437 -3.604199 -0.242457 255 255 255 255
0.888437 -3.604199 -0.242457 255 255 255 255
0.888437 -3.604199 -0.242457 255 255 255 255
1.032316 -3.112751 -0.157448 255 255 255 255
1.032316 -3.112751 -0.157448 255 255 255 255
1.032316 -3.112751 -0.157448 255 255 255 255
1.032316 -3.112751 -0.157448 255 255 255 255
0.981161 -2.598630 -0.054830 255 255 255 255
1.569893 -1.352776 0.188978 255 255 255 255
0.981161 -2.598630 -0.054830 255 255 255 255
0.981161 -2.598630 -0.054830 255 255 255 255
0.981161 -2.598630 -0.054830 255 255 255 255
4.406626 -0.636069 0.395084 255 255 255 255
1.198561 -2.157242 0.029963 255 255 255 255
1.198561 -2.157242 0.029963 255 255 255 255
0.974744 -2.647526 -0.056858 255 255 255 255
2.708864 -1.363104 0.195510 255 255 255 255
0.974744 -2.647526 -0.056858 255 255 255 255
2.784201 2.082869 0.904150 255 255 255 255
2.412227 -0.209059 0.423857 255 255 255 255
0.974744 -2.647526 -0.056858 255 255 255 255
1.110025 -0.482650 0.341660 255 255 255 255
0.974744 -2.647526 -0.056858 255 255 255 255
0.614252 0.917278 0.629217 255 255 255 255
1.463729 -2.108461 0.040063 255 255 255 255
1.463729 -2.108461 0.040063 255 255 255 255
0.874052 1.336156 0.725295 255 255 255 255
1.463729 -2.108461 0.040063 255 255 255 255
1.463729 -2.108461 0.040063 255 255 255 255
1.463729 -2.108461 0.040063 255 255 255 255
1.598178 -2.149490 0.042726 255 255 255 255
1.598178 -2.149490 0.042726 255 255 255 255
1.598178 -2.149490 0.042726 255 255 255 255
1.791380 -2.285634 0.022167 255 255 255 255
5.553034 0.699922 0.676269 255 255 255 255
1.791380 -2.285634 0.022167 255 255 255 255
1.791380 -2.285634 0.022167 255 255 255 255
1.791380 -2.285634 0.022167 255 255 255 255
1.110025 -0.482650 0.341660 255 255 255 255
2.110147 -1.933406 0.088556 255 255 255 255
2.110147 -1.933406 0.088556 255 255 255 255
2.110147 -1.933406 0.088556 255 255 255 255
2.110147 -1.933406 0.088556 255 255 255 255
3.292872 -1.654626 0.190034 255 255 255 255
1.938776 -1.805402 0.104057 255 255 255 255
1.938776 -1.805402 0.104057 255 255 255 255
4.804689 -0.476903 0.448745 255 255 255 255
1.938776 -1.805402 0.104057 255 255 255 255
1.938776 -1.805402 0.104057 255 255 255 255
2.145065 -2.416242 0.005708 255 255 255 255
4.497304 2.171612 0.974142 255 255 255 255
2.145065 -2.416242 0.005708 255 255 255 255
2.145065 -2.416242 0.005708 255 255 255 255
2.145065 -2.416242 0.005708 255 255 255 255
2.145065 -2.416242 0.005708 255 255 255 255
2.145065 -2.416242 0.005708 255 255 255 255
2.261497 -2.328249 0.022810 255 255 255 255
2.261497 -2.328249 0.022810 255 255 255 255
2.261497 -2.328249 0.022810 255 255 255 255
2.261497 -2.328249 0.022810 255 255 255 255
3.436142 1.436445 0.803476 255 255 255 255
2.261497 -2.328249 0.022810 255 255 255 255
1.671949 -1.527220 0.152806 255 255 255 255
1.941389 0.132655 0.502303 255 255 255 255
1.671949 -1.527220 0.152806 255 255 255 255
2.887261 -0.557257 0.378268 255 255 255 255
1.671949 -1.527220 0.152806 255 255 255 255
1.671949 -1.527220 0.152806 255 255 255 255
1.671949 -1.527220 0.152806 255 255 255 255
2.736187 -1.251864 0.231913 255 255 255 255
1.671949 -1.527220 0.152806 255 255 255 255
1.569893 -1.352776 0.188978 255 255 255 255
1.569893 -1.352776 0.188978 255 255 255 255
1.569893 -1.352776 0.188978 255 255 255 255
5.392295 0.892013 0.723566 255 255 255 255
1.569893 -1.352776 0.188978 255 255 255 255
1.569893 -1.352776 0.188978 255 255 255 255
1.447143 -1.161398 0.216421 255 255 255 255
3.338119 -1.262874 0.260041 255 255 255 255
1.447143 -1.161398 0.216421 255 255 255 255
2.887125 -0.087783 0.439342 255 255 255 255
1.942838 0.134020 0.502934 255 255 255 255
1.447143 -1.161398 0.216421 255 255 255 255
1.447143 -1.161398 0.216421 255 255 255 255
1.447143 -1.161398 0.216421 255 255 255 255
1.447143 -1.161398 0.216421 255 255 255 255
1.220533 -0.708803 0.294963 255 255 255 255
1.220533 -0.708803 0.294963 255 255 255 255
1.220533 -0.708803 0.294963 255 255 255 255
1.220533 -0.708803 0.294963 255 255 255 255
2.808750 -0.969424 0.303630 255 255 255 255
1.110025 -0.482650 0.341660 255 255 255 255
1.110025 -0.482650 0.341660 255 255 255 255
1.110025 -0.482650 0.341660 255 255 255 255
1.110025 -0.482650 0.341660 255 255 255 255
1.110025 -0.482650 0.341660 255 255 255 255
1.594738 0.171109 0.477858 255 255 255 255
1.594738 0.171109 0.477858 255 255 255 255
1.594738 0.171109 0.477858 255 255 255 255
1.594738 0.171109 0.477858 255 255 255 255
1.594738 0.171109 0.477858 255 255 255 255
1.749241 0.026501 0.446299 255 255 255 255
1.749241 0.026501 0.446299 255 255 255 255
3.059646 1.787801 0.852198 255 255 255 255
1.749241 0.026501 0.446299 255 255 255 255
1.749241 0.026501 0.446299 255 255 255 255
1.749241 0.026501 0.446299 255 255 255 255
0.412447 0.748929 -0.809790 255 255 255 255
1.397600 0.373390 0.529202 255 255 255 255
1.397600 0.373390 0.529202 255 255 255 255
1.397600 0.373390 0.529202 255 255 255 255
1.397600 0.373390 0.529202 255 255 255 255
1.397600 0.373390 0.529202 255 255 255 255
1.397600 0.373390 0.529202 255 255 255 255
0.871424 0.120764 0.452600 255 255 255 255
-0.191775 -2.120844 -1.351007 255 255 255 255
0.871424 0.120764 0.452600 255 255 255 255
0.871424 0.120764 0.452600 255 255 255 255
0.871424 0.120764 0.452600 255 255 255 255
3.615236 2.885167 1.088592 255 255 255 255
0.871424 0.120764 0.452600 255 255 255 255
0.871424 0.120764 0.452600 255 255 255 255
0.871424 0.120764 0.452600 255 255 255 255
2.190537 -0.174660 0.414249 255 255 255 255
2.190537 -0.174660 0.414249 255 255 255 255
-5.518690 2.896623 -0.446634 255 255 255 255
2.190537 -0.174660 0.414249 255 255 255 255
2.190537 -0.174660 0.414249 255 255 255 255
3.314969 -1.203301 0.268292 255 255 255 255
2.412227 -0.209059 0.423857 255 255 255 255
3.352775 -0.015313 0.487123 255 255 255 255
2.412227 -0.209059 0.423857 255 255 255 255
2.412227 -0.209059 0.423857 255 255 255 255
2.412227 -0.209059 0.423857 255 255 255 255
1.942838 0.134020 0.502934 255 255 255 255
1.942838 0.134020 0.502934 255 255 255 255
1.942838 0.134020 0.502934 255 255 255 255
4.497304 2.171612 0.974142 255 255 255 255
2.875985 -0.292749 0.427562 255 255 255 255
1.942838 0.134020 0.502934 255 255 255 255
1.942838 0.134020 0.502934 255 255 255 255
1.941389 0.132655 0.502303 255 255 255 255
0.412447 0.748929 -0.809790 255 255 255 255
1.941389 0.132655 0.502303 255 255 255 255
1.941389 0.132655 0.502303 255 255 255 255
1.939414 0.133508 0.498131 255 255 255 255
1.939414 0.133508 0.498131 255 255 255 255
2.692737 -1.329486 0.196960 255 255 255 255
1.939414 0.133508 0.498131 255 255 255 255
5.424251 0.043636 0.578551 255 255 255 255
1.939414 0.133508 0.498131 255 255 255 255
4.050954 1.554459 0.833453 255 255 255 255
1.939414 0.133508 0.498131 255 255 255 255
1.939414 0.133508 0.498131 255 255 255 255
1.939414 0.133508 0.498131 255 255 255 255
1.920359 0.138357 0.500825 255 255 255 255
1.804613 1.898900 0.863350 255 255 255 255
1.920359 0.138357 0.500825 255 255 255 255
1.920359 0.138357 0.500825 255 255 255 255
2.818656 -1.626362 0.152974 255 255 255 255
1.920359 0.138357 0.500825 255 255 255 255
1.920359 0.138357 0.500825 255 255 255 255
1.920359 0.138357 0.500825 255 255 255 255
1.920359 0.138357 0.500825 255 255 255 255
2.113884 0.372468 0.554658 255 255 255 255
2.113884 0.372468 0.554658 255 255 255 255
2.113884 0.372468 0.554658 255 255 255 255
2.113884 0.372468 0.554658 255 255 255 255
2.113884 0.372468 0.554658 255 255 255 255
2.052348 0.317737 0.534793 255 255 255 255
2.052348 0.317737 0.534793 255 255 255 255
0.676988 1.516699 0.763664 255 255 255 255
2.052348 0.317737 0.534793 255 255 255 255
2.052348 0.317737 0.534793 255 255 255 255
2.052348 0.317737 0.534793 255 255 255 255
2.052348 0.317737 0.534793 255 255 255 255
3.530840 2.842381 1.075509 255 255 255 255
2.436045 0.896605 0.672159 255 255 255 255
2.436045 0.896605 0.672159 255 255 255 255
2.436045 0.896605 0.672159 255 255 255 255
2.436045 0.896605 0.672159 255 255 255 255
2.436045 0.896605 0.672159 255 255 255 255
5.631685 0.483558 0.412067 255 255 255 255
0.742447 0.618722 0.569584 255 255 255 255
0.742447 0.618722 0.569584 255 255 255 255
-0.191775 -2.120844 -1.351007 255 255 255 255
0.742447 0.618722 0.569584 255 255 255 255
0.742447 0.618722 0.569584 255 255 255 255
0.742447 0.618722 0.569584 255 255 255 255
0.742447 0.618722 0.569584 255 255 255 255
0.775096 0.512812 0.555255 255 255 255 255
5.541364 0.266264 0.621740 255 255 255 255
0.775096 0.512812 0.555255 255 255 255 255
0.775096 0.512812 0.555255 255 255 255 255
0.775096 0.512812 0.555255 255 255 255 255
2.736187 -1.251864 0.231913 255 255 255 255
0.614252 0.917278 0.629217 255 255 255 255
2.692737 -1.329486 0.196960 255 255 255 255
5.631685 0.483558 0.412067 255 255 255 255
0.614252 0.917278 0.629217 255 255 255 255
0.614252 0.917278 0.629217 255 255 255 255
0.614252 0.917278 0.629217 255 255 255 255
0.614252 0.917278 0.629217 255 255 255 255
1.100543 0.906505 0.642297 255 255 255 255
1.100543 0.906505 0.642297 255 255 255 255
2.708733 -1.359184 0.197354 255 255 255 255
1.100543 0.906505 0.642297 255 255 255 255
1.100543 0.906505 0.642297 255 255 255 255
1.100543 0.906505 0.642297 255 255 255 255
1.100543 0.906505 0.642297 255 255 255 255
0.975623 1.132737 0.685010 255 255 255 255
0.975623 1.132737 0.685010 255 255 255 255
5.307700 -0.103342 0.558141 255 255 255 255
0.975623 1.132737 0.685010 255 255 255 255
0.874052 1.336156 0.725295 255 255 255 255
0.874052 1.336156 0.725295 255 255 255 255
0.874052 1.336156 0.725295 255 255 255 255
2.213891 1.366486 0.753539 255 255 255 255
0.874052 1.336156 0.725295 255 255 255 255
0.874052 1.336156 0.725295 255 255 255 255
0.874052 1.336156 0.725295 255 255 255 255
0.874052 1.336156 0.725295 255 255 255 255
2.887261 -0.557257 0.378268 255 255 255 255
0.676988 1.516699 0.763664 255 255 255 255
0.676988 1.516699 0.763664 255 255 255 255
0.676988 1.516699 0.763664 255 255 255 255
0.676988 1.516699 0.763664 255 255 255 255
0.676988 1.516699 0.763664 255 255 255 255
0.380830 1.259494 0.699882 255 255 255 255
0.380830 1.259494 0.699882 255 255 255 255
0.425014 1.598881 0.775823 255 255 255 255
0.425014 1.598881 0.775823 255 255 255 255
0.425014 1.598881 0.775823 255 255 255 255
3.025344 0.043752 0.498631 255 255 255 255
0.425014 1.598881 0.775823 255 255 255 255
0.425014 1.598881 0.775823 255 255 255 255
0.425014 1.598881 0.775823 255 255 255 255
0.425014 1.598881 0.775823 255 255 255 255
5.075332 1.324635 0.814385 255 255 255 255
2.213891 1.366486 0.753539 255 255 255 255
2.213891 1.366486 0.753539 255 255 255 255
4.175276 2.554741 1.036940 255 255 255 255
2.213891 1.366486 0.753539 255 255 255 255
2.213891 1.366486 0.753539 255 255 255 255
-0.191775 -2.120844 -1.351007 255 255 255 255
2.213891 1.366486 0.753539 255 255 255 255
2.708733 -1.359184 0.197354 255 255 255 255
2.325773 1.238448 0.723008 255 255 255 255
5.541364 0.266264 0.621740 255 255 255 255
2.325773 1.238448 0.723008 255 255 255 255
2.325773 1.238448 0.723008 255 255 255 255
3.615236 2.885167 1.088592 255 255 255 255
2.325773 1.238448 0.723008 255 255 255 255
2.325773 1.238448 0.723008 255 255 255 255
2.325773 1.238448 0.723008 255 255 255 255
2.325773 1.238448 0.723008 255 255 255 255
2.068784 1.547693 0.783583 255 255 255 255
2.068784 1.547693 0.783583 255 255 255 255
2.068784 1.547693 0.783583 255 255 255 255
1.804613 1.898900 0.863350 255 255 255 255
0.199111 0.735278 -0.818714 255 255 255 255
1.804613 1.898900 0.863350 255 255 255 255
1.804613 1.898900 0.863350 255 255 255 255
1.804613 1.898900 0.863350 255 255 255 255
1.958526 2.349345 0.944939 255 255 255 255
1.958526 2.349345 0.944939 255 255 255 255
1.958526 2.349345 0.944939 255 255 255 255
1.958526 2.349345 0.944939 255 255 255 255
1.987187 2.379743 0.945160 255 255 255 255
1.987187 2.379743 0.945160 255 255 255 255
1.987187 2.379743 0.945160 255 255 255 255
1.987187 2.379743 0.945160 255 255 255 255
1.987187 2.379743 0.945160 255 255 255 255
1.987187 2.379743 0.945160 255 255 255 255
5.582560 0.704346 0.663713 255 255 255 255
2.507919 2.384885 0.954419 255 255 255 255
2.507919 2.384885 0.954419 255 255 255 255
2.507919 2.384885 0.954419 255 255 255 255
2.507919 2.384885 0.954419 255 255 255 255
2.507919 2.384885 0.954419 255 255 255 255
3.743010 2.517985 1.005432 255 255 255 255
2.507919 2.384885 0.954419 255 255 255 255
2.784201 2.082869 0.904150 255 255 255 255
2.784201 2.082869 0.904150 255 255 255 255
2.784201 2.082869 0.904150 255 255 255 255
2.784201 2.082869 0.904150 255 255 255 255
4.950087 1.539760 0.854210 255 255 255 255
2.784201 2.082869 0.904150 255 255 255 255
2.763790 2.101090 0.906532 255 255 255 255
-5.518690 2.896623 -0.446634 255 255 255 255
2.763790 2.101090 0.906532 255 255 255 255
2.763790 2.101090 0.906532 255 255 255 255
3.059646 1.787801 0.852198 255 255 255 255
3.059646 1.787801 0.852198 255 255 255 255
3.059646 1.787801 0.852198 255 255 255 255
3.530840 2.842381 1.075509 255 255 255 255
2.772090 -0.380533 0.399724 255 255 255 255
2.772090 -0.380533 0.399724 255 255 255 255
2.772090 -0.380533 0.399724 255 255 255 255
4.214618 -0.622518 0.385882 255 255 255 255
2.772090 -0.380533 0.399724 255 255 255 255
4.248817 1.973516 0.899707 255 255 255 255
2.772090 -0.380533 0.399724 255 255 255 255
5.631685 0.483558 0.412067 255 255 255 255
2.887125 -0.087783 0.439342 255 255 255 255
2.887125 -0.087783 0.439342 255 255 255 255
-5.577041 2.722587 -0.477291 255 255 255 255
2.887125 -0.087783 0.439342 255 255 255 255
2.875985 -0.292749 0.427562 255 255 255 255
2.875985 -0.292749 0.427562 255 255 255 255
2.875985 -0.292749 0.427562 255 255 255 255
5.604858 0.309791 0.509457 255 255 255 255
2.875985 -0.292749 0.427562 255 255 255 255
3.025344 0.043752 0.498631 255 255 255 255
3.025344 0.043752 0.498631 255 255 255 255
3.025344 0.043752 0.498631 255 255 255 255
-0.654295 0.839241 -0.836326 255 255 255 255
3.025344 0.043752 0.498631 255 255 255 255
3.352775 -0.015313 0.487123 255 255 255 255
3.352775 -0.015313 0.487123 255 255 255 255
3.352775 -0.015313 0.487123 255 255 255 255
3.352775 -0.015313 0.487123 255 255 255 255
-5.577041 2.722587 -0.477291 255 255 255 255
3.352775 -0.015313 0.487123 255 255 255 255
3.605106 -0.266214 0.451314 255 255 255 255
3.605106 -0.266214 0.451314 255 255 255 255
3.605106 -0.266214 0.451314 255 255 255 255
3.605106 -0.266214 0.451314 255 255 255 255
5.604858 0.309791 0.509457 255 255 255 255
3.605106 -0.266214 0.451314 255 255 255 255
4.497304 2.171612 0.974142 255 255 255 255
2.887261 -0.557257 0.378268 255 255 255 255
-5.342925 2.950327 -0.451017 255 255 255 255
2.887261 -0.557257 0.378268 255 255 255 255
2.887261 -0.557257 0.378268 255 255 255 255
2.887261 -0.557257 0.378268 255 255 255 255
2.887261 -0.557257 0.378268 255 255 255 255
-0.191775 -2.120844 -1.351007 255 255 255 255
-5.342925 2.950327 -0.451017 255 255 255 255
-0.191775 -2.120844 -1.351007 255 255 255 255
-0.200334 -2.222033 -1.325530 255 255 255 255
-0.200334 -2.222033 -1.325530 255 255 255 255
-0.200334 -2.222033 -1.325530 255 255 255 255
-0.303033 0.747146 -0.847071 255 255 255 255
-0.200334 -2.222033 -1.325530 255 255 255 255
-0.200334 -2.222033 -1.325530 255 255 255 255
-0.654295 0.839241 -0.836326 255 255 255 255
-0.654295 0.839241 -0.836326 255 255 255 255
-0.654295 0.839241 -0.836326 255 255 255 255
-0.654295 0.839241 -0.836326 255 255 255 255
-0.654295 0.839241 -0.836326 255 255 255 255
-0.618712 0.819208 -0.837688 255 255 255 255
-0.618712 0.819208 -0.837688 255 255 255 255
-0.618712 0.819208 -0.837688 255 255 255 255
-0.618712 0.819208 -0.837688 255 255 255 255
-0.618712 0.819208 -0.837688 255 255 255 255
-0.618712 0.819208 -0.837688 255 255 255 255
-0.303033 0.747146 -0.847071 255 255 255 255
-0.303033 0.747146 -0.847071 255 255 255 255
-0.303033 0.747146 -0.847071 255 255 255 255
-0.303033 0.747146 -0.847071 255 255 255 255
-0.303033 0.747146 -0.847071 255 255 255 255
-0.175653 0.821023 -0.837247 255 255 255 255
-0.175653 0.821023 -0.837247 255 255 255 255
4.175276 2.554741 1.036940 255 255 255 255
-0.175653 0.821023 -0.837247 255 255 255 255
3.292872 -1.654626 0.190034 255 255 255 255
-0.175653 0.821023 -0.837247 255 255 255 255
-0.175653 0.821023 -0.837247 255 255 255 255
-0.175653 0.821023 -0.837247 255 255 255 255
-0.175653 0.821023 -0.837247 255 255 255 255
0.095758 0.753734 -0.820350 255 255 255 255
0.095758 0.753734 -0.820350 255 255 255 255
0.095758 0.753734 -0.820350 255 255 255 255
0.095758 0.753734 -0.820350 255 255 255 255
0.095758 0.753734 -0.820350 255 255 255 255
0.199111 0.735278 -0.818714 255 255 255 255
0.199111 0.735278 -0.818714 255 255 255 255
0.199111 0.735278 -0.818714 255 255 255 255
0.199111 0.735278 -0.818714 255 255 255 255
0.199111 0.735278 -0.818714 255 255 255 255
0.199111 0.735278 -0.818714 255 255 255 255
0.199111 0.735278 -0.818714 255 255 255 255
0.412447 0.748929 -0.809790 255 255 255 255
0.412447 0.748929 -0.809790 255 255 255 255
2.951513 -1.684401 0.147898 255 255 255 255
0.530377 0.588894 -0.837244 255 255 255 255
0.530377 0.588894 -0.837244 255 255 255 255
4.248817 1.973516 0.899707 255 255 255 255
0.530377 0.588894 -0.837244 255 255 255 255
0.530377 0.588894 -0.837244 255 255 255 255
2.808750 -0.969424 0.303630 255 255 255 255
0.530377 0.588894 -0.837244 255 255 255 255
0.427002 0.316231 -0.888070 255 255 255 255
0.427002 0.316231 -0.888070 255 255 255 255
0.427002 0.316231 -0.888070 255 255 255 255
0.427002 0.316231 -0.888070 255 255 255 255
0.441548 0.250220 -0.893416 255 255 255 255
0.441548 0.250220 -0.893416 255 255 255 255
0.441548 0.250220 -0.893416 255 255 255 255
3.743010 2.517985 1.005432 255 255 255 255
0.441548 0.250220 -0.893416 255 255 255 255
0.441548 0.250220 -0.893416 255 255 255 255
0.441548 0.250220 -0.893416 255 255 255 255
0.441548 0.250220 -0.893416 255 255 255 255
-0.164437 -0.995044 -1.155805 255 255 255 255
-0.164437 -0.995044 -1.155805 255 255 255 255
-0.164437 -0.995044 -1.155805 255 255 255 255
-0.164437 -0.995044 -1.155805 255 255 255 255
5.307700 -0.103342 0.558141 255 255 255 255
-0.164437 -0.995044 -1.155805 255 255 255 255
-0.164437 -0.995044 -1.155805 255 255 255 255
3.914469 1.454964 0.809060 255 255 255 255
4.406626 -0.636069 0.395084 255 255 255 255
3.914469 1.454964 0.809060 255 255 255 255
3.914469 1.454964 0.809060 255 255 255 255
3.914469 1.454964 0.809060 255 255 255 255
3.914469 1.454964 0.809060 255 255 255 255
3.914469 1.454964 0.809060 255 255 255 255
5.553034 0.699922 0.676269 255 255 255 255
4.050954 1.554459 0.833453 255 255 255 255
4.050954 1.554459 0.833453 255 255 255 255
4.050954 1.554459 0.833453 255 255 255 255
4.050954 1.554459 0.833453 255 255 255 255
3.436142 1.436445 0.803476 255 255 255 255
3.436142 1.436445 0.803476 255 255 255 255
3.436142 1.436445 0.803476 255 255 255 255
3.436142 1.436445 0.803476 255 255 255 255
3.436142 1.436445 0.803476 255 255 255 255
5.424251 0.043636 0.578551 255 255 255 255
4.248817 1.973516 0.899707 255 255 255 255
4.248817 1.973516 0.899707 255 255 255 255
4.248817 1.973516 0.899707 255 255 255 255
4.248817 1.973516 0.899707 255 255 255 255
3.175213 -0.903291 0.313029 255 255 255 255
4.497304 2.171612 0.974142 255 255 255 255
4.497304 2.171612 0.974142 255 255 255 255
4.497304 2.171612 0.974142 255 255 255 255
4.497304 2.171612 0.974142 255 255 255 255
4.038317 2.293448 0.959154 255 255 255 255
4.038317 2.293448 0.959154 255 255 255 255
4.038317 2.293448 0.959154 255 255 255 255
4.038317 2.293448 0.959154 255 255 255 255
4.038317 2.293448 0.959154 255 255 255 255
4.038317 2.293448 0.959154 255 255 255 255
4.038317 2.293448 0.959154 255 255 255 255
4.175276 2.554741 1.036940 255 255 255 255
4.175276 2.554741 1.036940 255 255 255 255
4.175276 2.554741 1.036940 255 255 255 255
4.175276 2.554741 1.036940 255 255 255 255
4.175276 2.554741 1.036940 255 255 255 255
4.029619 2.697703 1.052307 255 255 255 255
4.029619 2.697703 1.052307 255 255 255 255
4.029619 2.697703 1.052307 255 255 255 255
4.029619 2.697703 1.052307 255 255 255 255
4.029619 2.697703 1.052307 255 255 255 255
4.029619 2.697703 1.052307 255 255 255 255
4.029619 2.697703 1.052307 255 255 255 255
3.743010 2.517985 1.005432 255 255 255 255
3.743010 2.517985 1.005432 255 255 255 255
3.743010 2.517985 1.005432 255 255 255 255
3.743010 2.517985 1.005432 255 255 255 255
5.541364 0.266264 0.621740 255 255 255 255
3.743010 2.517985 1.005432 255 255 255 255
3.615236 2.885167 1.088592 255 255 255 255
2.951513 -1.684401 0.147898 255 255 255 255
3.615236 2.885167 1.088592 255 255 255 255
3.615236 2.885167 1.088592 255 255 255 255
4.214618 -0.622518 0.385882 255 255 255 255
3.615236 2.885167 1.088592 255 255 255 255
3.571298 2.656867 1.039188 255 255 255 255
3.571298 2.656867 1.039188 255 255 255 255
3.571298 2.656867 1.039188 255 255 255 255
3.571298 2.656867 1.039188 255 255 255 255
4.406626 -0.636069 0.395084 255 255 255 255
3.571298 2.656867 1.039188 255 255 255 255
3.530840 2.842381 1.075509 255 255 255 255
3.530840 2.842381 1.075509 255 255 255 255
3.530840 2.842381 1.075509 255 255 255 255
3.530840 2.842381 1.075509 255 255 255 255
3.530840 2.842381 1.075509 255 255 255 255
3.530840 2.842381 1.075509 255 255 255 255
5.075332 1.324635 0.814385 255 255 255 255
5.075332 1.324635 0.814385 255 255 255 255
5.075332 1.324635 0.814385 255 255 255 255
5.075332 1.324635 0.814385 255 255 255 255
4.950087 1.539760 0.854210 255 255 255 255
4.950087 1.539760 0.854210 255 255 255 255
4.950087 1.539760 0.854210 255 255 255 255
4.950087 1.539760 0.854210 255 255 255 255
4.950087 1.539760 0.854210 255 255 255 255
4.950087 1.539760 0.854210 255 255 255 255
5.392295 0.892013 0.723566 255 255 255 255
5.392295 0.892013 0.723566 255 255 255 255
5.392295 0.892013 0.723566 255 255 255 255
5.392295 0.892013 0.723566 255 255 255 255
5.392295 0.892013 0.723566 255 255 255 255
5.392295 0.892013 0.723566 255 255 255 255
5.553034 0.699922 0.676269 255 255 255 255
5.553034 0.699922 0.676269 255 255 255 255
5.553034 0.699922 0.676269 255 255 255 255
5.553034 0.699922 0.676269 255 255 255 255
5.582560 0.704346 0.663713 255 255 255 255
5.582560 0.704346 0.663713 255 255 255 255
5.582560 0.704346 0.663713 255 255 255 255
5.582560 0.704346 0.663713 255 255 255 255
5.582560 0.704346 0.663713 255 255 255 255
5.582560 0.704346 0.663713 255 255 255 255
5.582560 0.704346 0.663713 255 255 255 255
5.424251 0.043636 0.578551 255 255 255 255
5.424251 0.043636 0.578551 255 255 255 255
5.424251 0.043636 0.578551 255 255 255 255
5.424251 0.043636 0.578551 255 255 255 255
4.804689 -0.476903 0.448745 255 255 255 255
5.424251 0.043636 0.578551 255 255 255 255
5.307700 -0.103342 0.558141 255 255 255 255
5.307700 -0.103342 0.558141 255 255 255 255
5.307700 -0.103342 0.558141 255 255 255 255
5.307700 -0.103342 0.558141 255 255 255 255
5.541364 0.266264 0.621740 255 255 255 255
5.541364 0.266264 0.621740 255 255 255 255
5.541364 0.266264 0.621740 255 255 255 255
5.604858 0.309791 0.509457 255 255 255 255
5.604858 0.309791 0.509457 255 255 255 255
5.604858 0.309791 0.509457 255 255 255 255
5.604858 0.309791 0.509457 255 255 255 255
5.604858 0.309791 0.509457 255 255 255 255
4.804689 -0.476903 0.448745 255 255 255 255
3.338119 -1.262874 0.260041 255 255 255 255
4.804689 -0.476903 0.448745 255 255 255 255
4.804689 -0.476903 0.448745 255 255 255 255
4.804689 -0.476903 0.448745 255 255 255 255
4.804689 -0.476903 0.448745 255 255 255 255
4.804689 -0.476903 0.448745 255 255 255 255
4.629129 -0.566326 0.423113 255 255 255 255
4.629129 -0.566326 0.423113 255 255 255 255
4.629129 -0.566326 0.423113 255 255 255 255
4.629129 -0.566326 0.423113 255 255 255 255
4.629129 -0.566326 0.423113 255 255 255 255
4.629129 -0.566326 0.423113 255 255 255 255
4.629129 -0.566326 0.423113 255 255 255 255
4.406626 -0.636069 0.395084 255 255 255 255
4.214618 -0.622518 0.385882 255 255 255 255
4.214618 -0.622518 0.385882 255 255 255 255
4.214618 -0.622518 0.385882 255 255 255 255
4.214618 -0.622518 0.385882 255 255 255 255
5.631685 0.483558 0.412067 255 255 255 255
5.631685 0.483558 0.412067 255 255 255 255
5.631685 0.483558 0.412067 255 255 255 255
5.631685 0.483558 0.412067 255 255 255 255
-5.518690 2.896623 -0.446634 255 255 255 255
-5.518690 2.896623 -0.446634 255 255 255 255
-5.518690 2.896623 -0.446634 255 255 255 255
-5.518690 2.896623 -0.446634 255 255 255 255
-5.518690 2.896623 -0.446634 255 255 255 255
-5.342925 2.950327 -0.451017 255 255 255 255
-5.342925 2.950327 -0.451017 255 255 255 255
-5.342925 2.950327 -0.451017 255 255 255 255
-5.342925 2.950327 -0.451017 255 255 255 255
-5.342925 2.950327 -0.451017 255 255 255 255
3.175213 -0.903291 0.313029 255 255 255 255
3.175213 -0.903291 0.313029 255 255 255 255
3.175213 -0.903291 0.313029 255 255 255 255
3.175213 -0.903291 0.313029 255 255 255 255
3.175213 -0.903291 0.313029 255 255 255 255
3.175213 -0.903291 0.313029 255 255 255 255
3.175213 -0.903291 0.313029 255 255 255 255
-5.577041 2.722587 -0.477291 255 255 255 255
-5.577041 2.722587 -0.477291 255 255 255 255
-5.577041 2.722587 -0.477291 255 255 255 255
-5.577041 2.722587 -0.477291 255 255 255 255
3.314969 -1.203301 0.268292 255 255 255 255
2.951513 -1.684401 0.147898 255 255 255 255
3.314969 -1.203301 0.268292 255 255 255 255
3.314969 -1.203301 0.268292 255 255 255 255
3.314969 -1.203301 0.268292 255 255 255 255
3.314969 -1.203301 0.268292 255 255 255 255
3.314969 -1.203301 0.268292 255 255 255 255
3.314969 -1.203301 0.268292 255 255 255 255
3.338119 -1.262874 0.260041 255 255 255 255
3.338119 -1.262874 0.260041 255 255 255 255
3.338119 -1.262874 0.260041 255 255 255 255
3.292872 -1.654626 0.190034 255 255 255 255
3.292872 -1.654626 0.190034 255 255 255 255
3.292872 -1.654626 0.190034 255 255 255 255
2.808750 -0.969424 0.303630 255 255 255 255
2.808750 -0.969424 0.303630 255 255 255 255
2.808750 -0.969424 0.303630 255 255 255 255
3.211994 -1.707437 0.176398 255 255 255 255
3.211994 -1.707437 0.176398 255 255 255 255
3.211994 -1.707437 0.176398 255 255 255 255
3.211994 -1.707437 0.176398 255 255 255 255
3.211994 -1.707437 0.176398 255 255 255 255
3.211994 -1.707437 0.176398 255 255 255 255
2.951513 -1.684401 0.147898 255 255 255 255
2.951513 -1.684401 0.147898 255 255 255 255
2.951513 -1.684401 0.147898 255 255 255 255
2.951513 -1.684401 0.147898 255 255 255 255
2.818656 -1.626362 0.152974 255 255 255 255
2.818656 -1.626362 0.152974 255 255 255 255
2.708864 -1.363104 0.195510 255 255 255 255
2.708864 -1.363104 0.195510 255 255 255 255
2.708733 -1.359184 0.197354 255 255 255 255
2.708733 -1.359184 0.197354 255 255 255 255
2.708733 -1.359184 0.197354 255 255 255 255
2.708733 -1.359184 0.197354 255 255 255 255
2.692737 -1.329486 0.196960 255 255 255 255
2.692737 -1.329486 0.196960 255 255 255 255
2.692737 -1.329486 0.196960 255 255 255 255
2.692737 -1.329486 0.196960 255 255 255 255
2.661343 -1.350291 0.183186 255 255 255 255
2.661343 -1.350291 0.183186 255 255 255 255
2.661343 -1.350291 0.183186 255 255 255 255
2.661343 -1.350291 0.183186 255 255 255 255
2.661343 -1.350291 0.183186 255 255 255 255
2.736187 -1.251864 0.231913 255 255 255 255
2.736187 -1.251864 0.231913 255 255 255 255
2.736187 -1.251864 0.231913 255 255 255 255
2.736187 -1.251864 0.231913 255 255 255 255
