720
2.713092 2.039609 0.025308 255 255 255 255
2.353936 1.823143 0.004640 255 255 255 255
0.961070 2.592866 0.053015 255 255 255 255
-0.081323 -5.234831 0.033806 255 255 255 255
2.811833 1.575721 -0.010451 255 255 255 255
-0.369237 -0.869605 0.059965 255 255 255 255
-1.693152 3.534933 -0.197128 255 255 255 255
3.371679 1.665527 0.009537 255 255 255 255
-1.646241 3.449988 0.116644 255 255 255 255
0.584774 -5.066796 0.015844 255 255 255 255
2.353936 1.823143 0.004640 255 255 255 255
1.535664 -1.481117 0.031422 255 255 255 255
2.353936 1.823143 0.004640 255 255 255 255
-0.291076 1.960892 0.086786 255 255 255 255
2.811833 1.575721 -0.010451 255 255 255 255
2.353936 1.823143 0.004640 255 255 255 255
2.811833 1.575721 -0.010451 255 255 255 255
2.353936 1.823143 0.004640 255 255 255 255
2.353936 1.823143 0.004640 255 255 255 255
-1.693152 3.534933 -0.197128 255 255 255 255
-0.200286 0.978250 0.067744 255 255 255 255
-1.018408 -2.119217 0.077325 255 255 255 255
2.353936 1.823143 0.004640 255 255 255 255
3.371679 1.665527 0.009537 255 255 255 255
3.058327 1.804185 0.009531 255 255 255 255
3.256717 1.133370 -0.013666 255 255 255 255
2.263631 1.850807 0.009003 255 255 255 255
-0.369237 -0.869605 0.059965 255 255 255 255
2.353936 1.823143 0.004640 255 255 255 255
-1.749196 3.698283 0.053902 255 255 255 255
3.256717 1.133370 -0.013666 255 255 255 255
1.640020 2.170178 0.024142 255 255 255 255
1.640020 2.170178 0.024142 255 255 255 255
-1.749196 3.698283 0.053902 255 255 255 255
3.256717 1.133370 -0.013666 255 255 255 255
1.640020 2.170178 0.024142 255 255 255 255
0.697874 -2.565580 0.043749 255 255 255 255
2.811833 1.575721 -0.010451 255 255 255 255
-3.989905 -3.627509 0.211853 255 255 255 255
3.371679 1.665527 0.009537 255 255 255 255
2.263631 1.850807 0.009003 255 255 255 255
1.640020 2.170178 0.024142 255 255 255 255
-2.515883 -3.433735 0.090867 255 255 255 255
1.640020 2.170178 0.024142 255 255 255 255
-0.965152 -0.588724 0.090452 255 255 255 255
-0.123725 0.558712 0.049958 255 255 255 255
1.640020 2.170178 0.024142 255 255 255 255
-1.881237 4.694676 0.146332 255 255 255 255
3.058327 1.804185 0.009531 255 255 255 255
1.640020 2.170178 0.024142 255 255 255 255
3.256717 1.133370 -0.013666 255 255 255 255
-1.498358 4.117650 0.120685 255 255 255 255
3.256717 1.133370 -0.013666 255 255 255 255
-0.134890 0.252202 0.045680 255 255 255 255
-1.576979 3.462417 0.119910 255 255 255 255
2.713092 2.039609 0.025308 255 255 255 255
-1.519912 3.365048 -0.097888 255 255 255 255
-1.576979 3.462417 0.119910 255 255 255 255
1.640020 2.170178 0.024142 255 255 255 255
-1.576979 3.462417 0.119910 255 255 255 255
-3.333666 -3.655696 0.214200 255 255 255 255
3.371679 1.665527 0.009537 255 255 255 255
2.263631 1.850807 0.009003 255 255 255 255
-1.646241 3.449988 0.116644 255 255 255 255
2.263631 1.850807 0.009003 255 255 255 255
3.388253 0.307287 -0.017672 255 255 255 255
-1.519912 3.365048 -0.097888 255 255 255 255
2.713092 2.039609 0.025308 255 255 255 255
2.263631 1.850807 0.009003 255 255 255 255
2.263631 1.850807 0.009003 255 255 255 255
3.028516 -0.533708 -0.030405 255 255 255 255
3.256717 1.133370 -0.013666 255 255 255 255
2.263631 1.850807 0.009003 255 255 255 255
-0.129470 -2.290966 0.046918 255 255 255 255
2.713092 2.039609 0.025308 255 255 255 255
2.263631 1.850807 0.009003 255 255 255 255
4.692933 2.039019 -0.008037 255 255 255 255
-1.508968 3.391338 -0.103480 255 255 255 255
-1.536189 3.441864 -0.073396 255 255 255 255
2.811833 1.575721 -0.010451 255 255 255 255
-1.629563 -4.547131 0.161345 255 255 255 255
2.811833 1.575721 -0.010451 255 255 255 255
3.256717 1.133370 -0.013666 255 255 255 255
-1.253000 -4.975945 0.055168 255 255 255 255
2.305132 -1.300855 -0.017766 255 255 255 255
2.811833 1.575721 -0.010451 255 255 255 255
2.811833 1.575721 -0.010451 255 255 255 255
0.093774 3.104942 0.081569 255 255 255 255
2.713092 2.039609 0.025308 255 255 255 255
2.346968 2.655052 0.038141 255 255 255 255
-0.669514 3.193421 -0.283512 255 255 255 255
2.713092 2.039609 0.025308 255 255 255 255
2.713092 2.039609 0.025308 255 255 255 255
-1.508968 3.391338 -0.103480 255 255 255 255
2.713092 2.039609 0.025308 255 255 255 255
4.697183 2.251961 0.017181 255 255 255 255
3.256717 1.133370 -0.013666 255 255 255 255
2.305132 -1.300855 -0.017766 255 255 255 255
-0.589213 -2.198132 0.074906 255 255 255 255
3.058327 1.804185 0.009531 255 255 255 255
3.058327 1.804185 0.009531 255 255 255 255
3.371679 1.665527 0.009537 255 255 255 255
4.697183 2.251961 0.017181 255 255 255 255
4.692933 2.039019 -0.008037 255 255 255 255
-1.519912 3.365048 -0.097888 255 255 255 255
3.058327 1.804185 0.009531 255 255 255 255
3.058327 1.804185 0.009531 255 255 255 255
-1.519912 3.365048 -0.097888 255 255 255 255
3.371679 1.665527 0.009537 255 255 255 255
3.058327 1.804185 0.009531 255 255 255 255
-1.536189 3.441864 -0.073396 255 255 255 255
0.401856 -1.025355 0.049900 255 255 255 255
-0.200286 0.978250 0.067744 255 255 255 255
1.130045 -4.157769 0.011909 255 255 255 255
1.810777 -2.069627 0.007907 255 255 255 255
3.058327 1.804185 0.009531 255 255 255 255
2.346968 2.655052 0.038141 255 255 255 255
3.371679 1.665527 0.009537 255 255 255 255
-1.749196 3.698283 0.053902 255 255 255 255
1.130045 -4.157769 0.011909 255 255 255 255
-2.146057 -2.797049 0.098415 255 255 255 255
3.371679 1.665527 0.009537 255 255 255 255
2.346968 2.655052 0.038141 255 255 255 255
2.346968 2.655052 0.038141 255 255 255 255
2.346968 2.655052 0.038141 255 255 255 255
3.028516 -0.533708 -0.030405 255 255 255 255
2.346968 2.655052 0.038141 255 255 255 255
-1.749196 3.698283 0.053902 255 255 255 255
2.346968 2.655052 0.038141 255 255 255 255
-1.512363 3.382373 -0.102433 255 255 255 255
-1.512363 3.382373 -0.102433 255 255 255 255
2.346968 2.655052 0.038141 255 255 255 255
-1.498358 4.117650 0.120685 255 255 255 255
1.605558 -1.955804 0.013205 255 255 255 255
2.369750 3.111449 0.037866 255 255 255 255
2.369750 3.111449 0.037866 255 255 255 255
2.369750 3.111449 0.037866 255 255 255 255
2.369750 3.111449 0.037866 255 255 255 255
4.566029 -0.225482 -0.051982 255 255 255 255
0.623249 2.749867 -0.277919 255 255 255 255
2.369750 3.111449 0.037866 255 255 255 255
2.369750 3.111449 0.037866 255 255 255 255
1.605558 -1.955804 0.013205 255 255 255 255
1.810777 -2.069627 0.007907 255 255 255 255
2.369750 3.111449 0.037866 255 255 255 255
2.369750 3.111449 0.037866 255 255 255 255
4.039378 1.547953 0.002109 255 255 255 255
-0.679792 -0.492900 0.081514 255 255 255 255
4.039378 1.547953 0.002109 255 255 255 255
3.028516 -0.533708 -0.030405 255 255 255 255
4.039378 1.547953 0.002109 255 255 255 255
-0.569395 2.858140 0.106133 255 255 255 255
-2.885535 -3.766371 0.206810 255 255 255 255
4.039378 1.547953 0.002109 255 255 255 255
2.305132 -1.300855 -0.017766 255 255 255 255
4.039378 1.547953 0.002109 255 255 255 255
-0.589213 -2.198132 0.074906 255 255 255 255
-1.519912 3.365048 -0.097888 255 255 255 255
4.039378 1.547953 0.002109 255 255 255 255
-3.312251 -4.391075 0.204281 255 255 255 255
-1.332726 3.408366 -0.227413 255 255 255 255
4.039378 1.547953 0.002109 255 255 255 255
4.039378 1.547953 0.002109 255 255 255 255
-0.129470 -2.290966 0.046918 255 255 255 255
0.961070 2.592866 0.053015 255 255 255 255
0.961070 2.592866 0.053015 255 255 255 255
-1.536189 3.441864 -0.073396 255 255 255 255
0.401856 -1.025355 0.049900 255 255 255 255
0.693157 2.756149 0.049447 255 255 255 255
-1.576979 3.462417 0.119910 255 255 255 255
0.961070 2.592866 0.053015 255 255 255 255
0.961070 2.592866 0.053015 255 255 255 255
0.401856 -1.025355 0.049900 255 255 255 255
0.401856 -1.025355 0.049900 255 255 255 255
-1.253000 -4.975945 0.055168 255 255 255 255
0.961070 2.592866 0.053015 255 255 255 255
-0.603302 3.485448 0.115545 255 255 255 255
0.961070 2.592866 0.053015 255 255 255 255
0.961070 2.592866 0.053015 255 255 255 255
-2.460548 -4.423930 0.191821 255 255 255 255
0.458635 -2.498987 0.051533 255 255 255 255
0.693157 2.756149 0.049447 255 255 255 255
2.305132 -1.300855 -0.017766 255 255 255 255
0.693157 2.756149 0.049447 255 255 255 255
0.693157 2.756149 0.049447 255 255 255 255
0.093774 3.104942 0.081569 255 255 255 255
0.693157 2.756149 0.049447 255 255 255 255
-1.758965 -2.366766 0.057941 255 255 255 255
0.693157 2.756149 0.049447 255 255 255 255
0.693157 2.756149 0.049447 255 255 255 255
0.693157 2.756149 0.049447 255 255 255 255
-1.576979 3.462417 0.119910 255 255 255 255
4.566250 1.692512 -0.004164 255 255 255 255
-0.569395 2.858140 0.106133 255 255 255 255
4.566250 1.692512 -0.004164 255 255 255 255
4.566250 1.692512 -0.004164 255 255 255 255
2.491292 -1.168105 -0.017288 255 255 255 255
4.566250 1.692512 -0.004164 255 255 255 255
4.566250 1.692512 -0.004164 255 255 255 255
4.566250 1.692512 -0.004164 255 255 255 255
3.388253 0.307287 -0.017672 255 255 255 255
-1.513425 3.445951 -0.090327 255 255 255 255
4.566250 1.692512 -0.004164 255 255 255 255
4.566250 1.692512 -0.004164 255 255 255 255
-0.134890 0.252202 0.045680 255 255 255 255
-0.129470 -2.290966 0.046918 255 255 255 255
3.388253 0.307287 -0.017672 255 255 255 255
3.388253 0.307287 -0.017672 255 255 255 255
3.388253 0.307287 -0.017672 255 255 255 255
3.388253 0.307287 -0.017672 255 255 255 255
1.605558 -1.955804 0.013205 255 255 255 255
-0.387429 2.548932 0.104134 255 255 255 255
-1.565189 3.514103 -0.011057 255 255 255 255
-3.312251 -4.391075 0.204281 255 255 255 255
-0.129470 -2.290966 0.046918 255 255 255 255
3.388253 0.307287 -0.017672 255 255 255 255
-0.589213 -2.198132 0.074906 255 255 255 255
3.388253 0.307287 -0.017672 255 255 255 255
3.343889 0.196565 -0.022638 255 255 255 255
-0.123725 0.558712 0.049958 255 255 255 255
-1.508968 3.391338 -0.103480 255 255 255 255
3.343889 0.196565 -0.022638 255 255 255 255
-1.640388 3.381353 0.135184 255 255 255 255
3.343889 0.196565 -0.022638 255 255 255 255
4.692933 2.039019 -0.008037 255 255 255 255
0.401856 -1.025355 0.049900 255 255 255 255
3.343889 0.196565 -0.022638 255 255 255 255
3.343889 0.196565 -0.022638 255 255 255 255
3.343889 0.196565 -0.022638 255 255 255 255
3.343889 0.196565 -0.022638 255 255 255 255
3.343889 0.196565 -0.022638 255 255 255 255
3.028516 -0.533708 -0.030405 255 255 255 255
1.097955 -1.216117 0.028439 255 255 255 255
-1.253118 3.255494 0.117757 255 255 255 255
3.028516 -0.533708 -0.030405 255 255 255 255
3.028516 -0.533708 -0.030405 255 255 255 255
-0.387429 2.548932 0.104134 255 255 255 255
-1.512363 3.382373 -0.102433 255 255 255 255
-3.312251 -4.391075 0.204281 255 255 255 255
3.028516 -0.533708 -0.030405 255 255 255 255
-1.332726 3.408366 -0.227413 255 255 255 255
1.130045 -4.157769 0.011909 255 255 255 255
3.028516 -0.533708 -0.030405 255 255 255 255
-2.495812 -4.426986 0.188555 255 255 255 255
4.697183 2.251961 0.017181 255 255 255 255
2.491292 -1.168105 -0.017288 255 255 255 255
-0.387429 2.548932 0.104134 255 255 255 255
2.491292 -1.168105 -0.017288 255 255 255 255
2.491292 -1.168105 -0.017288 255 255 255 255
-2.515883 -3.433735 0.090867 255 255 255 255
2.491292 -1.168105 -0.017288 255 255 255 255
-1.565189 3.514103 -0.011057 255 255 255 255
2.491292 -1.168105 -0.017288 255 255 255 255
2.491292 -1.168105 -0.017288 255 255 255 255
2.491292 -1.168105 -0.017288 255 255 255 255
4.566029 -0.225482 -0.051982 255 255 255 255
4.566029 -0.225482 -0.051982 255 255 255 255
4.697183 2.251961 0.017181 255 255 255 255
1.769806 -2.199253 0.005229 255 255 255 255
4.566029 -0.225482 -0.051982 255 255 255 255
-1.513425 3.445951 -0.090327 255 255 255 255
-1.749196 3.698283 0.053902 255 255 255 255
4.566029 -0.225482 -0.051982 255 255 255 255
4.566029 -0.225482 -0.051982 255 255 255 255
-1.253118 3.255494 0.117757 255 255 255 255
-1.565189 3.514103 -0.011057 255 255 255 255
4.566029 -0.225482 -0.051982 255 255 255 255
-1.565189 3.514103 -0.011057 255 255 255 255
4.566029 -0.225482 -0.051982 255 255 255 255
1.769806 -2.199253 0.005229 255 255 255 255
1.271831 -3.873189 0.022161 255 255 255 255
2.305132 -1.300855 -0.017766 255 255 255 255
2.305132 -1.300855 -0.017766 255 255 255 255
2.305132 -1.300855 -0.017766 255 255 255 255
-0.200286 0.978250 0.067744 255 255 255 255
-1.646241 3.449988 0.116644 255 255 255 255
2.305132 -1.300855 -0.017766 255 255 255 255
-0.603302 3.485448 0.115545 255 255 255 255
1.810777 -2.069627 0.007907 255 255 255 255
1.605558 -1.955804 0.013205 255 255 255 255
1.810777 -2.069627 0.007907 255 255 255 255
-1.446746 -4.656750 0.062120 255 255 255 255
1.810777 -2.069627 0.007907 255 255 255 255
1.810777 -2.069627 0.007907 255 255 255 255
1.097955 -1.216117 0.028439 255 255 255 255
1.810777 -2.069627 0.007907 255 255 255 255
1.810777 -2.069627 0.007907 255 255 255 255
-0.569395 2.858140 0.106133 255 255 255 255
-1.640388 3.381353 0.135184 255 255 255 255
1.535664 -1.481117 0.031422 255 255 255 255
1.605558 -1.955804 0.013205 255 255 255 255
1.535664 -1.481117 0.031422 255 255 255 255
1.535664 -1.481117 0.031422 255 255 255 255
-1.508968 3.391338 -0.103480 255 255 255 255
1.535664 -1.481117 0.031422 255 255 255 255
-3.333666 -3.655696 0.214200 255 255 255 255
1.535664 -1.481117 0.031422 255 255 255 255
1.605558 -1.955804 0.013205 255 255 255 255
1.535664 -1.481117 0.031422 255 255 255 255
1.535664 -1.481117 0.031422 255 255 255 255
-0.369237 -0.869605 0.059965 255 255 255 255
4.692933 2.039019 -0.008037 255 255 255 255
-1.646241 3.449988 0.116644 255 255 255 255
4.692933 2.039019 -0.008037 255 255 255 255
4.692933 2.039019 -0.008037 255 255 255 255
-1.646241 3.449988 0.116644 255 255 255 255
4.692933 2.039019 -0.008037 255 255 255 255
4.692933 2.039019 -0.008037 255 255 255 255
-0.465711 -5.285738 0.024124 255 255 255 255
4.697183 2.251961 0.017181 255 255 255 255
-1.513425 3.445951 -0.090327 255 255 255 255
4.697183 2.251961 0.017181 255 255 255 255
4.697183 2.251961 0.017181 255 255 255 255
4.697183 2.251961 0.017181 255 255 255 255
1.769806 -2.199253 0.005229 255 255 255 255
-0.134890 0.252202 0.045680 255 255 255 255
-0.369237 -0.869605 0.059965 255 255 255 255
-0.669514 3.193421 -0.283512 255 255 255 255
1.769806 -2.199253 0.005229 255 255 255 255
1.769806 -2.199253 0.005229 255 255 255 255
1.769806 -2.199253 0.005229 255 255 255 255
-2.515883 -3.433735 0.090867 255 255 255 255
1.769806 -2.199253 0.005229 255 255 255 255
1.544330 -2.915493 -0.007821 255 255 255 255
1.769806 -2.199253 0.005229 255 255 255 255
-0.291076 1.960892 0.086786 255 255 255 255
-4.098364 -3.926549 0.201645 255 255 255 255
1.544330 -2.915493 -0.007821 255 255 255 255
1.544330 -2.915493 -0.007821 255 255 255 255
-0.815873 3.063048 0.111063 255 255 255 255
1.544330 -2.915493 -0.007821 255 255 255 255
1.544330 -2.915493 -0.007821 255 255 255 255
1.097955 -1.216117 0.028439 255 255 255 255
-0.378821 -0.255149 0.053611 255 255 255 255
0.869366 -4.717168 -0.005311 255 255 255 255
1.544330 -2.915493 -0.007821 255 255 255 255
1.544330 -2.915493 -0.007821 255 255 255 255
-0.387429 2.548932 0.104134 255 255 255 255
1.544330 -2.915493 -0.007821 255 255 255 255
-1.513425 3.445951 -0.090327 255 255 255 255
1.605558 -1.955804 0.013205 255 255 255 255
1.605558 -1.955804 0.013205 255 255 255 255
-1.253118 3.255494 0.117757 255 255 255 255
1.480291 -2.216602 0.005425 255 255 255 255
1.480291 -2.216602 0.005425 255 255 255 255
1.480291 -2.216602 0.005425 255 255 255 255
1.097955 -1.216117 0.028439 255 255 255 255
1.480291 -2.216602 0.005425 255 255 255 255
1.480291 -2.216602 0.005425 255 255 255 255
1.480291 -2.216602 0.005425 255 255 255 255
-0.129470 -2.290966 0.046918 255 255 255 255
1.480291 -2.216602 0.005425 255 255 255 255
-0.965152 -0.588724 0.090452 255 255 255 255
1.480291 -2.216602 0.005425 255 255 255 255
1.097955 -1.216117 0.028439 255 255 255 255
1.097955 -1.216117 0.028439 255 255 255 255
1.097955 -1.216117 0.028439 255 255 255 255
1.097955 -1.216117 0.028439 255 255 255 255
-0.378821 -0.255149 0.053611 255 255 255 255
0.401856 -1.025355 0.049900 255 255 255 255
0.697874 -2.565580 0.043749 255 255 255 255
0.401856 -1.025355 0.049900 255 255 255 255
-2.885535 -3.766371 0.206810 255 255 255 255
0.401856 -1.025355 0.049900 255 255 255 255
0.093774 3.104942 0.081569 255 255 255 255
0.093774 3.104942 0.081569 255 255 255 255
0.093774 3.104942 0.081569 255 255 255 255
0.093774 3.104942 0.081569 255 255 255 255
0.093774 3.104942 0.081569 255 255 255 255
-1.508968 3.391338 -0.103480 255 255 255 255
0.093774 3.104942 0.081569 255 255 255 255
-0.603302 3.485448 0.115545 255 255 255 255
-0.603302 3.485448 0.115545 255 255 255 255
-0.603302 3.485448 0.115545 255 255 255 255
-1.693152 3.534933 -0.197128 255 255 255 255
-0.603302 3.485448 0.115545 255 255 255 255
-1.536189 3.441864 -0.073396 255 255 255 255
-0.603302 3.485448 0.115545 255 255 255 255
-0.603302 3.485448 0.115545 255 255 255 255
-0.378821 -0.255149 0.053611 255 255 255 255
-1.253118 3.255494 0.117757 255 255 255 255
-0.378821 -0.255149 0.053611 255 255 255 255
-0.815873 3.063048 0.111063 255 255 255 255
-1.758965 -2.366766 0.057941 255 255 255 255
-0.378821 -0.255149 0.053611 255 255 255 255
-0.378821 -0.255149 0.053611 255 255 255 255
-0.378821 -0.255149 0.053611 255 255 255 255
0.623249 2.749867 -0.277919 255 255 255 255
-0.378821 -0.255149 0.053611 255 255 255 255
-0.679792 -0.492900 0.081514 255 255 255 255
-0.679792 -0.492900 0.081514 255 255 255 255
-1.332726 3.408366 -0.227413 255 255 255 255
0.322277 -5.130575 0.020914 255 255 255 255
-0.679792 -0.492900 0.081514 255 255 255 255
-0.679792 -0.492900 0.081514 255 255 255 255
-0.679792 -0.492900 0.081514 255 255 255 255
-1.253118 3.255494 0.117757 255 255 255 255
-0.679792 -0.492900 0.081514 255 255 255 255
-1.758965 -2.366766 0.057941 255 255 255 255
-0.679792 -0.492900 0.081514 255 255 255 255
-0.134890 0.252202 0.045680 255 255 255 255
-0.965152 -0.588724 0.090452 255 255 255 255
-0.134890 0.252202 0.045680 255 255 255 255
-0.134890 0.252202 0.045680 255 255 255 255
-0.134890 0.252202 0.045680 255 255 255 255
-0.965152 -0.588724 0.090452 255 255 255 255
-0.134890 0.252202 0.045680 255 255 255 255
-0.369237 -0.869605 0.059965 255 255 255 255
-0.200286 0.978250 0.067744 255 255 255 255
-0.369237 -0.869605 0.059965 255 255 255 255
-0.129470 -2.290966 0.046918 255 255 255 255
-4.098364 -3.926549 0.201645 255 255 255 255
-0.369237 -0.869605 0.059965 255 255 255 255
-0.369237 -0.869605 0.059965 255 255 255 255
-0.965152 -0.588724 0.090452 255 255 255 255
-0.965152 -0.588724 0.090452 255 255 255 255
-0.965152 -0.588724 0.090452 255 255 255 255
-0.965152 -0.588724 0.090452 255 255 255 255
-0.123725 0.558712 0.049958 255 255 255 255
-0.123725 0.558712 0.049958 255 255 255 255
-0.123725 0.558712 0.049958 255 255 255 255
0.697874 -2.565580 0.043749 255 255 255 255
-0.123725 0.558712 0.049958 255 255 255 255
-0.123725 0.558712 0.049958 255 255 255 255
-1.629563 -4.547131 0.161345 255 255 255 255
-0.123725 0.558712 0.049958 255 255 255 255
-1.881237 4.694676 0.146332 255 255 255 255
-0.200286 0.978250 0.067744 255 255 255 255
-0.200286 0.978250 0.067744 255 255 255 255
-0.200286 0.978250 0.067744 255 255 255 255
-1.253118 3.255494 0.117757 255 255 255 255
-0.200286 0.978250 0.067744 255 255 255 255
-0.291076 1.960892 0.086786 255 255 255 255
-0.291076 1.960892 0.086786 255 255 255 255
-2.146057 -2.797049 0.098415 255 255 255 255
-0.291076 1.960892 0.086786 255 255 255 255
-1.508968 3.391338 -0.103480 255 255 255 255
-0.291076 1.960892 0.086786 255 255 255 255
-0.291076 1.960892 0.086786 255 255 255 255
-0.291076 1.960892 0.086786 255 255 255 255
-1.536189 3.441864 -0.073396 255 255 255 255
0.697874 -2.565580 0.043749 255 255 255 255
0.697874 -2.565580 0.043749 255 255 255 255
-2.100579 -2.720315 0.088802 255 255 255 255
0.697874 -2.565580 0.043749 255 255 255 255
0.697874 -2.565580 0.043749 255 255 255 255
-0.387429 2.548932 0.104134 255 255 255 255
0.697874 -2.565580 0.043749 255 255 255 255
-1.513425 3.445951 -0.090327 255 255 255 255
0.458635 -2.498987 0.051533 255 255 255 255
0.458635 -2.498987 0.051533 255 255 255 255
0.458635 -2.498987 0.051533 255 255 255 255
-1.640388 3.381353 0.135184 255 255 255 255
0.458635 -2.498987 0.051533 255 255 255 255
-1.508968 3.391338 -0.103480 255 255 255 255
0.458635 -2.498987 0.051533 255 255 255 255
-1.565189 3.514103 -0.011057 255 255 255 255
0.458635 -2.498987 0.051533 255 255 255 255
-4.098364 -3.926549 0.201645 255 255 255 255
0.458635 -2.498987 0.051533 255 255 255 255
-0.129470 -2.290966 0.046918 255 255 255 255
-0.129470 -2.290966 0.046918 255 255 255 255
-0.387429 2.548932 0.104134 255 255 255 255
-0.387429 2.548932 0.104134 255 255 255 255
-0.387429 2.548932 0.104134 255 255 255 255
-1.693152 3.534933 -0.197128 255 255 255 255
-0.569395 2.858140 0.106133 255 255 255 255
-1.517539 3.449471 -0.086876 255 255 255 255
-0.569395 2.858140 0.106133 255 255 255 255
-2.100579 -2.720315 0.088802 255 255 255 255
-0.569395 2.858140 0.106133 255 255 255 255
-0.569395 2.858140 0.106133 255 255 255 255
-0.569395 2.858140 0.106133 255 255 255 255
-1.881237 4.694676 0.146332 255 255 255 255
-0.815873 3.063048 0.111063 255 255 255 255
-0.815873 3.063048 0.111063 255 255 255 255
-0.815873 3.063048 0.111063 255 255 255 255
-0.815873 3.063048 0.111063 255 255 255 255
-0.815873 3.063048 0.111063 255 255 255 255
-0.815873 3.063048 0.111063 255 255 255 255
-1.881237 4.694676 0.146332 255 255 255 255
-1.253118 3.255494 0.117757 255 255 255 255
-1.498358 4.117650 0.120685 255 255 255 255
-1.253118 3.255494 0.117757 255 255 255 255
-1.646241 3.449988 0.116644 255 255 255 255
-1.332726 3.408366 -0.227413 255 255 255 255
-1.646241 3.449988 0.116644 255 255 255 255
-1.646241 3.449988 0.116644 255 255 255 255
-1.512363 3.382373 -0.102433 255 255 255 255
-1.640388 3.381353 0.135184 255 255 255 255
-1.640388 3.381353 0.135184 255 255 255 255
-0.589213 -2.198132 0.074906 255 255 255 255
-1.640388 3.381353 0.135184 255 255 255 255
-1.640388 3.381353 0.135184 255 255 255 255
-1.640388 3.381353 0.135184 255 255 255 255
-1.508968 3.391338 -0.103480 255 255 255 255
-1.512363 3.382373 -0.102433 255 255 255 255
-1.512363 3.382373 -0.102433 255 255 255 255
-1.512363 3.382373 -0.102433 255 255 255 255
-1.512363 3.382373 -0.102433 255 255 255 255
-1.519912 3.365048 -0.097888 255 255 255 255
-1.519912 3.365048 -0.097888 255 255 255 255
0.869366 -4.717168 -0.005311 255 255 255 255
-1.519912 3.365048 -0.097888 255 255 255 255
-1.484612 3.441908 -0.108079 255 255 255 255
-1.749196 3.698283 0.053902 255 255 255 255
-1.484612 3.441908 -0.108079 255 255 255 255
-0.669514 3.193421 -0.283512 255 255 255 255
-1.484612 3.441908 -0.108079 255 255 255 255
-1.484612 3.441908 -0.108079 255 255 255 255
-1.484612 3.441908 -0.108079 255 255 255 255
-0.081323 -5.234831 0.033806 255 255 255 255
1.130045 -4.157769 0.011909 255 255 255 255
-1.484612 3.441908 -0.108079 255 255 255 255
-1.484612 3.441908 -0.108079 255 255 255 255
-1.498358 4.117650 0.120685 255 255 255 255
-1.484612 3.441908 -0.108079 255 255 255 255
-1.536189 3.441864 -0.073396 255 255 255 255
-1.513425 3.445951 -0.090327 255 255 255 255
-1.536189 3.441864 -0.073396 255 255 255 255
-1.536189 3.441864 -0.073396 255 255 255 255
-1.513425 3.445951 -0.090327 255 255 255 255
-1.881237 4.694676 0.146332 255 255 255 255
-1.513425 3.445951 -0.090327 255 255 255 255
0.623249 2.749867 -0.277919 255 255 255 255
-1.517539 3.449471 -0.086876 255 255 255 255
-1.517539 3.449471 -0.086876 255 255 255 255
-1.517539 3.449471 -0.086876 255 255 255 255
-1.517539 3.449471 -0.086876 255 255 255 255
-1.517539 3.449471 -0.086876 255 255 255 255
-1.517539 3.449471 -0.086876 255 255 255 255
-1.517539 3.449471 -0.086876 255 255 255 255
-1.498358 4.117650 0.120685 255 255 255 255
-1.565189 3.514103 -0.011057 255 255 255 255
-1.565189 3.514103 -0.011057 255 255 255 255
-1.498358 4.117650 0.120685 255 255 255 255
-1.565189 3.514103 -0.011057 255 255 255 255
-1.693152 3.534933 -0.197128 255 255 255 255
-1.693152 3.534933 -0.197128 255 255 255 255
-1.693152 3.534933 -0.197128 255 255 255 255
-3.989905 -3.627509 0.211853 255 255 255 255
-1.693152 3.534933 -0.197128 255 255 255 255
-0.669514 3.193421 -0.283512 255 255 255 255
-1.576979 3.462417 0.119910 255 255 255 255
-1.576979 3.462417 0.119910 255 255 255 255
-1.576979 3.462417 0.119910 255 255 255 255
-1.749196 3.698283 0.053902 255 255 255 255
-1.749196 3.698283 0.053902 255 255 255 255
-1.332726 3.408366 -0.227413 255 255 255 255
-1.332726 3.408366 -0.227413 255 255 255 255
-0.465711 -5.285738 0.024124 255 255 255 255
0.584774 -5.066796 0.015844 255 255 255 255
-1.332726 3.408366 -0.227413 255 255 255 255
-1.332726 3.408366 -0.227413 255 255 255 255
-1.881237 4.694676 0.146332 255 255 255 255
-0.081323 -5.234831 0.033806 255 255 255 255
-1.881237 4.694676 0.146332 255 255 255 255
-1.881237 4.694676 0.146332 255 255 255 255
-1.498358 4.117650 0.120685 255 255 255 255
-1.629563 -4.547131 0.161345 255 255 255 255
-1.498358 4.117650 0.120685 255 255 255 255
1.271831 -3.873189 0.022161 255 255 255 255
-0.589213 -2.198132 0.074906 255 255 255 255
-2.460548 -4.423930 0.191821 255 255 255 255
-0.589213 -2.198132 0.074906 255 255 255 255
-0.589213 -2.198132 0.074906 255 255 255 255
-0.589213 -2.198132 0.074906 255 255 255 255
-1.018408 -2.119217 0.077325 255 255 255 255
-1.018408 -2.119217 0.077325 255 255 255 255
-1.018408 -2.119217 0.077325 255 255 255 255
-1.018408 -2.119217 0.077325 255 255 255 255
-1.018408 -2.119217 0.077325 255 255 255 255
-1.018408 -2.119217 0.077325 255 255 255 255
-1.018408 -2.119217 0.077325 255 255 255 255
1.130045 -4.157769 0.011909 255 255 255 255
-1.758965 -2.366766 0.057941 255 255 255 255
-1.758965 -2.366766 0.057941 255 255 255 255
-1.758965 -2.366766 0.057941 255 255 255 255
-1.758965 -2.366766 0.057941 255 255 255 255
-2.495812 -4.426986 0.188555 255 255 255 255
-1.758965 -2.366766 0.057941 255 255 255 255
-2.146057 -2.797049 0.098415 255 255 255 255
-2.146057 -2.797049 0.098415 255 255 255 255
-2.146057 -2.797049 0.098415 255 255 255 255
-2.146057 -2.797049 0.098415 255 255 255 255
-2.146057 -2.797049 0.098415 255 255 255 255
-2.146057 -2.797049 0.098415 255 255 255 255
-2.100579 -2.720315 0.088802 255 255 255 255
-2.100579 -2.720315 0.088802 255 255 255 255
-2.100579 -2.720315 0.088802 255 255 255 255
0.869366 -4.717168 -0.005311 255 255 255 255
-2.100579 -2.720315 0.088802 255 255 255 255
-1.446746 -4.656750 0.062120 255 255 255 255
-2.100579 -2.720315 0.088802 255 255 255 255
-2.100579 -2.720315 0.088802 255 255 255 255
-0.669514 3.193421 -0.283512 255 255 255 255
-0.669514 3.193421 -0.283512 255 255 255 255
-0.669514 3.193421 -0.283512 255 255 255 255
-0.669514 3.193421 -0.283512 255 255 255 255
-2.515883 -3.433735 0.090867 255 255 255 255
-2.515883 -3.433735 0.090867 255 255 255 255
-2.515883 -3.433735 0.090867 255 255 255 255
-2.515883 -3.433735 0.090867 255 255 255 255
-0.465711 -5.285738 0.024124 255 255 255 255
-2.515883 -3.433735 0.090867 255 255 255 255
1.271831 -3.873189 0.022161 255 255 255 255
1.271831 -3.873189 0.022161 255 255 255 255
1.271831 -3.873189 0.022161 255 255 255 255
1.130045 -4.157769 0.011909 255 255 255 255
1.271831 -3.873189 0.022161 255 255 255 255
1.271831 -3.873189 0.022161 255 255 255 255
0.869366 -4.717168 -0.005311 255 255 255 255
1.271831 -3.873189 0.022161 255 255 255 255
1.130045 -4.157769 0.011909 255 255 255 255
1.130045 -4.157769 0.011909 255 255 255 255
0.869366 -4.717168 -0.005311 255 255 255 255
0.322277 -5.130575 0.020914 255 255 255 255
0.869366 -4.717168 -0.005311 255 255 255 255
0.869366 -4.717168 -0.005311 255 255 255 255
0.322277 -5.130575 0.020914 255 255 255 255
0.869366 -4.717168 -0.005311 255 255 255 255
0.584774 -5.066796 0.015844 255 255 255 255
0.584774 -5.066796 0.015844 255 255 255 255
0.584774 -5.066796 0.015844 255 255 255 255
0.584774 -5.066796 0.015844 255 255 255 255
0.584774 -5.066796 0.015844 255 255 255 255
0.584774 -5.066796 0.015844 255 255 255 255
0.623249 2.749867 -0.277919 255 255 255 255
0.322277 -5.130575 0.020914 255 255 255 255
0.322277 -5.130575 0.020914 255 255 255 255
-0.081323 -5.234831 0.033806 255 255 255 255
0.322277 -5.130575 0.020914 255 255 255 255
0.322277 -5.130575 0.020914 255 255 255 255
0.322277 -5.130575 0.020914 255 255 255 255
-0.081323 -5.234831 0.033806 255 255 255 255
-0.081323 -5.234831 0.033806 255 255 255 255
-3.921626 -4.134570 0.207068 255 255 255 255
-0.081323 -5.234831 0.033806 255 255 255 255
-0.081323 -5.234831 0.033806 255 255 255 255
-0.465711 -5.285738 0.024124 255 255 255 255
-0.465711 -5.285738 0.024124 255 255 255 255
-0.465711 -5.285738 0.024124 255 255 255 255
-0.465711 -5.285738 0.024124 255 255 255 255
-0.465711 -5.285738 0.024124 255 255 255 255
-1.253000 -4.975945 0.055168 255 255 255 255
-1.253000 -4.975945 0.055168 255 255 255 255
-1.253000 -4.975945 0.055168 255 255 255 255
-4.098364 -3.926549 0.201645 255 255 255 255
-1.253000 -4.975945 0.055168 255 255 255 255
-1.253000 -4.975945 0.055168 255 255 255 255
-4.127588 -3.836426 0.211672 255 255 255 255
-1.253000 -4.975945 0.055168 255 255 255 255
-1.629563 -4.547131 0.161345 255 255 255 255
-1.629563 -4.547131 0.161345 255 255 255 255
-1.629563 -4.547131 0.161345 255 255 255 255
-1.629563 -4.547131 0.161345 255 255 255 255
-1.629563 -4.547131 0.161345 255 255 255 255
-1.446746 -4.656750 0.062120 255 255 255 255
-1.446746 -4.656750 0.062120 255 255 255 255
-1.446746 -4.656750 0.062120 255 255 255 255
-1.446746 -4.656750 0.062120 255 255 255 255
-1.446746 -4.656750 0.062120 255 255 255 255
-1.446746 -4.656750 0.062120 255 255 255 255
-2.460548 -4.423930 0.191821 255 255 255 255
-2.460548 -4.423930 0.191821 255 255 255 255
-2.460548 -4.423930 0.191821 255 255 255 255
-2.460548 -4.423930 0.191821 255 255 255 255
-2.460548 -4.423930 0.191821 255 255 255 255
-2.460548 -4.423930 0.191821 255 255 255 255
-2.495812 -4.426986 0.188555 255 255 255 255
-2.495812 -4.426986 0.188555 255 255 255 255
-2.495812 -4.426986 0.188555 255 255 255 255
-2.495812 -4.426986 0.188555 255 255 255 255
-2.495812 -4.426986 0.188555 255 255 255 255
-2.495812 -4.426986 0.188555 255 255 255 255
-3.333666 -3.655696 0.214200 255 255 255 255
-3.333666 -3.655696 0.214200 255 255 255 255
-3.333666 -3.655696 0.214200 255 255 255 255
-3.333666 -3.655696 0.214200 255 255 255 255
-3.333666 -3.655696 0.214200 255 255 255 255
-3.333666 -3.655696 0.214200 255 255 255 255
-2.885535 -3.766371 0.206810 255 255 255 255
-2.885535 -3.766371 0.206810 255 255 255 255
-2.885535 -3.766371 0.206810 255 255 255 255
-2.885535 -3.766371 0.206810 255 255 255 255
-2.885535 -3.766371 0.206810 255 255 255 255
-2.885535 -3.766371 0.206810 255 255 255 255
-3.989905 -3.627509 0.211853 255 255 255 255
-3.989905 -3.627509 0.211853 255 255 255 255
-3.989905 -3.627509 0.211853 255 255 255 255
-3.921626 -4.134570 0.207068 255 255 255 255
-3.989905 -3.627509 0.211853 255 255 255 255
-3.989905 -3.627509 0.211853 255 255 255 255
-3.989905 -3.627509 0.211853 255 255 255 255
-4.127588 -3.836426 0.211672 255 255 255 255
-4.127588 -3.836426 0.211672 255 255 255 255
-4.127588 -3.836426 0.211672 255 255 255 255
-4.127588 -3.836426 0.211672 255 255 255 255
-4.127588 -3.836426 0.211672 255 255 255 255
-4.127588 -3.836426 0.211672 255 255 255 255
-4.127588 -3.836426 0.211672 255 255 255 255
-4.098364 -3.926549 0.201645 255 255 255 255
-4.098364 -3.926549 0.201645 255 255 255 255
-4.098364 -3.926549 0.201645 255 255 255 255
-4.098364 -3.926549 0.201645 255 255 255 255
-3.921626 -4.134570 0.207068 255 255 255 255
-3.921626 -4.134570 0.207068 255 255 255 255
-3.921626 -4.134570 0.207068 255 255 255 255
-3.921626 -4.134570 0.207068 255 255 255 255
-3.921626 -4.134570 0.207068 255 255 255 255
-3.921626 -4.134570 0.207068 255 255 255 255
-3.312251 -4.391075 0.204281 255 255 255 255
-3.312251 -4.391075 0.204281 255 255 255 255
-3.312251 -4.391075 0.204281 255 255 255 255
-3.312251 -4.391075 0.204281 255 255 255 255
-3.312251 -4.391075 0.204281 255 255 255 255
0.623249 2.749867 -0.277919 255 255 255 255
0.623249 2.749867 -0.277919 255 255 255 255
0.623249 2.749867 -0.277919 255 255 255 255
0.623249 2.749867 -0.277919 255 255 255 255
