1062
2.603565 -2.341947 0.166197 189 189 189 189
1.755590 3.937712 -0.116466 10 10 10 10
1.389464 3.733229 0.056966 11 11 11 11
1.246218 3.735260 -0.075794 167 167 167 167
-1.192031 4.515969 -0.125575 237 237 237 237
1.734668 3.929621 -0.390567 204 204 204 204
1.836018 3.991087 -0.396997 14 14 14 14
1.603876 3.853874 -0.466196 71 71 71 71
1.373809 -0.693155 -1.226530 68 68 68 68
3.065457 -1.723154 -1.241190 172 172 172 172
1.717165 3.893761 -1.102600 28 28 28 28
-0.891847 1.594447 -0.661102 72 72 72 72
1.903038 4.029676 -0.266507 34 34 34 34
3.471851 -1.198664 -1.164022 59 59 59 59
1.253940 -2.010754 -0.389344 149 149 149 149
-1.091278 2.897767 1.189783 1 1 1 1
1.564686 3.850003 -0.639776 185 185 185 185
7.370896 -2.652625 -0.522424 219 219 219 219
1.760434 3.948299 -0.392532 166 166 166 166
0.972434 -1.545368 0.119285 135 135 135 135
-1.160783 2.069021 0.107905 146 146 146 146
1.946983 4.060973 -0.292993 90 90 90 90
1.494515 3.231558 2.555408 163 163 163 163
3.153030 -1.572523 -1.046427 180 180 180 180
3.689473 -1.804432 -0.105222 182 182 182 182
3.269765 -2.288313 0.552062 127 127 127 127
1.179648 -5.493636 0.173651 1 1 1 1
3.438025 -1.405085 -0.978318 143 143 143 143
3.125617 -2.357255 0.467760 161 161 161 161
1.637027 3.941037 -0.295355 70 70 70 70
3.497319 -1.695350 -0.333176 142 142 142 142
1.909792 3.917009 1.204375 229 229 229 229
2.093596 4.150529 0.159312 151 151 151 151
2.191594 4.209800 0.086836 96 96 96 96
3.902054 -1.059973 -1.233520 219 219 219 219
-0.846481 1.677078 -0.656995 150 150 150 150
1.255858 -1.967817 -1.208611 219 219 219 219
3.142001 -1.662091 -0.878658 58 58 58 58
1.679352 3.867126 -0.538388 54 54 54 54
1.644769 3.903029 -0.510655 215 215 215 215
3.863650 6.669596 0.583472 130 130 130 130
3.028102 1.598597 -0.134046 116 116 116 116
2.143329 4.175927 0.240622 150 150 150 150
1.647602 3.879493 -0.270650 23 23 23 23
1.600280 3.885332 -0.530310 62 62 62 62
-2.186307 4.910164 -1.027946 21 21 21 21
3.765289 -1.620657 -0.319219 157 157 157 157
2.477555 4.540533 0.284910 79 79 79 79
2.953619 1.423706 -0.087708 59 59 59 59
4.430465 0.103222 -1.302080 221 221 221 221
1.907356 1.196361 -0.698844 25 25 25 25
3.113309 -1.999869 -0.631824 6 6 6 6
-1.388376 1.389998 -0.031251 109 109 109 109
4.335685 -0.335001 -0.617836 2 2 2 2
2.156647 4.203942 -0.121435 179 179 179 179
0.833903 -6.258165 -1.218511 19 19 19 19
1.285158 -1.992050 -0.361337 20 20 20 20
4.060619 6.818162 0.709784 76 76 76 76
2.607385 -2.331765 -1.137809 70 70 70 70
2.058307 4.109988 -1.117432 141 141 141 141
3.138682 0.210896 0.460542 156 156 156 156
0.590530 1.941123 0.325215 38 38 38 38
2.073131 4.111927 -0.765467 100 100 100 100
1.614833 3.846752 -0.502542 62 62 62 62
0.667591 2.142844 2.812967 199 199 199 199
3.096997 1.313893 -0.321688 35 35 35 35
1.522560 3.798784 -0.047642 6 6 6 6
-1.348938 0.411613 -0.671436 1 1 1 1
0.461383 2.334031 0.945314 127 127 127 127
0.446777 4.737957 1.217277 230 230 230 230
2.776942 1.640318 -0.088984 173 173 173 173
3.092182 -1.814938 -0.844996 68 68 68 68
2.976075 -2.061981 -1.082459 3 3 3 3
3.200977 -1.554311 -1.265415 32 32 32 32
4.337567 -0.239926 -1.291644 151 151 151 151
3.405037 -1.812590 -0.468243 230 230 230 230
3.050817 -2.635497 -0.347192 145 145 145 145
3.453494 -1.834159 -0.633275 228 228 228 228
1.205620 -0.806613 0.327061 174 174 174 174
-2.031337 4.498460 1.075465 37 37 37 37
0.672045 0.781169 0.504660 102 102 102 102
1.336293 -0.548019 0.232300 85 85 85 85
1.530353 3.307755 2.688900 133 133 133 133
1.231028 0.823804 -1.197926 26 26 26 26
-2.098460 -0.632356 0.472125 137 137 137 137
-1.205014 1.932522 0.061580 54 54 54 54
0.417391 -1.627288 -1.192119 154 154 154 154
2.979495 -2.102325 -0.644503 2 2 2 2
0.003520 -1.078058 0.433308 174 174 174 174
4.950791 1.746028 -1.201188 118 118 118 118
-1.162356 4.478465 -0.193543 44 44 44 44
4.265434 -0.414690 -1.359019 136 136 136 136
-2.697680 3.456374 1.284183 105 105 105 105
1.079343 0.725093 0.531448 128 128 128 128
3.588008 -1.575495 -0.758801 242 242 242 242
-0.637651 1.945521 -0.804729 164 164 164 164
0.737740 -5.286313 -0.559235 95 95 95 95
-0.522885 -3.746830 -1.170263 92 92 92 92
-1.424023 1.238740 -0.119219 110 110 110 110
3.493243 -1.283402 -1.193094 64 64 64 64
-1.350790 0.764410 -1.095920 3 3 3 3
1.051073 0.928530 -0.729033 2 2 2 2
1.944625 1.101372 -0.719549 251 251 251 251
3.746807 -1.655133 0.001625 18 18 18 18
-1.508634 5.452608 1.254663 35 35 35 35
-1.297942 0.187444 -0.456398 245 245 245 245
-0.717305 3.934175 -1.119934 241 241 241 241
1.139722 3.490491 0.334031 103 103 103 103
-1.342059 0.713678 -1.142177 254 254 254 254
-1.782979 5.360233 0.866657 77 77 77 77
-1.840782 5.028015 1.141025 250 250 250 250
0.981916 3.178432 1.196182 130 130 130 130
3.559658 -1.675647 -0.818327 8 8 8 8
4.891613 1.857515 -1.244104 203 203 203 203
5.002150 5.647784 -0.655956 179 179 179 179
1.992882 4.068434 -1.028258 60 60 60 60
5.700604 5.303503 -1.220320 115 115 115 115
1.303804 3.749758 -0.029187 184 184 184 184
1.333700 -0.538051 0.192538 78 78 78 78
5.079584 1.817370 0.254079 169 169 169 169
1.759780 3.948228 -0.596384 183 183 183 183
-0.277158 1.441171 0.609897 0 0 0 0
1.794459 3.958260 -0.814365 42 42 42 42
-1.170419 4.491645 0.053385 226 226 226 226
2.982594 -2.203893 -0.597035 95 95 95 95
3.854005 -1.511131 -0.508650 132 132 132 132
-1.062250 5.271752 1.246463 236 236 236 236
1.710404 3.905058 -0.241867 16 16 16 16
1.711242 3.913141 -0.486672 196 196 196 196
1.091024 3.200646 1.267995 128 128 128 128
-0.574001 2.260150 -1.049123 155 155 155 155
3.873646 -1.321837 -0.060602 55 55 55 55
-1.216819 2.956693 -1.127220 43 43 43 43
2.156034 0.244954 0.522688 106 106 106 106
-1.179015 4.504082 0.003477 119 119 119 119
1.569173 3.808369 -0.507744 171 171 171 171
1.884474 4.023808 -0.369003 149 149 149 149
-1.693700 -0.414394 -0.506888 2 2 2 2
1.832963 -2.430064 -1.186165 127 127 127 127
5.039326 1.795324 1.154276 138 138 138 138
2.272483 4.280895 0.288446 181 181 181 181
4.649408 0.685677 2.494696 139 139 139 139
4.492596 0.671300 2.728401 118 118 118 118
2.593026 -2.398496 0.195157 82 82 82 82
3.294185 -2.403061 0.426322 61 61 61 61
-0.092075 1.019412 0.526901 252 252 252 252
-0.560394 -0.061218 -1.098565 40 40 40 40
-1.561401 0.314615 -0.984388 89 89 89 89
0.997103 1.100336 0.482612 101 101 101 101
1.567460 -1.809867 0.351656 154 154 154 154
-1.456167 1.251661 0.170150 185 185 185 185
-0.595054 0.410275 -0.835733 48 48 48 48
-0.491150 -1.043842 0.446213 252 252 252 252
1.238685 0.830277 -0.969673 61 61 61 61
1.085691 3.407641 0.832927 196 196 196 196
1.317310 3.718401 0.011923 168 168 168 168
-0.276310 2.483201 2.020015 251 251 251 251
2.399795 4.470968 -0.097766 40 40 40 40
3.736137 -1.705940 -0.214108 40 40 40 40
3.566236 -1.072960 -1.197493 79 79 79 79
-1.092298 4.399811 -0.052738 224 224 224 224
3.859337 -1.379684 -0.312679 3 3 3 3
3.483426 -1.821096 -0.579966 9 9 9 9
3.550494 -1.294579 -1.166865 78 78 78 78
3.722750 -1.713800 -0.246039 237 237 237 237
-1.243674 -0.973249 -1.301754 124 124 124 124
3.789157 2.124205 -1.222623 122 122 122 122
3.278328 -1.250505 -1.176767 57 57 57 57
4.758689 -0.120943 -0.483979 113 113 113 113
0.294170 2.398361 1.477059 242 242 242 242
2.151843 4.394577 -0.985488 153 153 153 153
-1.369552 0.261319 -1.037027 13 13 13 13
0.655891 2.253905 2.765546 163 163 163 163
0.659962 -5.336519 -0.387494 153 153 153 153
-0.613708 0.022970 -1.118535 31 31 31 31
-0.429223 0.425747 -1.137822 169 169 169 169
0.276214 3.629499 -0.733281 197 197 197 197
-1.201257 2.926079 1.322704 135 135 135 135
1.186737 -1.599711 -0.333235 2 2 2 2
1.251381 3.743897 -0.026408 66 66 66 66
-0.313150 1.460291 -1.169993 149 149 149 149
-2.131474 4.676451 1.262427 172 172 172 172
-1.280831 0.776191 -0.980093 75 75 75 75
-1.339497 0.418211 -0.797440 112 112 112 112
0.772368 -6.175062 -1.350013 137 137 137 137
1.153416 3.613611 -0.808745 158 158 158 158
0.146171 3.730731 -0.162899 146 146 146 146
1.721252 3.898190 -0.719333 176 176 176 176
5.058048 1.876047 0.068696 57 57 57 57
-2.798430 4.086656 -0.731268 170 170 170 170
0.269226 3.721524 -0.239597 109 109 109 109
5.102411 1.880757 0.070135 65 65 65 65
3.207497 1.234714 2.703119 99 99 99 99
4.685969 2.092780 2.145010 66 66 66 66
2.792178 2.665196 -1.398856 135 135 135 135
2.509615 -2.116106 0.356972 67 67 67 67
-1.462121 -0.468089 -0.511396 4 4 4 4
-1.565573 0.506118 0.492610 107 107 107 107
-0.994448 1.735945 -0.627998 102 102 102 102
-1.322947 -0.697900 -1.199997 138 138 138 138
-0.040284 -1.207501 0.403160 76 76 76 76
-1.240876 1.873989 0.010371 207 207 207 207
-0.616636 2.080446 -0.627358 27 27 27 27
2.559093 -2.281325 -0.503494 16 16 16 16
2.963904 1.277289 1.196872 113 113 113 113
4.955269 1.641874 1.483870 146 146 146 146
-0.748370 -1.171995 -1.155197 98 98 98 98
-1.217710 0.223608 -0.442324 232 232 232 232
-1.434242 1.374312 -0.120924 166 166 166 166
-0.764557 1.637447 -1.156013 250 250 250 250
4.878548 2.082024 -0.120701 9 9 9 9
3.247438 -1.744508 -0.482623 20 20 20 20
-2.686895 5.029099 -0.617205 145 145 145 145
1.461703 -0.623177 0.386159 224 224 224 224
-1.600147 5.276691 1.484004 194 194 194 194
3.518937 -1.572658 -1.037682 167 167 167 167
-0.701385 2.047902 -0.484002 239 239 239 239
3.365688 -1.225094 -1.262322 125 125 125 125
-0.725719 1.972650 -0.590153 199 199 199 199
2.995711 -2.049995 -1.048440 64 64 64 64
2.830998 -2.529073 -0.888082 24 24 24 24
2.638167 -2.355498 0.053042 43 43 43 43
3.017904 -2.136292 -0.505871 184 184 184 184
-2.890947 3.893058 -1.111305 254 254 254 254
3.285049 -1.196580 -1.264407 165 165 165 165
-1.418229 0.636175 -1.013697 96 96 96 96
1.204463 3.504411 0.372908 90 90 90 90
0.296774 3.756188 1.451261 111 111 111 111
1.672692 3.991682 -0.326271 57 57 57 57
0.950782 3.273542 1.272134 206 206 206 206
-2.007003 4.558409 1.110110 94 94 94 94
1.482443 3.820034 -0.038612 65 65 65 65
-1.301439 1.674502 -0.042109 127 127 127 127
3.772758 -1.574701 -0.109595 247 247 247 247
-1.716260 5.333261 1.069703 184 184 184 184
3.966012 -1.141520 -0.131503 32 32 32 32
2.513080 -2.370029 -1.160376 129 129 129 129
0.595467 2.030168 2.742126 4 4 4 4
-1.574670 1.155164 -0.964780 137 137 137 137
4.467852 0.542505 -1.328000 128 128 128 128
-0.579075 2.219615 -0.770934 139 139 139 139
4.426977 0.813851 1.104816 161 161 161 161
4.242813 -0.235638 0.034919 197 197 197 197
3.850512 -1.351696 -0.032335 39 39 39 39
4.669407 0.714430 1.468696 11 11 11 11
-0.925247 2.749721 0.549573 122 122 122 122
-2.537903 5.134170 1.204731 82 82 82 82
1.921914 4.117820 -0.632496 127 127 127 127
3.158443 -1.934038 -0.467958 230 230 230 230
2.795635 -2.600470 0.174478 115 115 115 115
2.919656 -2.268162 -0.718378 238 238 238 238
3.057336 -1.853004 -0.820623 222 222 222 222
3.899733 -1.253275 -0.382242 8 8 8 8
0.601337 -5.107217 -0.860118 129 129 129 129
1.207950 -1.572323 -1.125780 129 129 129 129
1.190536 -1.710790 0.241692 142 142 142 142
-1.822612 -0.320319 0.336173 145 145 145 145
-1.362479 0.400943 -0.631821 15 15 15 15
0.835486 2.943756 1.426470 123 123 123 123
4.310237 -0.326996 -0.662498 12 12 12 12
-1.273078 0.651067 -0.436314 140 140 140 140
-1.482436 -0.261935 -0.655483 8 8 8 8
4.943582 1.553966 1.498112 149 149 149 149
2.212987 -2.174071 0.162731 165 165 165 165
4.556854 0.716584 0.983360 4 4 4 4
4.664960 0.792136 1.264909 126 126 126 126
-2.220568 3.331938 1.134229 73 73 73 73
-1.811397 3.780499 1.189095 113 113 113 113
2.186541 2.203157 -0.030064 170 170 170 170
4.800731 1.989974 -1.207753 153 153 153 153
3.790480 -1.643120 0.050694 144 144 144 144
3.340767 -2.446301 0.309483 111 111 111 111
-0.300704 0.297271 -0.708551 40 40 40 40
3.817991 -1.455029 0.016855 8 8 8 8
3.455942 -1.623669 -0.907364 163 163 163 163
2.972487 -2.167535 -1.131874 34 34 34 34
-0.738023 1.638037 -1.154255 248 248 248 248
4.955801 1.841554 0.255038 168 168 168 168
3.366265 0.023267 0.516304 119 119 119 119
-3.293217 3.849380 1.279499 73 73 73 73
-2.920689 3.973112 -0.818529 142 142 142 142
2.364549 1.052598 -1.201240 4 4 4 4
-0.405520 0.596767 -1.188088 254 254 254 254
4.123713 -1.106199 -0.289532 160 160 160 160
4.018686 -1.882470 -0.363754 0 0 0 0
2.589720 -2.366673 -1.250537 248 248 248 248
0.625131 2.216981 1.527193 71 71 71 71
-2.150626 3.395365 -1.086065 225 225 225 225
2.113046 -2.309238 -1.106014 16 16 16 16
3.609247 -1.789779 -0.418404 232 232 232 232
3.476921 -1.252025 -1.176723 65 65 65 65
3.624428 -1.110357 -1.289098 59 59 59 59
1.377119 -0.254008 -0.811247 61 61 61 61
-2.653715 3.469316 -0.627629 204 204 204 204
-1.745643 0.597886 -0.662854 59 59 59 59
-0.556169 3.963470 -1.213765 184 184 184 184
-1.983603 -0.728944 0.549602 83 83 83 83
2.239668 4.242768 -0.763312 164 164 164 164
0.934149 0.959706 0.525334 136 136 136 136
4.718766 1.671646 -0.300558 6 6 6 6
-1.096215 2.660946 -1.128899 45 45 45 45
3.114128 -1.703837 -1.058353 171 171 171 171
4.704696 -0.133999 -0.460276 184 184 184 184
-1.781162 5.504262 0.874220 61 61 61 61
2.918411 -2.282208 -0.647447 16 16 16 16
5.080285 -0.390292 -1.003710 122 122 122 122
3.425860 -2.417173 0.395634 156 156 156 156
-1.302641 1.671840 0.184650 202 202 202 202
-2.903938 4.254539 -0.713876 62 62 62 62
2.010781 4.150351 -0.047907 94 94 94 94
-2.058449 4.443113 1.081084 29 29 29 29
-0.914785 2.786244 -1.135813 212 212 212 212
1.032416 -1.679018 -1.256555 224 224 224 224
5.428891 4.583434 -1.205644 199 199 199 199
1.495651 3.799116 -0.115422 42 42 42 42
-0.213958 1.541770 -2.549743 108 108 108 108
-0.323974 -4.338983 -0.689826 129 129 129 129
0.959850 0.697999 0.489349 84 84 84 84
1.822365 -3.632005 -0.616075 137 137 137 137
4.682951 5.127897 -0.718937 158 158 158 158
5.382086 4.820348 -0.713274 132 132 132 132
-1.996690 4.522338 1.057756 44 44 44 44
-2.228558 3.262639 -1.117898 251 251 251 251
1.437311 3.153612 2.554597 56 56 56 56
1.635511 -4.172854 -0.307876 150 150 150 150
0.376360 4.403694 1.228298 188 188 188 188
0.374953 4.349704 1.220106 101 101 101 101
-2.269701 -4.921395 -0.645860 240 240 240 240
-2.639585 -0.891418 0.255091 144 144 144 144
3.930635 -1.125999 -0.042090 2 2 2 2
0.258132 3.594446 -0.125664 139 139 139 139
1.955824 4.071947 -0.367087 163 163 163 163
-0.961590 1.771354 -1.013510 60 60 60 60
3.222548 -2.266042 0.338726 107 107 107 107
3.320349 -2.234382 0.292620 150 150 150 150
-2.070762 -0.594408 -0.443051 153 153 153 153
-0.562558 2.121010 -0.983169 141 141 141 141
-1.151006 -0.014269 -0.768005 138 138 138 138
1.163319 3.435552 -1.172631 208 208 208 208
1.502903 3.833803 -0.632939 55 55 55 55
3.936604 -0.710407 -1.248523 139 139 139 139
2.204503 0.436413 0.528783 126 126 126 126
3.727927 -1.677288 0.015397 133 133 133 133
1.568179 3.807358 -0.507665 183 183 183 183
0.946191 -2.072230 0.253707 104 104 104 104
3.843987 -1.305601 -0.309557 16 16 16 16
3.132522 -1.726161 -1.205310 133 133 133 133
3.887259 -1.247572 -0.183815 134 134 134 134
2.047305 0.639020 -0.712411 103 103 103 103
-1.320267 1.710194 0.025638 208 208 208 208
2.139018 0.601103 -0.721637 139 139 139 139
4.819788 1.834836 -1.199685 218 218 218 218
-2.013052 4.949103 1.119219 60 60 60 60
-1.271750 -5.150685 -0.549685 225 225 225 225
0.389154 -3.212489 -1.245597 124 124 124 124
0.769180 3.637425 -0.145485 115 115 115 115
1.352527 0.450314 -0.466625 237 237 237 237
-0.608046 -4.655928 -0.980772 208 208 208 208
-1.345723 0.266054 -0.805471 127 127 127 127
5.071851 2.352366 -0.160884 137 137 137 137
2.172296 4.180899 -0.741822 42 42 42 42
1.981447 4.091872 -1.054360 152 152 152 152
1.435262 3.795602 -0.113548 55 55 55 55
-1.421605 0.282042 -0.669972 18 18 18 18
2.159651 4.211423 -0.906801 52 52 52 52
-1.625592 0.554920 -0.301584 62 62 62 62
4.547100 0.878138 -1.266180 245 245 245 245
4.345150 0.176961 -1.134856 140 140 140 140
2.308625 4.438875 -0.030971 19 19 19 19
3.841261 -1.385437 -0.107970 210 210 210 210
1.232704 3.414249 -1.017932 147 147 147 147
-1.025924 1.863946 -0.827348 155 155 155 155
3.007417 -2.152718 -0.620852 89 89 89 89
2.988371 -2.189997 -0.614701 85 85 85 85
5.031711 2.501232 -0.434733 147 147 147 147
1.238904 -0.022401 -0.715120 67 67 67 67
0.891407 3.641221 -0.257501 118 118 118 118
2.802981 0.404516 -0.986634 70 70 70 70
2.266130 4.451918 -0.486167 105 105 105 105
3.013155 -2.144035 -0.510961 2 2 2 2
1.248612 -5.224778 0.175506 5 5 5 5
3.281387 -1.363220 -1.237546 33 33 33 33
1.068606 3.435949 -1.038561 65 65 65 65
3.422582 -1.077534 -1.241872 160 160 160 160
4.468108 6.691225 -0.916335 128 128 128 128
4.524423 0.520287 2.544532 102 102 102 102
1.443652 -3.282121 0.005853 0 0 0 0
0.274004 -3.494318 -0.679588 245 245 245 245
-1.404953 1.371485 -0.115394 55 55 55 55
2.462283 0.328873 -0.974340 83 83 83 83
3.466628 -1.200026 -1.120434 150 150 150 150
1.448761 -2.543326 -0.899860 114 114 114 114
3.311888 -1.241671 -1.261891 6 6 6 6
3.091488 -1.750870 -0.681391 152 152 152 152
-0.486905 -1.158565 -1.173745 93 93 93 93
-1.127742 4.439910 -0.039741 53 53 53 53
-1.979211 -5.246390 -1.053517 140 140 140 140
1.531011 -1.507718 0.484368 210 210 210 210
-1.104238 4.369490 -1.059300 181 181 181 181
-1.527499 -1.256420 -0.645353 172 172 172 172
-1.722516 5.315352 1.050288 110 110 110 110
-1.137607 4.449497 -0.154805 131 131 131 131
2.542371 -2.287770 -1.226902 234 234 234 234
1.464746 -0.376284 0.193884 133 133 133 133
3.680170 -1.717838 -0.265562 190 190 190 190
2.175446 4.269137 -0.355181 201 201 201 201
3.674918 -1.728872 -0.297841 222 222 222 222
-0.801176 -5.848936 -0.622120 154 154 154 154
-1.497919 -5.596592 -0.564641 147 147 147 147
2.712886 -2.387258 -0.957805 1 1 1 1
-3.262121 -2.679667 -0.280678 21 21 21 21
1.996434 -2.724986 0.280869 138 138 138 138
2.985275 -2.038301 -0.728762 75 75 75 75
2.328157 0.365631 -1.136485 38 38 38 38
4.214705 1.945150 -1.196286 235 235 235 235
-1.413504 1.352574 -0.109022 29 29 29 29
2.950014 0.523699 -1.216958 143 143 143 143
3.930086 -1.094312 -0.201667 47 47 47 47
1.657764 6.195267 0.648504 248 248 248 248
2.782506 5.378625 0.399230 11 11 11 11
2.492703 0.669633 -0.938915 148 148 148 148
4.145291 6.914179 1.140293 109 109 109 109
-0.683572 2.530724 -0.666720 26 26 26 26
3.728241 -1.670175 -0.162171 138 138 138 138
1.432506 3.140589 2.502605 88 88 88 88
3.837219 -1.361046 -0.310611 1 1 1 1
-1.664812 5.158211 1.513950 90 90 90 90
3.696516 -1.731625 -0.356187 163 163 163 163
3.107346 -1.704703 -0.725640 176 176 176 176
2.955987 -2.124128 -0.903518 9 9 9 9
3.648767 -1.306959 -0.969162 147 147 147 147
1.067920 -5.491179 0.047660 120 120 120 120
1.138512 -1.536085 -0.261931 127 127 127 127
4.193692 0.968394 0.798138 4 4 4 4
1.471092 -4.638442 -0.691129 185 185 185 185
4.351392 1.977053 -0.293641 147 147 147 147
1.893000 1.169844 -0.686419 196 196 196 196
3.634946 -1.529884 -0.317484 174 174 174 174
-1.719069 5.582450 0.764172 51 51 51 51
0.086090 -3.435261 -0.706587 136 136 136 136
-1.790039 0.279436 -0.419050 72 72 72 72
-0.264112 0.892489 0.492574 247 247 247 247
-0.725719 1.972650 -0.590153 199 199 199 199
2.096298 3.359470 -1.077613 121 121 121 121
0.390203 2.004931 -1.106845 52 52 52 52
3.757439 -1.588189 -0.110244 212 212 212 212
3.765217 -1.546214 0.032442 163 163 163 163
3.908607 -1.193144 -0.105182 43 43 43 43
3.840086 -1.315419 -0.290962 2 2 2 2
-1.154209 4.467490 -0.165336 255 255 255 255
4.555727 0.963644 -1.194657 187 187 187 187
3.172690 -1.748340 -0.421318 2 2 2 2
-1.222055 0.592526 -0.504698 81 81 81 81
-0.844668 3.588062 1.279142 215 215 215 215
-2.409179 -2.001335 -1.101513 52 52 52 52
2.998112 -2.034135 -0.913109 173 173 173 173
-1.886485 -3.742427 -0.577535 119 119 119 119
0.647989 -5.583117 -0.494343 146 146 146 146
3.322796 -2.537994 0.284326 62 62 62 62
1.840500 4.037939 -0.493026 93 93 93 93
2.599648 4.904861 -0.512139 80 80 80 80
-2.317677 3.612908 1.006403 150 150 150 150
-2.362026 3.579733 1.045599 151 151 151 151
4.396831 -2.980623 -1.954811 153 153 153 153
-2.435048 3.320620 1.252122 91 91 91 91
2.552784 1.402457 -0.691597 8 8 8 8
1.484834 3.835511 -0.115532 51 51 51 51
3.298812 -1.585889 -0.964621 158 158 158 158
2.123531 -2.597071 -0.141590 137 137 137 137
0.866342 -1.631764 0.373857 151 151 151 151
3.076135 -1.786265 -0.734100 141 141 141 141
-0.523608 -1.132157 -1.160558 168 168 168 168
2.150098 4.233161 0.031312 140 140 140 140
-1.590753 0.577680 0.444501 60 60 60 60
1.464512 -0.480631 0.226652 131 131 131 131
3.335246 -1.675899 -0.525252 219 219 219 219
-2.364081 3.522370 1.121108 138 138 138 138
-1.168067 1.650143 -0.609521 96 96 96 96
0.576739 -4.510358 0.642679 112 112 112 112
2.993338 -2.090282 -0.642177 160 160 160 160
3.300153 -2.524291 0.311069 155 155 155 155
3.092117 -1.546492 -1.236142 198 198 198 198
-1.712403 5.550545 -1.035049 11 11 11 11
-1.398038 1.388080 0.166688 129 129 129 129
6.944796 -0.107670 2.527880 166 166 166 166
3.454739 1.221014 0.700223 128 128 128 128
-1.175175 4.491621 -0.209972 81 81 81 81
3.740300 -1.612381 -0.222713 205 205 205 205
-2.721154 4.432852 -0.738453 69 69 69 69
2.595011 2.658919 1.190078 188 188 188 188
3.381314 -2.772284 0.312061 82 82 82 82
3.048227 -1.893532 -0.687478 227 227 227 227
0.924831 2.119834 2.737037 152 152 152 152
-1.428431 1.325341 -0.122789 70 70 70 70
-0.454663 -5.941117 -0.367352 145 145 145 145
2.505973 -2.269205 -0.349305 9 9 9 9
1.052540 3.651659 0.430177 120 120 120 120
3.128498 -1.705402 -0.998750 122 122 122 122
-1.159750 4.480180 -0.171952 68 68 68 68
-1.164532 4.417325 -0.945333 95 95 95 95
-0.849347 2.068656 -0.673175 86 86 86 86
3.884274 -1.215460 -0.054110 30 30 30 30
-1.168569 1.655343 -0.611556 117 117 117 117
0.685013 -5.421257 -1.072101 243 243 243 243
3.096556 -1.609496 -0.897682 150 150 150 150
3.366861 0.090685 0.485706 251 251 251 251
-2.201083 3.194164 0.209539 31 31 31 31
3.190842 -0.110485 0.400982 114 114 114 114
3.583427 -1.786072 -0.374960 127 127 127 127
-1.309308 -5.573719 -0.600524 105 105 105 105
-1.665904 -0.383246 -0.527396 246 246 246 246
-1.151042 2.091540 0.003110 228 228 228 228
-1.382462 1.470752 -0.117600 61 61 61 61
3.574487 -1.757253 -0.822321 58 58 58 58
-2.201669 3.951991 1.134983 123 123 123 123
2.082450 4.271670 -1.026009 152 152 152 152
4.238844 1.180840 0.678247 140 140 140 140
3.922061 -1.142772 -0.303927 11 11 11 11
2.903242 -2.125915 -0.907993 186 186 186 186
4.940240 1.918828 0.251833 155 155 155 155
1.795698 3.971130 -0.608264 66 66 66 66
-1.518348 0.415233 -0.687904 5 5 5 5
1.228519 -0.039520 -0.709231 253 253 253 253
-0.273712 3.784600 1.212162 94 94 94 94
-2.041854 -0.445827 0.314216 93 93 93 93
-0.571768 3.841646 0.408797 123 123 123 123
-1.681737 5.355833 0.889686 214 214 214 214
1.112517 0.467323 -0.733630 234 234 234 234
1.685773 3.926409 -0.355531 76 76 76 76
-1.467932 5.835081 1.088268 222 222 222 222
3.045738 5.217562 -1.177266 135 135 135 135
3.055674 -1.723412 -1.078910 10 10 10 10
4.316782 -2.633096 1.198618 104 104 104 104
-2.337598 -1.938298 -1.155197 153 153 153 153
4.640527 0.746452 2.657490 2 2 2 2
-0.919401 2.763245 -0.428161 183 183 183 183
4.416396 -0.223370 0.017455 173 173 173 173
6.473582 0.060744 -0.101543 130 130 130 130
-1.243899 4.457901 -0.967109 166 166 166 166
-2.617180 4.714353 -0.624242 110 110 110 110
0.803899 3.020850 1.488312 211 211 211 211
6.071009 -3.668433 2.317560 186 186 186 186
0.607499 -2.010404 -0.980349 218 218 218 218
2.992360 -1.966799 -0.772908 97 97 97 97
0.213669 3.644797 -0.721123 154 154 154 154
2.010943 -3.339566 -0.020088 85 85 85 85
-1.446113 1.263547 -0.119601 41 41 41 41
-1.289473 1.695767 -0.137869 249 249 249 249
-1.231655 -1.673916 -1.130186 3 3 3 3
-3.330150 -3.160503 -1.031078 125 125 125 125
1.370900 -0.004148 -0.839341 30 30 30 30
1.284069 -0.607418 -1.152484 24 24 24 24
2.056483 -2.349155 -1.234809 9 9 9 9
4.957009 1.810572 -1.152867 123 123 123 123
0.014992 -6.067156 -0.683709 151 151 151 151
0.241436 3.639477 -0.734070 207 207 207 207
-0.438809 -1.037831 0.431268 175 175 175 175
0.078140 -1.163574 -1.207768 125 125 125 125
1.107560 -0.972027 -1.220665 114 114 114 114
1.049352 -1.647568 0.399663 85 85 85 85
-0.757690 -1.189936 0.446830 57 57 57 57
-2.424487 3.749623 1.400624 106 106 106 106
-2.256342 3.713549 -0.276237 121 121 121 121
-0.564109 3.996237 0.041180 61 61 61 61
0.954024 -5.749492 -1.219168 129 129 129 129
1.024733 6.245157 1.179666 195 195 195 195
3.180813 -1.996859 -0.387363 191 191 191 191
0.612020 -1.456661 -1.150576 200 200 200 200
2.012292 -2.314984 -1.280041 133 133 133 133
2.954084 -2.074310 -1.044838 204 204 204 204
2.081908 -2.428599 -1.196319 14 14 14 14
-0.963061 -5.729723 -0.762220 160 160 160 160
2.010943 -3.339566 -0.020088 85 85 85 85
0.267052 -3.456494 -0.607500 247 247 247 247
2.140920 -2.386520 -0.836530 121 121 121 121
-2.624203 5.446089 1.021350 61 61 61 61
-3.315992 -2.708450 -0.453433 1 1 1 1
1.647588 -4.166146 -0.382859 146 146 146 146
4.278633 -2.926456 -1.804251 149 149 149 149
1.555666 -4.465251 -0.208413 145 145 145 145
-0.914824 -5.792597 -0.680593 143 143 143 143
-2.848316 -1.809281 -0.651533 164 164 164 164
1.458632 3.306380 1.247632 133 133 133 133
-1.838703 5.462727 0.726246 14 14 14 14
2.916974 -2.237122 -0.348447 124 124 124 124
1.627470 -2.384003 -1.133356 106 106 106 106
0.253080 3.672947 2.265150 99 99 99 99
-1.699574 3.380656 -0.046542 149 149 149 149
-1.645633 5.549248 1.056512 78 78 78 78
-1.594098 5.491589 1.188931 84 84 84 84
0.641414 2.187161 1.356976 40 40 40 40
4.260693 2.278284 2.336144 158 158 158 158
3.225188 -1.789572 -0.640138 38 38 38 38
-0.644663 -0.975792 0.413514 20 20 20 20
0.901612 3.531594 -1.120057 91 91 91 91
-1.690557 3.080337 -0.358278 48 48 48 48
-1.880576 5.374297 -1.047051 229 229 229 229
-1.219975 4.538764 -0.269249 191 191 191 191
-0.556958 0.044812 -1.202719 230 230 230 230
-0.226580 3.870794 2.517783 103 103 103 103
-0.297827 3.788754 0.072264 112 112 112 112
3.517695 -2.345790 0.469963 26 26 26 26
-1.755630 5.430576 0.403409 156 156 156 156
-1.872645 5.480472 0.376645 91 91 91 91
0.286937 3.618486 -0.707438 2 2 2 2
1.439324 -1.671430 -1.144133 152 152 152 152
-1.748968 3.392571 -0.029285 23 23 23 23
0.310155 -0.907660 -1.195641 138 138 138 138
-1.404038 5.164698 1.248530 117 117 117 117
0.542310 2.204667 1.539578 144 144 144 144
0.602124 2.261548 1.272761 114 114 114 114
-0.023579 1.245960 0.551937 150 150 150 150
-2.246371 -2.170043 -0.796549 0 0 0 0
-2.649840 4.526900 -0.677593 209 209 209 209
-1.602650 5.553015 0.942166 69 69 69 69
-3.282716 3.641937 1.414166 99 99 99 99
3.101743 -1.734873 -0.831111 93 93 93 93
0.461877 2.264874 0.523197 116 116 116 116
0.339081 2.432767 0.358823 118 118 118 118
2.385884 3.767971 -1.071608 9 9 9 9
-0.781764 3.888377 0.854293 134 134 134 134
-1.104389 4.411108 -0.207115 253 253 253 253
1.027378 3.571893 -1.135921 70 70 70 70
-1.710417 3.079752 -0.355694 172 172 172 172
0.474624 2.188861 2.686750 163 163 163 163
0.448763 2.076143 2.701430 146 146 146 146
0.570363 2.222879 1.566573 108 108 108 108
-2.711279 4.458548 -0.728685 219 219 219 219
-2.646792 4.680630 -0.608649 97 97 97 97
-2.510472 5.037700 -1.033816 63 63 63 63
-1.611324 5.309871 -0.853623 194 194 194 194
-1.136549 4.454852 -0.113335 46 46 46 46
-1.183402 4.502689 -0.191522 206 206 206 206
-1.728509 5.618411 0.927780 70 70 70 70
-1.507142 5.257084 0.112789 113 113 113 113
-2.200285 4.011889 1.297876 143 143 143 143
-1.156184 4.472878 -0.009354 216 216 216 216
-1.278357 4.642113 -0.153529 111 111 111 111
1.058212 3.439031 -0.956966 212 212 212 212
0.692642 1.846221 -0.446836 4 4 4 4
1.758220 0.716051 0.479946 230 230 230 230
-1.411531 5.251879 1.245639 180 180 180 180
3.533538 0.680988 0.417650 74 74 74 74
-1.459160 5.025826 1.273164 114 114 114 114
-3.527056 -4.931445 0.198905 2 2 2 2
0.876167 3.059950 1.526266 189 189 189 189
0.582593 2.135851 1.443528 56 56 56 56
-2.550339 5.064938 -0.650349 146 146 146 146
-1.116197 4.421045 0.048841 250 250 250 250
-1.015347 5.187390 1.229854 161 161 161 161
-1.607605 5.556227 1.637293 89 89 89 89
-1.268782 4.644095 -0.078477 112 112 112 112
1.008115 3.508687 -0.893006 38 38 38 38
3.101261 2.369126 -1.175375 124 124 124 124
0.226255 3.658163 -1.048218 101 101 101 101
-2.246224 3.597092 1.091184 112 112 112 112
-1.811689 4.839687 1.082805 6 6 6 6
-1.997362 4.556449 1.136040 136 136 136 136
-1.587174 5.434357 0.938522 41 41 41 41
-0.016088 4.492350 1.200849 171 171 171 171
0.375680 4.402155 1.275163 110 110 110 110
0.418203 2.325488 -1.117838 199 199 199 199
-0.648309 2.567791 1.496877 138 138 138 138
-1.587700 5.308556 -0.619732 154 154 154 154
4.496426 0.909850 1.140064 14 14 14 14
-2.443224 3.450775 1.114244 120 120 120 120
-1.180635 4.499517 -0.127500 224 224 224 224
-1.795105 5.415181 0.791036 38 38 38 38
-1.684771 3.050815 0.183198 144 144 144 144
-2.568152 3.451938 1.181289 134 134 134 134
-2.270441 5.547236 -0.132458 116 116 116 116
0.978652 1.613474 -0.447140 170 170 170 170
-1.092637 4.399801 -0.052627 209 209 209 209
4.430950 1.966460 0.263527 149 149 149 149
4.199069 0.890825 0.912944 207 207 207 207
1.547704 1.787863 1.568729 149 149 149 149
-1.594724 5.366359 -0.335040 155 155 155 155
-0.057151 2.462122 2.786931 115 115 115 115
-1.746011 3.437069 -0.002377 175 175 175 175
-1.068553 2.915669 1.625997 102 102 102 102
-1.730529 3.414887 0.019186 73 73 73 73
-1.768844 3.362194 -0.037390 131 131 131 131
-1.745287 3.415939 0.014031 107 107 107 107
-1.754199 3.381927 -0.033370 43 43 43 43
-1.954642 4.446932 1.037611 122 122 122 122
-2.728972 5.602668 1.143893 123 123 123 123
-1.199814 4.521737 -0.175876 49 49 49 49
-1.900069 5.404087 -1.046190 54 54 54 54
-1.209870 4.536915 -0.049561 222 222 222 222
-1.145094 4.401579 -0.919920 87 87 87 87
-1.564946 3.479040 0.017742 119 119 119 119
5.180701 1.823190 2.234456 124 124 124 124
-1.110131 4.379625 -0.103694 46 46 46 46
-1.348625 5.064076 1.336882 114 114 114 114
-1.140908 4.304092 -0.997522 63 63 63 63
-1.917520 4.928921 1.405939 18 18 18 18
0.218889 2.243825 2.547601 117 117 117 117
-2.382051 3.355225 1.119825 162 162 162 162
-1.691167 3.092604 -0.342749 169 169 169 169
-0.576325 3.964831 0.502409 157 157 157 157
0.665600 1.893077 2.678005 97 97 97 97
-1.107293 4.418294 0.041309 40 40 40 40
-1.746904 3.433379 -0.020545 117 117 117 117
-1.486229 5.050592 -0.383414 165 165 165 165
-1.309917 4.577306 -0.039180 102 102 102 102
-1.472656 4.949681 -0.652522 175 175 175 175
-1.873630 4.497123 1.113077 0 0 0 0
-1.633845 5.529304 -0.790630 99 99 99 99
-2.863670 4.391629 0.216933 108 108 108 108
2.187546 -2.504649 -0.708403 156 156 156 156
-1.090774 4.389595 -0.966369 186 186 186 186
-1.631235 5.571864 0.004557 7 7 7 7
-0.713641 3.912880 -0.935614 130 130 130 130
-0.762838 4.188383 -1.137621 100 100 100 100
-1.708065 3.071238 -0.235691 143 143 143 143
-1.660125 4.831336 1.363313 151 151 151 151
-1.740018 5.308678 1.072824 107 107 107 107
-1.955141 3.909627 0.739526 161 161 161 161
-1.713678 3.096328 -0.286006 162 162 162 162
-1.705778 3.075529 -0.409168 158 158 158 158
-2.193703 4.052270 1.141055 91 91 91 91
-2.120744 4.084780 1.096876 131 131 131 131
-2.231980 3.839222 1.115486 113 113 113 113
-2.289810 3.826317 1.071807 152 152 152 152
-0.303806 3.865896 -0.227785 60 60 60 60
-3.061759 -2.451523 -1.038529 152 152 152 152
-2.353214 3.661925 1.072828 154 154 154 154
0.093325 4.608297 1.255437 182 182 182 182
-1.161840 4.482642 0.060575 75 75 75 75
-1.117736 4.413231 -0.173616 83 83 83 83
-1.126315 4.425340 -0.193513 53 53 53 53
-1.198850 4.557820 -0.192951 222 222 222 222
-1.818025 5.417838 -0.915123 24 24 24 24
-1.259354 4.596505 -0.124474 243 243 243 243
-0.473394 3.990444 0.520841 155 155 155 155
-1.140581 4.455173 -0.028093 53 53 53 53
-1.176067 4.341493 -0.181845 39 39 39 39
-1.283828 4.634133 -0.189621 26 26 26 26
-3.221392 -2.640876 -0.485779 170 170 170 170
-1.172724 4.477782 -0.175582 238 238 238 238
-1.987344 5.711487 -1.016825 6 6 6 6
0.941430 3.452616 -0.183123 187 187 187 187
3.309348 -1.205563 -0.462477 85 85 85 85
4.243278 1.742274 -1.036509 131 131 131 131
0.975621 3.399167 -1.081607 103 103 103 103
0.676720 1.770230 -0.969843 147 147 147 147
1.786604 1.788988 2.743718 84 84 84 84
-0.851290 2.667614 1.494824 149 149 149 149
-1.348348 3.001790 1.154562 81 81 81 81
-0.596279 2.603787 1.144171 114 114 114 114
-0.878360 2.778864 0.531201 204 204 204 204
-1.064409 2.888868 1.278425 130 130 130 130
1.303342 -5.236139 0.232257 111 111 111 111
-2.456989 3.386532 1.076551 139 139 139 139
3.764105 -1.584851 0.125365 146 146 146 146
-3.683917 -3.226181 -1.014537 194 194 194 194
-2.413167 3.357085 1.193221 111 111 111 111
-1.697800 3.416720 -0.013306 182 182 182 182
-1.775103 3.440575 -0.013225 139 139 139 139
-1.713389 3.427885 -0.006329 117 117 117 117
-1.246775 4.552900 0.055852 85 85 85 85
-1.776539 3.437856 -0.019019 88 88 88 88
-0.653605 3.939015 0.158723 133 133 133 133
-4.348387 -3.977233 0.683849 100 100 100 100
-1.274403 4.601379 -0.099730 226 226 226 226
-2.484833 3.756584 1.324803 95 95 95 95
-1.418836 5.731602 0.855208 30 30 30 30
-0.428893 -5.930168 -0.360678 109 109 109 109
-0.686724 3.943633 0.456008 203 203 203 203
-2.353778 3.707423 1.309552 108 108 108 108
-2.802814 4.117198 -0.718504 175 175 175 175
-1.556049 -3.696200 0.940138 89 89 89 89
-1.458932 5.847459 0.835051 177 177 177 177
-1.207492 4.540832 -0.687335 204 204 204 204
0.702672 1.959511 2.414531 140 140 140 140
-1.459558 4.996085 -0.097621 172 172 172 172
0.139942 3.649960 -1.220470 123 123 123 123
-1.703621 3.093027 -0.351816 29 29 29 29
-1.694620 3.114906 -0.272267 65 65 65 65
3.336848 -2.110312 -0.456873 1 1 1 1
-1.696809 3.058511 -0.379999 197 197 197 197
-2.691707 -3.781145 1.370470 127 127 127 127
-1.800850 3.918989 0.528362 126 126 126 126
-1.756967 4.902385 1.438096 54 54 54 54
-2.066871 4.287189 1.061187 93 93 93 93
14.255825 -4.382101 -9.763253 0 0 0 0
-3.552789 -4.877085 0.001216 66 66 66 66
-1.222071 4.550467 -0.100747 84 84 84 84
-2.989209 -2.241763 -1.061554 112 112 112 112
0.643737 1.873586 2.625420 170 170 170 170
-0.915362 2.837864 -1.075821 148 148 148 148
-1.698000 3.005164 0.188512 111 111 111 111
-4.009011 -3.463863 0.994652 105 105 105 105
0.012824 3.708216 -0.699277 166 166 166 166
-3.756762 -4.833942 0.197061 36 36 36 36
2.073824 -2.653681 0.320215 140 140 140 140
-3.655774 -4.838136 0.220098 107 107 107 107
-1.718056 5.510851 0.518686 86 86 86 86
-1.714276 5.326355 -0.898351 34 34 34 34
0.725043 -5.454600 -0.504935 126 126 126 126
-1.182284 4.431386 -0.991956 149 149 149 149
-2.222369 4.044903 1.145606 71 71 71 71
3.198179 -1.713180 -0.571833 8 8 8 8
-1.649750 3.704280 0.194600 182 182 182 182
-1.106424 4.468767 0.035041 69 69 69 69
-1.126315 4.425340 -0.193513 53 53 53 53
-0.667129 3.959418 0.390859 62 62 62 62
-1.102034 4.412957 -0.130419 226 226 226 226
-1.255358 4.608019 -0.111574 247 247 247 247
3.975988 1.063402 0.461407 186 186 186 186
-2.368164 3.368003 1.039981 104 104 104 104
-1.718851 3.087767 -0.422040 138 138 138 138
-1.281352 4.480759 0.484652 0 0 0 0
-0.709064 3.895534 0.308534 114 114 114 114
-1.856974 5.463344 -0.483065 21 21 21 21
-1.587763 5.311513 -0.491268 153 153 153 153
-2.556740 5.102832 -1.048473 48 48 48 48
-1.397937 5.447256 0.745897 195 195 195 195
-1.606397 5.312607 -0.826293 69 69 69 69
-1.399858 5.747978 0.915293 205 205 205 205
-1.771942 5.297130 1.065773 151 151 151 151
-2.335490 3.605836 1.087517 104 104 104 104
-1.224646 4.575948 -0.713111 216 216 216 216
-1.130658 4.348777 -1.036269 67 67 67 67
-0.517198 3.846552 -1.106778 142 142 142 142
2.448042 -5.757108 -0.598665 178 178 178 178
-2.183770 3.899694 1.117449 170 170 170 170
-1.114708 4.425804 -0.105191 250 250 250 250
-1.440405 4.995690 0.045793 103 103 103 103
1.240702 -1.989101 -1.088690 36 36 36 36
-2.640212 4.525563 -0.672354 232 232 232 232
-1.508190 5.105748 0.023087 154 154 154 154
-1.290360 5.466777 0.872740 50 50 50 50
-1.508140 5.130670 -0.077324 84 84 84 84
1.496431 3.354364 1.185445 143 143 143 143
0.892982 3.625380 0.692554 122 122 122 122
-3.349219 -4.949105 0.207518 2 2 2 2
1.058272 3.427912 -0.590175 130 130 130 130
0.572041 2.228910 2.536955 52 52 52 52
0.429844 2.140576 2.654860 63 63 63 63
0.625744 2.085426 2.554384 130 130 130 130
0.021814 -1.856639 -0.919414 151 151 151 151
1.035224 3.414497 0.116617 52 52 52 52
0.616564 2.202512 2.862831 120 120 120 120
-2.487978 5.219876 -0.930600 116 116 116 116
0.966147 2.962330 1.221407 108 108 108 108
-1.229751 4.564453 -0.135033 79 79 79 79
-1.121624 4.429474 0.038131 40 40 40 40
-1.494037 5.018314 1.254614 150 150 150 150
-1.044388 5.872324 1.213650 126 126 126 126
-1.497725 -5.547952 -0.576955 169 169 169 169
1.051663 -5.253628 0.902363 174 174 174 174
-1.725772 5.329031 0.698052 74 74 74 74
-1.110817 4.420166 -0.124216 35 35 35 35
0.382197 -1.938921 -0.914917 131 131 131 131
2.184206 -2.413594 -0.830675 114 114 114 114
-2.950616 4.262384 2.958982 110 110 110 110
-1.625004 5.254306 -0.996020 35 35 35 35
-1.411833 4.881856 -0.179531 104 104 104 104
-1.615038 5.554750 -0.555961 79 79 79 79
-1.742329 5.343642 -1.006423 159 159 159 159
-1.750359 5.449361 -0.905602 168 168 168 168
0.210834 2.414483 0.526414 190 190 190 190
6.292227 0.997501 1.824682 136 136 136 136
-3.735771 -4.887975 0.170684 159 159 159 159
-3.096202 -3.429511 -1.139220 93 93 93 93
-1.448737 -5.525040 -1.120139 10 10 10 10
3.713394 -1.314773 -1.144633 182 182 182 182
3.694776 -1.426275 -0.890459 181 181 181 181
-1.807219 5.236366 1.085567 148 148 148 148
-1.687749 5.138753 1.449596 147 147 147 147
-1.418836 5.731602 0.855208 30 30 30 30
-1.905380 -1.200374 -0.956326 15 15 15 15
-0.267738 -5.989357 -0.277426 145 145 145 145
1.035049 3.539103 -0.576769 86 86 86 86
-2.605373 5.005011 -0.617027 99 99 99 99
-2.455572 5.476904 -1.039239 66 66 66 66
-1.147733 4.463691 -0.185615 36 36 36 36
2.947555 1.391061 -1.116803 131 131 131 131
-1.454295 5.052028 0.634551 63 63 63 63
2.250323 -2.597691 -0.464504 137 137 137 137
-0.062240 -6.053155 -0.035735 149 149 149 149
0.639371 2.127737 1.550786 29 29 29 29
2.297363 -2.356748 -0.768928 151 151 151 151
-2.035948 3.242625 0.131985 28 28 28 28
-0.227500 -1.932455 -1.146355 2 2 2 2
0.930126 3.272571 1.334224 129 129 129 129
0.457269 -2.072297 -0.987504 180 180 180 180
-2.670960 4.435235 -0.666429 172 172 172 172
1.501294 -4.657170 -0.706019 152 152 152 152
-1.150634 4.465035 -0.127797 28 28 28 28
-28.257642 -72.984943 -48.685300 137 137 137 137
0.574039 -3.095910 0.492563 105 105 105 105
0.461794 -2.055365 -0.809732 191 191 191 191
-1.706010 -5.398239 -0.696314 42 42 42 42
1.735973 0.188569 -1.128153 246 246 246 246
-1.835658 -2.228835 0.566846 250 250 250 250
-3.029701 -3.387086 -1.181654 166 166 166 166
-4.112502 -3.431495 0.987493 102 102 102 102
-3.591648 -4.852830 0.102694 219 219 219 219
1.694806 -4.011439 -0.408926 142 142 142 142
-3.820824 -4.847363 0.183823 106 106 106 106
-0.988910 -3.356084 -0.800763 129 129 129 129
-3.690540 -4.827659 0.086751 140 140 140 140
1.408702 -4.864339 0.920977 142 142 142 142
19.959396 -5.171789 -14.553723 190 190 190 190
-0.513849 -4.805525 -0.416008 118 118 118 118
0.877555 -6.455918 -0.832777 155 155 155 155
-2.148684 -0.974167 -0.816705 88 88 88 88
-2.284965 -2.585185 -0.983753 253 253 253 253
1.989181 -2.301440 0.049578 148 148 148 148
2.134206 -2.470714 -0.779800 129 129 129 129
-1.702414 -5.405233 -0.765057 116 116 116 116
1.659387 -4.148252 -0.250410 138 138 138 138
2.118077 -2.345803 0.093949 160 160 160 160
-0.302378 -2.786684 -0.250851 137 137 137 137
-2.241866 -0.882801 -0.774005 149 149 149 149
2.055859 -2.296830 -1.046588 208 208 208 208
1.321046 -1.937909 -1.228440 134 134 134 134
-0.067043 -6.056870 -0.043299 46 46 46 46
-4.245729 -3.403288 0.965349 84 84 84 84
17.765835 36.773692 -20.453738 155 155 155 155
-2.026750 -4.852054 -0.724018 31 31 31 31
1.678570 -3.827758 -0.056867 134 134 134 134
-2.060257 -4.827411 -0.688192 197 197 197 197
-0.641973 -4.433752 -0.936674 88 88 88 88
-2.081004 -4.858070 -0.676878 27 27 27 27
-3.070392 -3.431495 -1.034771 148 148 148 148
-3.058734 -3.347057 -0.994475 181 181 181 181
-3.443658 -3.172925 0.152651 140 140 140 140
1.529608 -4.445076 -0.204749 159 159 159 159
-0.049888 -1.929533 -0.735113 29 29 29 29
0.142682 -2.395872 -1.207597 11 11 11 11
-1.527850 -3.561563 -1.112996 197 197 197 197
-1.061530 -3.397580 -0.972137 231 231 231 231
-4.139502 -3.049238 0.937961 129 129 129 129
0.129569 -2.887498 -1.076577 119 119 119 119
-2.419581 -1.031975 -1.088481 180 180 180 180
4.916034 1.517962 2.677818 17 17 17 17
-3.925989 -4.772633 0.188279 152 152 152 152
-3.835719 -4.773869 0.182966 159 159 159 159
2.561499 3.296490 1.165214 0 0 0 0
-0.137464 -1.758722 -0.886169 122 122 122 122
0.792363 -4.123083 -1.229358 150 150 150 150
-0.104470 -2.328097 -1.182714 10 10 10 10
-0.475775 -1.657036 -0.683879 164 164 164 164
-1.097853 -5.149329 -1.194424 27 27 27 27
5.042363 2.618277 -0.680445 152 152 152 152
-3.682412 -4.830257 0.211946 163 163 163 163
-3.737044 -4.808355 0.193513 50 50 50 50
-0.592033 -5.864999 -0.209251 22 22 22 22
-0.450667 -5.920184 -0.357274 149 149 149 149
-3.168756 -2.629228 -1.144968 44 44 44 44
-3.739233 -3.583938 0.947861 99 99 99 99
1.837062 0.208447 -1.150926 167 167 167 167
0.872302 -6.430204 0.927170 96 96 96 96
-1.413511 -5.544986 -0.629950 184 184 184 184
-3.670213 -4.828348 0.042862 81 81 81 81
-0.444044 -2.673227 0.545521 226 226 226 226
-0.332136 -4.244902 -0.762025 228 228 228 228
-1.294403 -1.614368 -1.157417 250 250 250 250
0.513541 -2.045721 -0.958020 206 206 206 206
-0.794259 -4.402506 -0.786256 205 205 205 205
-2.547804 -6.050254 0.938624 196 196 196 196
-2.032667 -5.210154 0.937378 55 55 55 55
-3.511328 -4.878601 0.206284 15 15 15 15
3.313227 0.709231 -1.234466 154 154 154 154
2.342825 -2.482348 -0.170771 133 133 133 133
-4.485195 -3.988090 0.783340 166 166 166 166
-4.432551 -4.096094 0.889148 133 133 133 133
0.250696 -3.420268 -0.842052 128 128 128 128
0.553087 -2.040951 -1.156969 218 218 218 218
-0.870970 -4.825993 -1.216206 167 167 167 167
0.703304 -1.963306 -0.921815 124 124 124 124
-1.700966 -5.308682 0.921272 82 82 82 82
-2.210572 -4.760765 -0.683726 224 224 224 224
2.158522 -2.668840 -0.342535 52 52 52 52
2.132079 -2.330397 -0.533373 182 182 182 182
-1.870195 -1.232223 -1.118603 239 239 239 239
-0.035818 -2.369465 -0.778165 226 226 226 226
-1.340724 -3.876387 0.546653 173 173 173 173
1.679948 -4.076552 -0.359325 65 65 65 65
0.877552 -4.667716 0.876803 109 109 109 109
-0.453189 -5.924104 -0.252924 5 5 5 5
-0.355868 -5.955348 -0.348963 92 92 92 92
2.852508 0.516958 -0.801932 43 43 43 43
0.003241 -6.062382 -0.742537 3 3 3 3
-4.683831 -4.448144 0.972645 79 79 79 79
-3.715780 -4.809485 0.068102 163 163 163 163
-4.585066 -4.006898 0.728795 99 99 99 99
4.316228 2.168684 -1.245262 232 232 232 232
-0.122866 -4.375392 -0.752612 4 4 4 4
1.453710 -4.682699 -0.688467 189 189 189 189
2.160799 -2.708129 0.315787 137 137 137 137
-0.604748 -5.869882 -0.206592 6 6 6 6
-3.061381 -3.285319 0.176707 151 151 151 151
-3.802326 -4.785497 0.185217 77 77 77 77
1.390856 -4.929779 0.892155 88 88 88 88
-4.891672 -3.500660 0.956918 115 115 115 115
0.933538 -3.215097 0.504786 225 225 225 225
1.535796 -4.465919 0.461117 155 155 155 155
-3.404105 -3.723060 0.986525 105 105 105 105
-3.248471 -2.703301 -0.477225 13 13 13 13
-0.052195 -1.918557 -1.090735 3 3 3 3
0.712320 -5.439290 -0.473993 198 198 198 198
1.630679 -4.223082 -0.398639 142 142 142 142
1.319776 -4.671088 0.573952 135 135 135 135
1.469496 -4.699905 0.392872 114 114 114 114
-2.873611 -2.529583 -0.701758 20 20 20 20
4.186599 -0.033330 0.030968 76 76 76 76
-0.358558 -1.806991 -0.905500 72 72 72 72
-4.626911 -4.090110 1.019124 137 137 137 137
1.662555 -4.131303 -0.334751 57 57 57 57
1.185488 -5.724212 0.858623 147 147 147 147
-2.227351 -1.057007 -0.844285 111 111 111 111
-3.488424 -4.894260 0.144672 20 20 20 20
-0.577847 -4.065915 -0.755999 184 184 184 184
1.588309 -4.368514 -0.221212 155 155 155 155
4.007183 -1.391149 -0.389600 203 203 203 203
-2.057421 -4.566362 0.952482 98 98 98 98
-3.605969 -4.851258 0.193583 155 155 155 155
-3.466390 -4.903840 0.231804 134 134 134 134
-3.604833 -4.849631 0.157486 229 229 229 229
0.677808 -5.060604 0.904805 113 113 113 113
12.064455 -7.543711 -11.059455 0 0 0 0
-0.512921 -4.796314 0.916608 209 209 209 209
-2.485690 -5.153907 -0.820702 198 198 198 198
0.944598 -5.474553 -1.014591 91 91 91 91
-2.413353 -5.050599 -0.818263 146 146 146 146
-2.505622 -5.207354 -1.035558 32 32 32 32
-1.085102 -5.022496 -0.872592 131 131 131 131
-1.493221 -3.545357 -0.912076 59 59 59 59
-4.303781 -3.653834 0.655446 95 95 95 95
-3.783668 -4.805155 0.162688 62 62 62 62
-4.498735 -3.907309 0.101061 127 127 127 127
2.562812 -2.568855 -0.493751 60 60 60 60
-0.978295 -2.971151 -0.872399 148 148 148 148
1.836079 -4.670466 0.463443 121 121 121 121
-1.871594 -3.132926 -0.782663 4 4 4 4
-1.440946 -3.926037 0.886767 104 104 104 104
-2.447219 -5.020143 -0.856783 2 2 2 2
-3.727383 -4.812129 0.174051 169 169 169 169
-4.299813 -3.644794 0.651345 184 184 184 184
-4.303520 -3.654375 0.654599 51 51 51 51
-2.148006 -4.529286 0.919470 83 83 83 83
3.588737 -1.459596 -0.942457 40 40 40 40
2.383716 -2.304242 0.106428 155 155 155 155
-3.749887 -4.805149 0.149518 44 44 44 44
-0.671126 -5.851371 -0.647896 185 185 185 185
-3.775261 -4.791176 0.224992 163 163 163 163
-2.862757 -4.009466 0.904021 116 116 116 116
-1.461409 -3.567243 0.537860 137 137 137 137
-0.550084 -4.087267 -0.755644 55 55 55 55
-4.485296 -3.997381 0.719487 145 145 145 145
-0.176029 -1.719539 -1.142539 186 186 186 186
-1.991040 -2.248595 0.493196 129 129 129 129
-2.424953 -2.660483 -1.176646 162 162 162 162
1.096677 -6.092690 0.908675 80 80 80 80
-0.242743 -4.339272 -0.780558 251 251 251 251
-1.382161 -3.909954 0.510471 60 60 60 60
-1.223777 1.966898 0.098434 125 125 125 125
-0.423358 -2.947239 0.553307 236 236 236 236
