<?xml version='1.0' encoding='UTF-8'?>
<svg xmlns="http://www.w3.org/2000/svg" viewBox="-6.131 -0.832 11.811 1.944">
  <!--Top-down view of camera positions-->
  <rect x="-6.131" y="-0.832" width="11.811" height="1.944" fill="white" opacity="0"/>
  <polyline points="4.696,0.951 4.273,0.730 4.257,0.729 2.414,0.388 1.735,0.213 0.470,-0.073 -1.067,-0.283 -4.525,-0.669 -5.146,-0.517 -2.860,-0.551 -4.697,-0.635 4.273,0.730 4.257,0.729 4.696,0.951 2.414,0.388 1.735,0.213 -4.525,-0.669 -4.697,-0.635 -5.146,-0.517 0.470,-0.073 -1.067,-0.283 -2.860,-0.551 4.696,0.951 4.273,0.730 4.257,0.729 -5.146,-0.517 -1.067,-0.283 -4.525,-0.669 -4.697,-0.635 -2.860,-0.551 1.735,0.213 0.470,-0.073 2.414,0.388 4.273,0.730 2.414,0.388 4.696,0.951 4.257,0.729 1.735,0.213 0.470,-0.073 -1.067,-0.283 -2.860,-0.551 -4.525,-0.669 -5.146,-0.517 -4.697,-0.635 4.696,0.951 4.273,0.730 4.257,0.729 2.414,0.388 1.735,0.213 0.470,-0.073 -1.067,-0.283 -2.860,-0.551 -4.525,-0.669 -4.697,-0.635 -5.146,-0.517 4.257,0.729 4.696,0.951 4.273,0.730 -5.146,-0.517 -4.697,-0.635 -4.525,-0.669 1.735,0.213 2.414,0.388 -2.860,-0.551 -1.067,-0.283 0.470,-0.073 4.696,0.951 -2.860,-0.551 -1.067,-0.283 -4.525,-0.669 -4.697,-0.635 4.273,0.730 4.257,0.729 -5.146,-0.517 2.414,0.388 0.470,-0.073 1.735,0.213 4.273,0.730 4.696,0.951 4.257,0.729 -1.067,-0.283 2.414,0.388 1.735,0.213 0.470,-0.073 -2.860,-0.551 -4.525,-0.669 -4.697,-0.635 -5.146,-0.517" fill="none" stroke="blue" stroke_width="0.1" opacity="0.6"/>
  <circle cx="1.735" cy="0.213" r="0.0985" fill="red" stroke="darkred" stroke_width="0.0197" opacity="0.8">
    <title>Camera 93: (1.73, 0.21)</title>
  </circle>
  <circle cx="1.735" cy="0.213" r="0.0985" fill="red" stroke="darkred" stroke_width="0.0197" opacity="0.8">
    <title>Camera 511: (1.73, 0.21)</title>
  </circle>
  <circle cx="1.735" cy="0.213" r="0.0985" fill="red" stroke="darkred" stroke_width="0.0197" opacity="0.8">
    <title>Camera 938: (1.73, 0.21)</title>
  </circle>
  <circle cx="1.735" cy="0.213" r="0.0985" fill="red" stroke="darkred" stroke_width="0.0197" opacity="0.8">
    <title>Camera 1345: (1.73, 0.21)</title>
  </circle>
  <circle cx="1.735" cy="0.213" r="0.0985" fill="red" stroke="darkred" stroke_width="0.0197" opacity="0.8">
    <title>Camera 1759: (1.73, 0.21)</title>
  </circle>
  <circle cx="1.735" cy="0.213" r="0.0985" fill="red" stroke="darkred" stroke_width="0.0197" opacity="0.8">
    <title>Camera 2181: (1.73, 0.21)</title>
  </circle>
  <circle cx="1.735" cy="0.213" r="0.0985" fill="red" stroke="darkred" stroke_width="0.0197" opacity="0.8">
    <title>Camera 2605: (1.73, 0.21)</title>
  </circle>
  <circle cx="1.735" cy="0.213" r="0.0985" fill="red" stroke="darkred" stroke_width="0.0197" opacity="0.8">
    <title>Camera 3012: (1.73, 0.21)</title>
  </circle>
  <circle cx="-1.067" cy="-0.283" r="0.0985" fill="red" stroke="darkred" stroke_width="0.0197" opacity="0.8">
    <title>Camera 96: (-1.07, -0.28)</title>
  </circle>
  <circle cx="-1.067" cy="-0.283" r="0.0985" fill="red" stroke="darkred" stroke_width="0.0197" opacity="0.8">
    <title>Camera 517: (-1.07, -0.28)</title>
  </circle>
  <circle cx="-1.067" cy="-0.283" r="0.0985" fill="red" stroke="darkred" stroke_width="0.0197" opacity="0.8">
    <title>Camera 928: (-1.07, -0.28)</title>
  </circle>
  <circle cx="-1.067" cy="-0.283" r="0.0985" fill="red" stroke="darkred" stroke_width="0.0197" opacity="0.8">
    <title>Camera 1347: (-1.07, -0.28)</title>
  </circle>
  <circle cx="-1.067" cy="-0.283" r="0.0985" fill="red" stroke="darkred" stroke_width="0.0197" opacity="0.8">
    <title>Camera 1764: (-1.07, -0.28)</title>
  </circle>
  <circle cx="-1.067" cy="-0.283" r="0.0985" fill="red" stroke="darkred" stroke_width="0.0197" opacity="0.8">
    <title>Camera 2196: (-1.07, -0.28)</title>
  </circle>
  <circle cx="-1.067" cy="-0.283" r="0.0985" fill="red" stroke="darkred" stroke_width="0.0197" opacity="0.8">
    <title>Camera 2594: (-1.07, -0.28)</title>
  </circle>
  <circle cx="-1.067" cy="-0.283" r="0.0985" fill="red" stroke="darkred" stroke_width="0.0197" opacity="0.8">
    <title>Camera 3010: (-1.07, -0.28)</title>
  </circle>
  <circle cx="0.470" cy="-0.073" r="0.0985" fill="red" stroke="darkred" stroke_width="0.0197" opacity="0.8">
    <title>Camera 95: (0.47, -0.07)</title>
  </circle>
  <circle cx="0.470" cy="-0.073" r="0.0985" fill="red" stroke="darkred" stroke_width="0.0197" opacity="0.8">
    <title>Camera 516: (0.47, -0.07)</title>
  </circle>
  <circle cx="0.470" cy="-0.073" r="0.0985" fill="red" stroke="darkred" stroke_width="0.0197" opacity="0.8">
    <title>Camera 941: (0.47, -0.07)</title>
  </circle>
  <circle cx="0.470" cy="-0.073" r="0.0985" fill="red" stroke="darkred" stroke_width="0.0197" opacity="0.8">
    <title>Camera 1346: (0.47, -0.07)</title>
  </circle>
  <circle cx="0.470" cy="-0.073" r="0.0985" fill="red" stroke="darkred" stroke_width="0.0197" opacity="0.8">
    <title>Camera 1762: (0.47, -0.07)</title>
  </circle>
  <circle cx="0.470" cy="-0.073" r="0.0985" fill="red" stroke="darkred" stroke_width="0.0197" opacity="0.8">
    <title>Camera 2202: (0.47, -0.07)</title>
  </circle>
  <circle cx="0.470" cy="-0.073" r="0.0985" fill="red" stroke="darkred" stroke_width="0.0197" opacity="0.8">
    <title>Camera 2603: (0.47, -0.07)</title>
  </circle>
  <circle cx="0.470" cy="-0.073" r="0.0985" fill="red" stroke="darkred" stroke_width="0.0197" opacity="0.8">
    <title>Camera 3013: (0.47, -0.07)</title>
  </circle>
  <circle cx="2.414" cy="0.388" r="0.0985" fill="red" stroke="darkred" stroke_width="0.0197" opacity="0.8">
    <title>Camera 90: (2.41, 0.39)</title>
  </circle>
  <circle cx="2.414" cy="0.388" r="0.0985" fill="red" stroke="darkred" stroke_width="0.0197" opacity="0.8">
    <title>Camera 510: (2.41, 0.39)</title>
  </circle>
  <circle cx="2.414" cy="0.388" r="0.0985" fill="red" stroke="darkred" stroke_width="0.0197" opacity="0.8">
    <title>Camera 946: (2.41, 0.39)</title>
  </circle>
  <circle cx="2.414" cy="0.388" r="0.0985" fill="red" stroke="darkred" stroke_width="0.0197" opacity="0.8">
    <title>Camera 1342: (2.41, 0.39)</title>
  </circle>
  <circle cx="2.414" cy="0.388" r="0.0985" fill="red" stroke="darkred" stroke_width="0.0197" opacity="0.8">
    <title>Camera 1758: (2.41, 0.39)</title>
  </circle>
  <circle cx="2.414" cy="0.388" r="0.0985" fill="red" stroke="darkred" stroke_width="0.0197" opacity="0.8">
    <title>Camera 2183: (2.41, 0.39)</title>
  </circle>
  <circle cx="2.414" cy="0.388" r="0.0985" fill="red" stroke="darkred" stroke_width="0.0197" opacity="0.8">
    <title>Camera 2601: (2.41, 0.39)</title>
  </circle>
  <circle cx="2.414" cy="0.388" r="0.0985" fill="red" stroke="darkred" stroke_width="0.0197" opacity="0.8">
    <title>Camera 3011: (2.41, 0.39)</title>
  </circle>
  <circle cx="-2.860" cy="-0.551" r="0.0985" fill="red" stroke="darkred" stroke_width="0.0197" opacity="0.8">
    <title>Camera 99: (-2.86, -0.55)</title>
  </circle>
  <circle cx="-2.860" cy="-0.551" r="0.0985" fill="red" stroke="darkred" stroke_width="0.0197" opacity="0.8">
    <title>Camera 519: (-2.86, -0.55)</title>
  </circle>
  <circle cx="-2.860" cy="-0.551" r="0.0985" fill="red" stroke="darkred" stroke_width="0.0197" opacity="0.8">
    <title>Camera 932: (-2.86, -0.55)</title>
  </circle>
  <circle cx="-2.860" cy="-0.551" r="0.0985" fill="red" stroke="darkred" stroke_width="0.0197" opacity="0.8">
    <title>Camera 1348: (-2.86, -0.55)</title>
  </circle>
  <circle cx="-2.860" cy="-0.551" r="0.0985" fill="red" stroke="darkred" stroke_width="0.0197" opacity="0.8">
    <title>Camera 1765: (-2.86, -0.55)</title>
  </circle>
  <circle cx="-2.860" cy="-0.551" r="0.0985" fill="red" stroke="darkred" stroke_width="0.0197" opacity="0.8">
    <title>Camera 2187: (-2.86, -0.55)</title>
  </circle>
  <circle cx="-2.860" cy="-0.551" r="0.0985" fill="red" stroke="darkred" stroke_width="0.0197" opacity="0.8">
    <title>Camera 2593: (-2.86, -0.55)</title>
  </circle>
  <circle cx="-2.860" cy="-0.551" r="0.0985" fill="red" stroke="darkred" stroke_width="0.0197" opacity="0.8">
    <title>Camera 3014: (-2.86, -0.55)</title>
  </circle>
  <circle cx="-4.525" cy="-0.669" r="0.0985" fill="red" stroke="darkred" stroke_width="0.0197" opacity="0.8">
    <title>Camera 97: (-4.53, -0.67)</title>
  </circle>
  <circle cx="-4.525" cy="-0.669" r="0.0985" fill="red" stroke="darkred" stroke_width="0.0197" opacity="0.8">
    <title>Camera 512: (-4.53, -0.67)</title>
  </circle>
  <circle cx="-4.525" cy="-0.669" r="0.0985" fill="red" stroke="darkred" stroke_width="0.0197" opacity="0.8">
    <title>Camera 929: (-4.53, -0.67)</title>
  </circle>
  <circle cx="-4.525" cy="-0.669" r="0.0985" fill="red" stroke="darkred" stroke_width="0.0197" opacity="0.8">
    <title>Camera 1349: (-4.53, -0.67)</title>
  </circle>
  <circle cx="-4.525" cy="-0.669" r="0.0985" fill="red" stroke="darkred" stroke_width="0.0197" opacity="0.8">
    <title>Camera 1766: (-4.53, -0.67)</title>
  </circle>
  <circle cx="-4.525" cy="-0.669" r="0.0985" fill="red" stroke="darkred" stroke_width="0.0197" opacity="0.8">
    <title>Camera 2180: (-4.53, -0.67)</title>
  </circle>
  <circle cx="-4.525" cy="-0.669" r="0.0985" fill="red" stroke="darkred" stroke_width="0.0197" opacity="0.8">
    <title>Camera 2595: (-4.53, -0.67)</title>
  </circle>
  <circle cx="-4.525" cy="-0.669" r="0.0985" fill="red" stroke="darkred" stroke_width="0.0197" opacity="0.8">
    <title>Camera 3016: (-4.53, -0.67)</title>
  </circle>
  <circle cx="-4.697" cy="-0.635" r="0.0985" fill="red" stroke="darkred" stroke_width="0.0197" opacity="0.8">
    <title>Camera 100: (-4.70, -0.64)</title>
  </circle>
  <circle cx="-4.697" cy="-0.635" r="0.0985" fill="red" stroke="darkred" stroke_width="0.0197" opacity="0.8">
    <title>Camera 514: (-4.70, -0.64)</title>
  </circle>
  <circle cx="-4.697" cy="-0.635" r="0.0985" fill="red" stroke="darkred" stroke_width="0.0197" opacity="0.8">
    <title>Camera 930: (-4.70, -0.64)</title>
  </circle>
  <circle cx="-4.697" cy="-0.635" r="0.0985" fill="red" stroke="darkred" stroke_width="0.0197" opacity="0.8">
    <title>Camera 1351: (-4.70, -0.64)</title>
  </circle>
  <circle cx="-4.697" cy="-0.635" r="0.0985" fill="red" stroke="darkred" stroke_width="0.0197" opacity="0.8">
    <title>Camera 1767: (-4.70, -0.64)</title>
  </circle>
  <circle cx="-4.697" cy="-0.635" r="0.0985" fill="red" stroke="darkred" stroke_width="0.0197" opacity="0.8">
    <title>Camera 2179: (-4.70, -0.64)</title>
  </circle>
  <circle cx="-4.697" cy="-0.635" r="0.0985" fill="red" stroke="darkred" stroke_width="0.0197" opacity="0.8">
    <title>Camera 2596: (-4.70, -0.64)</title>
  </circle>
  <circle cx="-4.697" cy="-0.635" r="0.0985" fill="red" stroke="darkred" stroke_width="0.0197" opacity="0.8">
    <title>Camera 3018: (-4.70, -0.64)</title>
  </circle>
  <circle cx="-5.146" cy="-0.517" r="0.0985" fill="red" stroke="darkred" stroke_width="0.0197" opacity="0.8">
    <title>Camera 98: (-5.15, -0.52)</title>
  </circle>
  <circle cx="-5.146" cy="-0.517" r="0.0985" fill="red" stroke="darkred" stroke_width="0.0197" opacity="0.8">
    <title>Camera 515: (-5.15, -0.52)</title>
  </circle>
  <circle cx="-5.146" cy="-0.517" r="0.0985" fill="red" stroke="darkred" stroke_width="0.0197" opacity="0.8">
    <title>Camera 927: (-5.15, -0.52)</title>
  </circle>
  <circle cx="-5.146" cy="-0.517" r="0.0985" fill="red" stroke="darkred" stroke_width="0.0197" opacity="0.8">
    <title>Camera 1350: (-5.15, -0.52)</title>
  </circle>
  <circle cx="-5.146" cy="-0.517" r="0.0985" fill="red" stroke="darkred" stroke_width="0.0197" opacity="0.8">
    <title>Camera 1768: (-5.15, -0.52)</title>
  </circle>
  <circle cx="-5.146" cy="-0.517" r="0.0985" fill="red" stroke="darkred" stroke_width="0.0197" opacity="0.8">
    <title>Camera 2178: (-5.15, -0.52)</title>
  </circle>
  <circle cx="-5.146" cy="-0.517" r="0.0985" fill="red" stroke="darkred" stroke_width="0.0197" opacity="0.8">
    <title>Camera 2599: (-5.15, -0.52)</title>
  </circle>
  <circle cx="-5.146" cy="-0.517" r="0.0985" fill="red" stroke="darkred" stroke_width="0.0197" opacity="0.8">
    <title>Camera 3019: (-5.15, -0.52)</title>
  </circle>
  <circle cx="4.257" cy="0.729" r="0.0985" fill="red" stroke="darkred" stroke_width="0.0197" opacity="0.8">
    <title>Camera 89: (4.26, 0.73)</title>
  </circle>
  <circle cx="4.257" cy="0.729" r="0.0985" fill="red" stroke="darkred" stroke_width="0.0197" opacity="0.8">
    <title>Camera 508: (4.26, 0.73)</title>
  </circle>
  <circle cx="4.257" cy="0.729" r="0.0985" fill="red" stroke="darkred" stroke_width="0.0197" opacity="0.8">
    <title>Camera 926: (4.26, 0.73)</title>
  </circle>
  <circle cx="4.257" cy="0.729" r="0.0985" fill="red" stroke="darkred" stroke_width="0.0197" opacity="0.8">
    <title>Camera 1344: (4.26, 0.73)</title>
  </circle>
  <circle cx="4.257" cy="0.729" r="0.0985" fill="red" stroke="darkred" stroke_width="0.0197" opacity="0.8">
    <title>Camera 1756: (4.26, 0.73)</title>
  </circle>
  <circle cx="4.257" cy="0.729" r="0.0985" fill="red" stroke="darkred" stroke_width="0.0197" opacity="0.8">
    <title>Camera 2174: (4.26, 0.73)</title>
  </circle>
  <circle cx="4.257" cy="0.729" r="0.0985" fill="red" stroke="darkred" stroke_width="0.0197" opacity="0.8">
    <title>Camera 2598: (4.26, 0.73)</title>
  </circle>
  <circle cx="4.257" cy="0.729" r="0.0985" fill="red" stroke="darkred" stroke_width="0.0197" opacity="0.8">
    <title>Camera 3007: (4.26, 0.73)</title>
  </circle>
  <circle cx="4.273" cy="0.730" r="0.0985" fill="red" stroke="darkred" stroke_width="0.0197" opacity="0.8">
    <title>Camera 87: (4.27, 0.73)</title>
  </circle>
  <circle cx="4.273" cy="0.730" r="0.0985" fill="red" stroke="darkred" stroke_width="0.0197" opacity="0.8">
    <title>Camera 507: (4.27, 0.73)</title>
  </circle>
  <circle cx="4.273" cy="0.730" r="0.0985" fill="red" stroke="darkred" stroke_width="0.0197" opacity="0.8">
    <title>Camera 925: (4.27, 0.73)</title>
  </circle>
  <circle cx="4.273" cy="0.730" r="0.0985" fill="red" stroke="darkred" stroke_width="0.0197" opacity="0.8">
    <title>Camera 1341: (4.27, 0.73)</title>
  </circle>
  <circle cx="4.273" cy="0.730" r="0.0985" fill="red" stroke="darkred" stroke_width="0.0197" opacity="0.8">
    <title>Camera 1755: (4.27, 0.73)</title>
  </circle>
  <circle cx="4.273" cy="0.730" r="0.0985" fill="red" stroke="darkred" stroke_width="0.0197" opacity="0.8">
    <title>Camera 2176: (4.27, 0.73)</title>
  </circle>
  <circle cx="4.273" cy="0.730" r="0.0985" fill="red" stroke="darkred" stroke_width="0.0197" opacity="0.8">
    <title>Camera 2597: (4.27, 0.73)</title>
  </circle>
  <circle cx="4.273" cy="0.730" r="0.0985" fill="red" stroke="darkred" stroke_width="0.0197" opacity="0.8">
    <title>Camera 3002: (4.27, 0.73)</title>
  </circle>
  <circle cx="4.696" cy="0.951" r="0.0985" fill="red" stroke="darkred" stroke_width="0.0197" opacity="0.8">
    <title>Camera 85: (4.70, 0.95)</title>
  </circle>
  <circle cx="4.696" cy="0.951" r="0.0985" fill="red" stroke="darkred" stroke_width="0.0197" opacity="0.8">
    <title>Camera 509: (4.70, 0.95)</title>
  </circle>
  <circle cx="4.696" cy="0.951" r="0.0985" fill="red" stroke="darkred" stroke_width="0.0197" opacity="0.8">
    <title>Camera 923: (4.70, 0.95)</title>
  </circle>
  <circle cx="4.696" cy="0.951" r="0.0985" fill="red" stroke="darkred" stroke_width="0.0197" opacity="0.8">
    <title>Camera 1343: (4.70, 0.95)</title>
  </circle>
  <circle cx="4.696" cy="0.951" r="0.0985" fill="red" stroke="darkred" stroke_width="0.0197" opacity="0.8">
    <title>Camera 1753: (4.70, 0.95)</title>
  </circle>
  <circle cx="4.696" cy="0.951" r="0.0985" fill="red" stroke="darkred" stroke_width="0.0197" opacity="0.8">
    <title>Camera 2175: (4.70, 0.95)</title>
  </circle>
  <circle cx="4.696" cy="0.951" r="0.0985" fill="red" stroke="darkred" stroke_width="0.0197" opacity="0.8">
    <title>Camera 2592: (4.70, 0.95)</title>
  </circle>
  <circle cx="4.696" cy="0.951" r="0.0985" fill="red" stroke="darkred" stroke_width="0.0197" opacity="0.8">
    <title>Camera 3004: (4.70, 0.95)</title>
  </circle>
</svg>
